<?xml version="1.0" encoding="utf-8"?>
<!-- Generator: Adobe Illustrator 22.1.0, SVG Export Plug-In . SVG Version: 6.00 Build 0)  -->
<svg version="1.1" id="Layer_1" xmlns="http://www.w3.org/2000/svg" xmlns:xlink="http://www.w3.org/1999/xlink" x="0px" y="0px"
	 viewBox="0 0 159 8.5" style="enable-background:new 0 0 159 8.5;" xml:space="preserve">
<style type="text/css">
	.st0{fill:#DEFCF2;}
	.st1{fill:#FFFFFF;fill-opacity:0;}
</style>
<title>line-blue</title>
<path class="st0" d="M155,8.3h-16c-2.2,0-4-1.8-4-4s1.8-4,4-4h16c2.2,0,4,1.8,4,4S157.2,8.3,155,8.3z M115.1,8.3h-16
	c-2.2,0-4-1.8-4-4s1.8-4,4-4h16c2.2,0,4,1.8,4,4S117.3,8.3,115.1,8.3z M75.3,8.3h-16c-2.2,0-4-1.8-4-4s1.8-4,4-4h15.9
	c2.2,0,4,1.8,4,4S77.4,8.3,75.3,8.3L75.3,8.3z M35.4,8.3h-16c-2.2,0-4-1.8-4-4s1.8-4,4-4h16c2.2,0,4,1.8,4,4S37.6,8.3,35.4,8.3
	L35.4,8.3z"/>
<rect class="st1" width="18.6" height="8.5"/>
</svg>
