<?xml version="1.0" encoding="utf-8"?>
<!-- Generator: Adobe Illustrator 22.1.0, SVG Export Plug-In . SVG Version: 6.00 Build 0)  -->
<svg version="1.1" id="Layer_1" xmlns="http://www.w3.org/2000/svg" xmlns:xlink="http://www.w3.org/1999/xlink" x="0px" y="0px"
	 viewBox="0 0 66.4 66.4" style="enable-background:new 0 0 66.4 66.4;" xml:space="preserve">
<style type="text/css">
	.st0{fill:#DEFCF2;}
	.st1{fill:#A87C4F;}
	.st2{opacity:0.8;fill-rule:evenodd;clip-rule:evenodd;fill:#657719;}
</style>
<title>icon-bell</title>
<g>
	<circle class="st0" cx="33.2" cy="33.2" r="33.2"/>
	<path class="st1" d="M42.6,31c-1.3-1.6-0.3-4.5-2.1-14.4c-1.3-7.3-5.4-10.5-7.6-10.5s-6.3,3.2-7.6,10.5c-1.8,9.9-0.9,12.9-2.1,14.4
		c-1.7,2.1-6.6,4.1-6.5,9.8c0,2.5,2.8,3.4,6.7,5.2c3.3,1.5,5,4,9.6,4s6.3-2.5,9.6-4c3.9-1.7,6.6-2.6,6.7-5.2
		C49.2,35.1,44.3,33.1,42.6,31z"/>
	<g>
		<path class="st2" d="M41.6,55.7c0,1.6-0.8,2.9-1.8,2.9S38,57.3,38,55.8c0-1.6,1.7-5.8,1.7-5.8S41.6,54.1,41.6,55.7z"/>
		<path class="st2" d="M49.8,55.4c0.1,2.7-1.3,4.8-3,4.9c-1.7,0-3.2-2.1-3.2-4.7s2.9-9.9,2.9-9.9S49.7,52.7,49.8,55.4z"/>
	</g>
</g>
</svg>
