<?xml version="1.0" encoding="utf-8"?>
<!-- Generator: Adobe Illustrator 22.1.0, SVG Export Plug-In . SVG Version: 6.00 Build 0)  -->
<svg version="1.1" id="Layer_1" xmlns="http://www.w3.org/2000/svg" xmlns:xlink="http://www.w3.org/1999/xlink" x="0px" y="0px"
	 viewBox="0 0 66.4 66.4" style="enable-background:new 0 0 66.4 66.4;" xml:space="preserve">
<style type="text/css">
	.st0{fill:#DEFCF2;}
	.st1{fill:#C3996B;}
	.st2{opacity:0.7;fill:#42210B;}
	.st3{fill:#A87C4F;stroke:#A87C4F;stroke-width:0.5;stroke-linecap:round;stroke-miterlimit:10;}
	.st4{opacity:0.7;}
	.st5{fill:#A87C4F;}
	.st6{fill:#CA6B4F;}
	.st7{fill:#A54122;}
	.st8{fill:none;stroke:#231F20;stroke-width:1.5;stroke-linecap:round;stroke-miterlimit:10;}
	.st9{fill:#282828;}
</style>
<title>icon-bell</title>
<g>
	<circle class="st0" cx="33.2" cy="33.2" r="33.2"/>
	<path class="st1" d="M54.8,33.9c0-0.6,0.1-1.2,0.1-1.8c0-12.6-9.7-20.7-21.6-20.7c-11.9,0-21.4,8-21.4,20.7c0,0.6,0,1.2,0.1,1.8
		c0,0-0.1,0-0.1,0c-4.4,0-4.4,6.2,0,6.2c0.5,0,0.9-0.1,1.3-0.2c1.6,4.7,4.8,9,9.2,11.8c3.3,2.1,7,3.4,11,3.4
		c5.6,0,10.9-2.5,14.7-6.3c2.5-2.5,4.3-5.5,5.5-8.8c0.3,0.1,0.7,0.2,1.1,0.2C58.9,40.1,59,34.1,54.8,33.9z"/>
	<path class="st2" d="M30.7,20c-0.4-0.8-0.6-1.8-0.4-2.7c0.2-0.9,0.7-1.8,1.4-2.5c1.5-1.3,4-1.2,5.4,0.4c0.7,0.8,0.9,1.9,0.6,2.9
		c-0.3,1-1.1,1.8-2.2,1.9c-1,0.1-2.1-0.4-2.6-1.3c-0.5-1,0-2.2,1-2.5c0.1,0,0.2,0,0.2,0.1c0,0.1,0,0.2-0.1,0.2c-0.7,0.4-1,1.3-0.6,2
		c0.4,0.6,1.2,1,1.9,0.9c0.7-0.1,1.3-0.7,1.5-1.4c0.2-0.7,0-1.5-0.5-2.1c-1-1.2-3-1.4-4.2-0.4c-1.3,1-1.8,2.9-1.2,4.5
		c0,0.1,0,0.2-0.1,0.2C30.8,20.1,30.8,20.1,30.7,20z"/>
	<path class="st3" d="M11.8,37.9c-0.5,0.1-0.9-0.3-1-0.8s0.3-0.9,0.8-1"/>
	<g class="st4">
		<path class="st2" d="M42.3,26.7c-0.1,0-0.3,0-0.4,0.1c-0.2,0.1-0.3,0.4-0.1,0.7c0.7,1.1,1.9,1.7,3.2,1.7c0.3,0,0.5-0.2,0.5-0.5
			s-0.2-0.5-0.5-0.5c-0.9,0-1.9-0.5-2.4-1.3C42.5,26.8,42.4,26.8,42.3,26.7z"/>
	</g>
	<g class="st4">
		<path class="st2" d="M26,26.7c0.1,0,0.3,0,0.4,0.1c0.2,0.1,0.3,0.4,0.1,0.7c-0.7,1.1-1.9,1.7-3.2,1.7c-0.3,0-0.5-0.2-0.5-0.5
			s0.2-0.5,0.5-0.5c0.9,0,1.9-0.5,2.4-1.3C25.8,26.8,25.9,26.8,26,26.7z"/>
	</g>
	<path class="st3" d="M54.7,37.9c0.5,0.1,0.9-0.3,1-0.8s-0.3-0.9-0.8-1"/>
	<path class="st5" d="M33.9,40.6L33.9,40.6c-0.7,0-1.5-0.1-1.5-0.3l0.1-0.9c0-0.2,0.6-0.4,1.4-0.4h0c0.7,0,1.4,0.2,1.4,0.4l0.1,0.9
		C35.4,40.6,34.7,40.6,33.9,40.6z"/>
	<g>
		<path class="st6" d="M37.5,46.5c0.2-0.4,0.2-1-0.2-1.4c-0.3-0.3-0.6-0.5-0.9-0.6c-1.2-0.6-2.8-0.7-4.1-0.4c-0.4,0.1-0.7,0.2-1,0.3
			c-0.3,0.2-0.6,0.3-0.9,0.6c-0.4,0.4-0.5,1-0.2,1.5c0.8-0.6,2.2-1,3.9-1C35.6,45.5,36.9,45.9,37.5,46.5z"/>
		<path class="st7" d="M37.3,46.7c0.1-0.1,0.1-0.2,0.2-0.2c-0.6-0.6-1.9-1-3.5-1c-1.6,0-3.1,0.4-3.9,1c0,0,0.1,0.1,0.1,0.1
			C30.6,47,36.9,47.2,37.3,46.7z"/>
	</g>
	<path class="st8" d="M45.2,34.1c-0.9,0.9-2.3,0.9-3.2,0"/>
	<path class="st8" d="M26.6,34.1c-0.9,0.9-2.3,0.9-3.2,0"/>
	<g>
		<path class="st9" d="M40.8,23.5v-0.1c0-0.1,0-0.2,0.1-0.4l3.2-4.1h-2.8c-0.2,0-0.3-0.1-0.3-0.3v-0.1c0-0.2,0.1-0.3,0.3-0.3H45
			c0.2,0,0.3,0.1,0.3,0.3v0.1c0,0.1,0,0.2-0.1,0.4l-3.3,4.1h3.3c0.2,0,0.3,0.1,0.3,0.3v0.1c0,0.2-0.1,0.3-0.3,0.3h-4.1
			C40.9,23.8,40.8,23.7,40.8,23.5z"/>
	</g>
	<g>
		<path class="st9" d="M46.2,20.9v-0.1c0-0.1,0-0.2,0.1-0.4l3.2-4.1h-2.8c-0.2,0-0.3-0.1-0.3-0.3v-0.1c0-0.2,0.1-0.3,0.3-0.3h3.7
			c0.2,0,0.3,0.1,0.3,0.3V16c0,0.1,0,0.2-0.1,0.4l-3.3,4.1h3.3c0.2,0,0.3,0.1,0.3,0.3v0.1c0,0.2-0.1,0.3-0.3,0.3h-4.1
			C46.3,21.2,46.2,21.1,46.2,20.9z"/>
	</g>
	<g>
		<path class="st9" d="M51.7,17.2v-0.1c0-0.1,0-0.2,0.1-0.4l3.2-4.1h-2.8c-0.2,0-0.3-0.1-0.3-0.3v-0.1c0-0.2,0.1-0.3,0.3-0.3h3.7
			c0.2,0,0.3,0.1,0.3,0.3v0.1c0,0.1,0,0.2-0.1,0.4l-3.3,4.1H56c0.2,0,0.3,0.1,0.3,0.3v0.1c0,0.2-0.1,0.3-0.3,0.3H52
			C51.8,17.5,51.7,17.4,51.7,17.2z"/>
	</g>
</g>
</svg>
