<?xml version="1.0" encoding="utf-8"?>
<!-- Generator: Adobe Illustrator 22.1.0, SVG Export Plug-In . SVG Version: 6.00 Build 0)  -->
<svg version="1.1" id="Layer_1" xmlns="http://www.w3.org/2000/svg" xmlns:xlink="http://www.w3.org/1999/xlink" x="0px" y="0px"
	 viewBox="0 0 66.4 66.4" style="enable-background:new 0 0 66.4 66.4;" xml:space="preserve">
<style type="text/css">
	.st0{fill:#DEFCF2;}
	.st1{fill:#42BED3;}
	.st2{fill:#6BDFF2;}
	.st3{fill:#99F1FF;}
	.st4{fill:#657719;}
	.st5{opacity:0.8;fill-rule:evenodd;clip-rule:evenodd;fill:#657719;}
	.st6{fill:#55CDE0;}
</style>
<title>icon-bell</title>
<g>
	<circle class="st0" cx="33.2" cy="33.2" r="33.2"/>
	<path class="st1" d="M16.1,33.6c0.3-2.7,0.7-5.4,1-8.2l7.1-6.3l6.9-3l10.6,1.3l8.1,8.8c0.2,3.1,0.4,6.1,0.7,9.2
		c0.2,1.6,2.6,1.1,2.4-0.4c-1.1-9.5-1.2-19.1-0.3-28.7C47.3,2.4,40.5,0,33.2,0c-5.6,0-10.9,1.4-15.5,3.8c-1.7,9.8-2.8,19.8-4,29.5
		C13.5,34.9,16,35.1,16.1,33.6z"/>
	<g>
		<circle class="st2" cx="33.2" cy="35.4" r="17.8"/>
	</g>
	<g>
		<path class="st1" d="M46.1,50.1c-8.3,7.1-20.9,6.1-28-2.2s-6.1-20.9,2.2-28s20.9-6.1,28,2.2S54.4,43,46.1,50.1z M21.8,21.7
			C14.5,28,13.6,39,19.9,46.3s17.3,8.2,24.6,1.9s8.2-17.3,1.9-24.6S29.1,15.5,21.8,21.7z"/>
	</g>
	<g>
		<circle class="st3" cx="33.1" cy="35" r="13"/>
	</g>
	<g>
		<path class="st4" d="M27.6,47.4c3.3-0.5,0.6,1,3.9,0.9c2.6,0,5.2,1.8,6.9-0.1c1.6-1.8,10.2-7.2,7.7-7.9c-3-0.8-9.2-0.4-12.2-0.3
			c-3.8,0.1-6.1-0.8-9.9-0.3C20.1,40.2,25,45.2,27.6,47.4L27.6,47.4z"/>
	</g>
	<path class="st5" d="M38.6,61c0,1.5-0.7,2.7-1.7,2.8c-1,0-1.8-1.2-1.8-2.7c0-1.5,1.6-5.6,1.6-5.6S38.6,59.5,38.6,61z"/>
	<g>
		<path class="st6" d="M39.5,49.9c-0.4,0.3-0.8,0.6-1.3,0.8c-1.7,0.5-3.2-0.2-4.5-0.8c-0.6-0.3-1.2-0.6-1.6-0.6
			c-0.4,0-1,0.2-1.6,0.3c-1.3,0.4-3,0.9-4.5,0.1c-1.5-0.8-2.1-2.4-2.6-3.6c-0.2-0.6-0.5-1.3-0.8-1.6c-0.3-0.3-0.9-0.7-1.5-1
			c-1.2-0.7-2.7-1.5-3.2-3.1c-0.5-1.7,0.2-3.2,0.8-4.5c0.3-0.6,0.6-1.2,0.6-1.6c0-0.4-0.2-1-0.3-1.6c-0.4-1.3-0.9-3-0.1-4.5
			c0.8-1.5,2.4-2.1,3.6-2.6c0.6-0.2,1.3-0.5,1.6-0.8c0.3-0.3,0.7-0.9,1-1.5c0.7-1.2,1.5-2.7,3.1-3.2c1.7-0.5,3.2,0.2,4.5,0.8
			c0.6,0.3,1.2,0.6,1.6,0.6c0.4,0,1-0.2,1.6-0.3c1.3-0.4,3-0.9,4.5-0.1c1.5,0.8,2.1,2.4,2.6,3.6c0.2,0.6,0.5,1.3,0.8,1.6
			c0.3,0.3,0.9,0.7,1.5,1c1.2,0.7,2.7,1.5,3.2,3.1c0.5,1.7-0.2,3.2-0.8,4.5c-0.3,0.6-0.6,1.2-0.6,1.6c0,0.4,0.2,1,0.3,1.6
			c0.4,1.3,0.9,3,0.1,4.5c-0.8,1.5-2.4,2.1-3.6,2.6c-0.6,0.2-1.3,0.5-1.6,0.8c-0.3,0.3-0.7,0.9-1,1.5C40.8,48.2,40.3,49.2,39.5,49.9
			z M22.3,29.7C22.3,29.7,22.3,29.8,22.3,29.7c-0.2,0.3,0.1,1.3,0.3,1.9c0.3,0.9,0.6,1.9,0.5,3c-0.1,1-0.5,2-0.9,2.9
			c-0.2,0.5-0.7,1.5-0.6,1.7c0.1,0.2,0.9,0.7,1.4,1c0.8,0.5,1.8,1,2.5,1.8c0.7,0.8,1.1,1.9,1.4,2.8c0.2,0.5,0.5,1.4,0.8,1.6
			c0.2,0.1,1.3-0.2,1.8-0.3c0.9-0.3,1.9-0.6,3-0.5c1,0.1,2,0.5,2.9,0.9c0.5,0.2,1.5,0.7,1.7,0.6c0.3-0.1,0.7-0.9,1-1.4
			c0.5-0.8,1-1.8,1.8-2.5s1.9-1.1,2.8-1.4c0.5-0.2,1.4-0.5,1.6-0.8c0.1-0.2-0.2-1.3-0.3-1.8c-0.3-0.9-0.6-1.9-0.5-3
			c0.1-1,0.5-2,0.9-2.9c0.2-0.5,0.7-1.5,0.6-1.7c-0.1-0.2-0.9-0.7-1.4-1c-0.8-0.5-1.8-1-2.5-1.8c-0.7-0.8-1.1-1.9-1.4-2.8
			c-0.2-0.5-0.5-1.4-0.8-1.6c-0.2-0.1-1.3,0.2-1.8,0.3c-0.9,0.3-1.9,0.6-3,0.5c-1-0.1-2-0.5-2.9-0.9c-0.5-0.2-1.5-0.7-1.7-0.6
			c-0.2,0.1-0.7,0.9-1,1.4c-0.5,0.8-1,1.8-1.8,2.5c-0.8,0.7-1.9,1.1-2.8,1.4C23.4,29.2,22.6,29.5,22.3,29.7z"/>
	</g>
	<path class="st5" d="M33,57.1c0.1,2.5-1.2,4.6-2.9,4.7c-1.6,0-3-2-3.1-4.5c-0.1-2.5,2.8-9.4,2.8-9.4S33,54.6,33,57.1z"/>
</g>
</svg>
