<?xml version="1.0" encoding="utf-8"?>
<!-- Generator: Adobe Illustrator 22.1.0, SVG Export Plug-In . SVG Version: 6.00 Build 0)  -->
<svg version="1.1" id="Layer_1" xmlns="http://www.w3.org/2000/svg" xmlns:xlink="http://www.w3.org/1999/xlink" x="0px" y="0px"
	 viewBox="0 0 66.4 66.4" style="enable-background:new 0 0 66.4 66.4;" xml:space="preserve">
<style type="text/css">
	.st0{fill:#DEFCF2;}
	.st1{fill:#DFAE57;}
	.st2{fill:#EFC7B0;}
	.st3{fill:#CEA28B;stroke:#CEA28B;stroke-width:0.6253;stroke-linecap:round;stroke-linejoin:round;stroke-miterlimit:10;}
	.st4{fill:#838BC5;}
	.st5{fill:#42210B;}
	.st6{fill:#CEA28B;}
	.st7{fill:#67D3F4;}
	.st8{fill:#CA6B4F;}
	.st9{fill:#A54122;}
	.st10{fill:#C3996B;}
	.st11{opacity:0.7;fill:#42210B;}
	.st12{fill:#A87C4F;stroke:#A87C4F;stroke-width:0.5;stroke-linecap:round;stroke-miterlimit:10;}
	.st13{fill:#231F20;}
	.st14{opacity:0.7;}
	.st15{fill:#C65739;}
	.st16{fill:#A87C4F;}
	.st17{fill:#00A69C;}
	.st18{fill:#009C93;}
	.st19{fill:#D64541;}
</style>
<title>icon-bell</title>
<g>
	<circle class="st0" cx="33.2" cy="33.2" r="33.2"/>
	<g>
		<g>
			<path class="st1" d="M5.5,34.4v-2.6c0-10.1,7.3-18.4,16.1-18.4h1.9c8.9,0,16.1,8.3,16.1,18.4v2.6c0,9,2.1,16.5-4.6,17.7
				c0,0,0.3-1.6,0.1-2.7c-0.1-0.6-0.8-0.6-1,0c-0.2,1.1-0.7,2.8-1.8,2.8H11.5c-0.7,0-1.6-0.1-2.2-1c-1.1-1.8-0.6-4.2-1.7-4
				c0,0-0.4,1,0,3.9C4,48,5.5,42.1,5.5,34.4z"/>
		</g>
		<g>
			<path class="st2" d="M36.7,32.9C36.6,32.9,36.6,32.9,36.7,32.9c0-0.4,0-0.9,0-1.4c0-9.3-6.3-15.3-14.1-15.3
				c-7.8,0-14.2,5.9-14.2,15.3c0,0.5,0,0.9,0,1.4c-2.8,0.1-2.8,4.5,0.1,4.5c0.3,0,0.5,0,0.7-0.1c1.4,4.7,4.6,8.4,8.5,10.1
				c0.3,0.1,2.5,1,4.8,1c2.3,0,4.6-0.9,4.9-1c3.9-1.7,7.1-5.4,8.5-10.1c0.3,0.1,0.5,0.2,0.9,0.2C39.6,37.5,39.6,32.9,36.7,32.9z"/>
			<path class="st3" d="M36.4,36c0.4,0.1,0.8-0.2,0.9-0.7c0.1-0.4-0.2-0.8-0.7-0.9"/>
			<path class="st3" d="M8.6,36c-0.4,0.1-0.8-0.2-0.9-0.7c-0.1-0.4,0.2-0.8,0.7-0.9"/>
		</g>
		<g>
			<path class="st1" d="M37.9,27.8c-0.3-1.2-0.8-2.3-1.3-3.1c-0.2-0.2-0.3-0.5-0.3-0.9c-0.1-1.9-1.7-3.8-4-4.6
				c-0.3-0.1-0.6-0.2-0.9-0.2c-0.6-0.1-1.2-0.7-1.2-1.4c0-0.3-0.1-0.5-0.1-0.8c-0.1-0.4-0.3-0.7-0.5-1.1c-2.2-3.1-9.5-3.4-13.7-1.8
				c-4.7,1.8-10.5,7.7-9.4,11.7C6.9,27,8,28,9.5,28.6c3,1.2,7.4,1.1,10.6-0.1c1.8-0.7,3.8-1.9,5.6-3.5c0.6-0.5,1.4-0.5,1.9,0.1
				c0.7,0.8,1.7,1.4,2.8,1.8c0.7,0.2,1.4,0.4,2.1,0.3c0.7,0,1.3,0.5,1.5,1.3c0,0.1,0.1,0.3,0.1,0.4c0.6,2.7,2,4.6,3.1,4.2
				C38.2,32.9,38.6,30.5,37.9,27.8z"/>
		</g>
		<path class="st4" d="M37.9,30.5c0,0.3-0.4,0.4-0.5,0.1c-0.5-1.3-1-2.5-1.6-3.7c-0.8-1.5-1.6-2.9-2.6-4.2c-1-1.3-2-2.5-3.2-3.7
			c-0.9-0.9-1.9-1.7-2.9-2.5C26.9,16.4,27,16,27.3,16c1.3,0.2,2.6,0.8,3.7,1.5c1.5,0.9,2.8,2.2,3.8,3.7c1.1,1.5,1.9,3.1,2.5,4.9
			C37.7,27.5,37.9,29,37.9,30.5z"/>
		<g>
			<circle class="st5" cx="16.2" cy="33" r="1.6"/>
			<circle class="st5" cx="29" cy="33" r="1.6"/>
			<path class="st6" d="M22.6,37.9L22.6,37.9c-0.6,0-1.2-0.1-1.2-0.4l0.1-0.6c0-0.3,0.5-1,1.1-1h0c0.6,0,1.1,0.7,1.1,1l0.1,0.6
				C23.8,37.8,23.2,37.9,22.6,37.9z"/>
			<g>
				<path class="st1" d="M14.2,29c-0.1,0-0.2,0-0.3-0.1c-0.1-0.2-0.1-0.4,0-0.5c0.7-0.7,1.8-0.9,2.7-0.7c0.2,0.1,0.3,0.3,0.3,0.5
					c-0.1,0.2-0.3,0.3-0.5,0.3c-0.7-0.2-1.5,0-2,0.5C14.4,28.9,14.3,29,14.2,29z"/>
			</g>
			<path class="st1" d="M30.9,29c0.1,0,0.2,0,0.3-0.1c0.1-0.2,0.1-0.4,0-0.5c-0.7-0.7-1.8-0.9-2.7-0.7c-0.2,0.1-0.3,0.3-0.3,0.5
				c0.1,0.2,0.3,0.3,0.5,0.3c0.7-0.2,1.5,0,2,0.5C30.8,29,30.9,29,30.9,29z"/>
			<g>
				<g>
					<g>
						<path class="st7" d="M21.3,45.8v3.3c0,1-0.8,1.8-1.8,1.8c-0.8,0-1.5-0.7-1.5-1.5c0-0.7,0.6-1.3,1.3-1.3c0.2,0,0.4,0.2,0.4,0.4
							c0,0.2-0.2,0.4-0.4,0.4c-0.3,0-0.6,0.3-0.6,0.6c0,0.4,0.4,0.8,0.8,0.8c0.6,0,1.1-0.5,1.1-1.1v-3.3c0-0.2,0.2-0.4,0.4-0.4
							C21.2,45.5,21.3,45.6,21.3,45.8z"/>
					</g>
					<g>
						<path class="st7" d="M27.1,52c0,0.8-0.7,1.5-1.5,1.5c-1,0-1.8-0.8-1.8-1.8v-5.6c0-0.2,0.2-0.4,0.4-0.4c0.2,0,0.4,0.2,0.4,0.4
							v5.6c0,0.6,0.5,1.1,1.1,1.1c0.4,0,0.8-0.4,0.8-0.8c0-0.3-0.3-0.6-0.6-0.6c-0.2,0-0.4-0.2-0.4-0.4c0-0.2,0.2-0.4,0.4-0.4
							C26.5,50.7,27.1,51.3,27.1,52z"/>
					</g>
					<g>
						<path class="st7" d="M22.9,45v7.4c0,1-0.8,1.8-1.8,1.8c-0.8,0-1.5-0.7-1.5-1.5c0-0.7,0.6-1.3,1.3-1.3c0.2,0,0.4,0.2,0.4,0.4
							c0,0.2-0.2,0.4-0.4,0.4c-0.3,0-0.6,0.3-0.6,0.6c0,0.4,0.4,0.8,0.8,0.8c0.6,0,1.1-0.5,1.1-1.1V45c0-0.2,0.2-0.4,0.4-0.4
							C22.8,44.6,22.9,44.8,22.9,45z"/>
					</g>
				</g>
				<g>
					<path class="st8" d="M25.6,43.5c0.2-0.4,0.1-0.8-0.2-1.1c-0.2-0.2-0.5-0.4-0.7-0.5c-1-0.5-2.3-0.6-3.3-0.3
						c-0.3,0.1-0.6,0.2-0.8,0.3c-0.3,0.1-0.5,0.3-0.7,0.4c-0.3,0.3-0.4,0.8-0.2,1.2c0.6-0.5,1.8-0.8,3.1-0.8
						C24,42.7,25.1,43,25.6,43.5z"/>
					<path class="st9" d="M21,43.6c0.5-0.5,2.3-0.7,3.2,0.1c0.4,0.3,0.9,0.3,1.3,0c0.1-0.1,0.1-0.1,0.1-0.2
						c-0.5-0.5-1.5-0.8-2.8-0.8c-1.3,0-2.5,0.3-3.1,0.8c0,0,0,0.1,0.1,0.1C20,43.9,20.6,44,21,43.6z"/>
				</g>
			</g>
		</g>
	</g>
	<g>
		<g>
			<path class="st10" d="M62.5,38.7c0-0.4,0-0.8,0-1.3c0-8.7-6.7-14.3-14.9-14.3c-8.2,0-14.8,5.6-14.8,14.3c0,0.4,0,0.9,0,1.3
				c0,0,0,0-0.1,0c-3.1,0-3.1,4.3,0,4.3c0.3,0,0.6-0.1,0.9-0.2c1.1,3.3,3.3,6.2,6.4,8.2c2.3,1.5,4.8,2.3,7.6,2.3
				c3.9,0,7.5-1.7,10.2-4.4c1.7-1.7,3-3.8,3.8-6.1c0.2,0.1,0.5,0.1,0.7,0.1C65.4,42.9,65.4,38.8,62.5,38.7z"/>
			<path class="st11" d="M45.9,29c-0.3-0.6-0.4-1.2-0.3-1.9c0.1-0.6,0.5-1.3,1-1.7c1-0.9,2.8-0.8,3.7,0.3c0.5,0.5,0.6,1.3,0.4,2
				c-0.2,0.7-0.8,1.3-1.5,1.3c-0.7,0.1-1.5-0.3-1.8-0.9c-0.3-0.7,0-1.5,0.7-1.8c0.1,0,0.1,0,0.1,0.1c0,0.1,0,0.1-0.1,0.1
				c-0.5,0.3-0.7,0.9-0.4,1.4c0.2,0.4,0.8,0.7,1.3,0.6c0.5-0.1,0.9-0.5,1.1-1c0.2-0.5,0-1-0.3-1.4c-0.7-0.8-2.1-1-2.9-0.3
				c-0.9,0.7-1.3,2-0.8,3.1c0,0.1,0,0.1-0.1,0.1C45.9,29.1,45.9,29.1,45.9,29z"/>
			<path class="st12" d="M32.8,41.4c-0.3,0.1-0.7-0.2-0.7-0.5c-0.1-0.3,0.2-0.7,0.5-0.7"/>
			<g>
				<circle class="st13" cx="53.5" cy="39.4" r="1.7"/>
			</g>
			<g>
				<circle class="st13" cx="42.4" cy="39.4" r="1.7"/>
			</g>
			<g class="st14">
				<path class="st11" d="M40.8,35.2c-0.1,0-0.2,0-0.2-0.1c-0.1-0.1-0.1-0.4,0-0.5c0.6-0.6,1.6-0.8,2.5-0.6c0.2,0,0.3,0.2,0.2,0.4
					c0,0.2-0.2,0.3-0.4,0.2c-0.6-0.2-1.3,0-1.8,0.5C41,35.2,40.9,35.2,40.8,35.2z"/>
			</g>
			<g class="st14">
				<path class="st11" d="M55.1,35.2c0.1,0,0.2,0,0.2-0.1c0.1-0.1,0.1-0.4,0-0.5c-0.6-0.6-1.6-0.8-2.5-0.6c-0.2,0-0.3,0.2-0.2,0.4
					c0,0.2,0.2,0.3,0.4,0.2c0.6-0.2,1.3,0,1.8,0.5C55,35.2,55,35.2,55.1,35.2z"/>
			</g>
			<path class="st12" d="M62.4,41.4c0.3,0.1,0.7-0.2,0.7-0.5s-0.2-0.7-0.5-0.7"/>
		</g>
		<g>
			<path class="st15" d="M48.1,47.2c-0.6,0-1.2-0.2-1.8-0.5c-0.2-0.1-0.2-0.3-0.1-0.5c0.1-0.2,0.3-0.2,0.5-0.1c1,0.5,2,0.5,3,0
				c0.2-0.1,0.4,0,0.5,0.2c0.1,0.2,0,0.4-0.2,0.5C49.3,47,48.7,47.2,48.1,47.2z"/>
		</g>
		<path class="st16" d="M48.1,43.3L48.1,43.3c-0.5,0-1,0-1-0.2l0.1-0.6c0-0.2,0.4-0.3,0.9-0.3h0c0.5,0,0.9,0.1,0.9,0.3l0.1,0.6
			C49.1,43.3,48.6,43.3,48.1,43.3z"/>
		<g>
			<path class="st17" d="M54.4,48.1c0-1.8-1.4-3.4-3.2-3.4c-0.6,0-1.6,0.4-2.3,0.8c-0.6,0.3-1.4,0.3-2,0c-0.7-0.4-1.6-0.8-2.2-0.8
				c-1.8,0-3.3,1.4-3.3,3.3c0,0.8,0.2,1.6,0.8,2.2c0.5,0.4,1.1,0.7,1.7,1c1.5,0.6,3.2,0.7,4.8,0.7c1.5,0,3.1-0.3,4.4-1
				C53.8,50.1,54.4,49.1,54.4,48.1z"/>
			<circle class="st18" cx="47.8" cy="47.8" r="2.9"/>
		</g>
	</g>
	<g>
		<g>
			<path class="st19" d="M38.5,15.7l-0.2-5.6c0-1.1-0.1-1.9-0.1-2.4c0-0.7,0.2-1.2,0.5-1.5c0.3-0.4,0.8-0.5,1.4-0.5
				c0.7,0,1.1,0.3,1.3,0.7c0.2,0.5,0.3,1.1,0.3,2c0,0.5-0.1,1-0.1,1.6L41,15.8c-0.1,0.7-0.2,1.2-0.4,1.6c-0.2,0.4-0.5,0.5-0.9,0.5
				c-0.4,0-0.7-0.2-0.9-0.6C38.7,17,38.6,16.4,38.5,15.7z M39.7,23.5c-0.5,0-0.9-0.2-1.2-0.5c-0.3-0.3-0.5-0.8-0.5-1.3
				c0-0.5,0.2-0.9,0.5-1.2c0.3-0.3,0.8-0.5,1.3-0.5c0.5,0,0.9,0.2,1.3,0.5c0.3,0.3,0.5,0.8,0.5,1.3c0,0.5-0.2,1-0.6,1.3
				S40.1,23.5,39.7,23.5z"/>
		</g>
		<g>
			<path class="st19" d="M42.6,10.4c0.2-0.7,0.6-1.4,1.3-2c0.7-0.6,1.5-1,2.5-1.3c1-0.2,2.1-0.2,3.3,0.1c1.1,0.3,2,0.8,2.7,1.4
				c0.7,0.6,1.2,1.4,1.5,2.2c0.3,0.8,0.3,1.6,0.1,2.5c-0.2,0.6-0.5,1.2-0.9,1.6c-0.4,0.4-0.8,0.7-1.3,1c-0.5,0.3-1.3,0.7-2.4,1.2
				c-0.3,0.2-0.6,0.3-0.8,0.4c-0.2,0.1-0.4,0.3-0.5,0.4c-0.1,0.1-0.2,0.3-0.3,0.4c-0.1,0.1-0.2,0.4-0.4,0.7c-0.4,0.7-0.9,1-1.7,0.8
				c-0.4-0.1-0.7-0.3-0.9-0.7c-0.2-0.3-0.2-0.7-0.1-1.3c0.2-0.6,0.4-1.2,0.8-1.6c0.3-0.4,0.7-0.7,1.1-1c0.4-0.3,1-0.6,1.7-0.9
				c0.6-0.3,1-0.5,1.3-0.7c0.3-0.2,0.5-0.3,0.7-0.6c0.2-0.2,0.4-0.5,0.5-0.8c0.2-0.6,0.1-1.2-0.3-1.7c-0.3-0.5-0.9-0.9-1.6-1.1
				c-0.8-0.2-1.5-0.2-2,0.1c-0.5,0.3-1,0.8-1.5,1.6c-0.5,0.8-1.1,1.1-1.8,0.9c-0.4-0.1-0.7-0.4-0.9-0.7
				C42.6,11.1,42.5,10.7,42.6,10.4z M44.7,24.3c-0.5-0.1-0.8-0.4-1.1-0.8c-0.3-0.4-0.3-0.9-0.2-1.4c0.1-0.5,0.4-0.8,0.8-1.1
				c0.4-0.2,0.9-0.3,1.4-0.1c0.5,0.1,0.8,0.4,1.1,0.8c0.2,0.4,0.3,0.9,0.2,1.3c-0.1,0.5-0.4,0.9-0.9,1.1
				C45.6,24.4,45.1,24.5,44.7,24.3z"/>
		</g>
	</g>
</g>
</svg>
