<?xml version="1.0" encoding="utf-8"?>
<!-- Generator: Adobe Illustrator 22.1.0, SVG Export Plug-In . SVG Version: 6.00 Build 0)  -->
<svg version="1.1" id="Layer_1" xmlns="http://www.w3.org/2000/svg" xmlns:xlink="http://www.w3.org/1999/xlink" x="0px" y="0px"
	 viewBox="0 0 66.4 66.4" style="enable-background:new 0 0 66.4 66.4;" xml:space="preserve">
<style type="text/css">
	.st0{fill:#DEFCF2;}
	.st1{fill:#D64541;}
	.st2{fill:#FF9C99;}
</style>
<title>icon-bell</title>
<g>
	<circle class="st0" cx="33.2" cy="33.2" r="33.2"/>
	<g>
		<g>
			<circle class="st1" cx="40.1" cy="29.5" r="12.5"/>
			<g>
				<polygon class="st1" points="40.9,20.8 38.4,20.9 38.4,13.2 40,13.1 				"/>
				<circle class="st1" cx="39.2" cy="13.2" r="1.7"/>
			</g>
			<g>
				<polygon class="st1" points="47.3,37.3 48.8,35.6 53.9,40.7 52.9,41.8 				"/>
				<circle class="st1" cx="53.4" cy="41.2" r="1.6"/>
			</g>
			<g>
				<polygon class="st1" points="34.3,22.7 32.8,24.4 27.7,19.4 28.7,18.2 				"/>
				<circle class="st1" cx="28.2" cy="18.8" r="1.6"/>
			</g>
			<g>
				<polygon class="st1" points="38.7,37.6 41.7,37.4 41.8,46.9 39.7,47 				"/>
				<circle class="st1" cx="40.8" cy="46.9" r="2.1"/>
			</g>
			<g>
				<polygon class="st1" points="47.5,23.4 45.4,21.5 51.7,15 53.2,16.3 				"/>
				<circle class="st1" cx="52.5" cy="15.7" r="2"/>
			</g>
			<g>
				<polygon class="st1" points="32.3,36.5 33.8,37.8 29.3,42.4 28.3,41.5 				"/>
				<circle class="st1" cx="28.8" cy="41.9" r="1.4"/>
			</g>
			<g>
				<polygon class="st1" points="50,30.5 49.9,27.7 58.6,27.7 58.7,29.5 				"/>
				<circle class="st1" cx="58.6" cy="28.6" r="2"/>
			</g>
			<g>
				<polygon class="st1" points="33.2,28.3 33.4,31.4 23.7,31.4 23.6,29.4 				"/>
				<circle class="st1" cx="23.6" cy="30.4" r="2.2"/>
			</g>
			<g>
				
					<ellipse transform="matrix(0.9983 -5.777719e-02 5.777719e-02 0.9983 -1.2456 2.614)" class="st2" cx="44.6" cy="22.8" rx="3.1" ry="2"/>
				
					<ellipse transform="matrix(0.9983 -5.777719e-02 5.777719e-02 0.9983 -2.0209 2.6364)" class="st2" cx="44.6" cy="36.3" rx="2.3" ry="1.7"/>
				
					<ellipse transform="matrix(0.9983 -5.777719e-02 5.777719e-02 0.9983 -1.6705 2.0047)" class="st2" cx="33.8" cy="29.9" rx="2.8" ry="3.7"/>
			</g>
		</g>
		<g>
			<circle class="st1" cx="16.2" cy="44" r="7.4"/>
			<g>
				<polygon class="st1" points="21,42.2 20.3,41 24.5,39.1 24.9,39.9 				"/>
				<circle class="st1" cx="24.7" cy="39.5" r="1"/>
			</g>
			<g>
				<polygon class="st1" points="13.8,49.8 15,50.2 13.6,54.1 12.7,53.9 				"/>
				<circle class="st1" cx="13.2" cy="54" r="1"/>
			</g>
			<g>
				<polygon class="st1" points="18.4,39.2 17.1,38.8 18.5,34.9 19.4,35.1 				"/>
				<circle class="st1" cx="19" cy="35" r="1"/>
			</g>
			<g>
				<polygon class="st1" points="11.5,45.2 12.3,46.8 7.3,49.1 6.7,48.1 				"/>
				<circle class="st1" cx="7" cy="48.6" r="1.3"/>
			</g>
			<g>
				<polygon class="st1" points="21.3,46.4 21.8,44.8 26.8,46.6 26.4,47.7 				"/>
				<circle class="st1" cx="26.6" cy="47.2" r="1.2"/>
			</g>
			<g>
				<polygon class="st1" points="10.5,41.5 10.2,42.7 6.6,41.4 6.9,40.6 				"/>
				<circle class="st1" cx="6.7" cy="41" r="0.9"/>
			</g>
			<g>
				<polygon class="st1" points="18.1,49.5 19.5,48.8 21.7,53.4 20.7,53.9 				"/>
				<circle class="st1" cx="21.2" cy="53.7" r="1.2"/>
			</g>
			<g>
				<polygon class="st1" points="15.1,40 13.5,40.8 11.1,35.7 12.2,35.1 				"/>
				<circle class="st1" cx="11.6" cy="35.4" r="1.3"/>
			</g>
			<g>
				
					<ellipse transform="matrix(0.8828 -0.4697 0.4697 0.8828 -18.5776 15.0272)" class="st2" cx="20.8" cy="44.7" rx="1.2" ry="1.8"/>
				<ellipse transform="matrix(0.8828 -0.4697 0.4697 0.8828 -20.9689 12.0434)" class="st2" cx="13.7" cy="48" rx="1" ry="1.4"/>
				
					<ellipse transform="matrix(0.8828 -0.4697 0.4697 0.8828 -17.4427 11.5455)" class="st2" cx="14.4" cy="40.7" rx="2.2" ry="1.7"/>
			</g>
		</g>
	</g>
</g>
</svg>
