<?xml version="1.0" encoding="utf-8"?>
<!-- Generator: Adobe Illustrator 22.1.0, SVG Export Plug-In . SVG Version: 6.00 Build 0)  -->
<svg version="1.1" id="Layer_1" xmlns="http://www.w3.org/2000/svg" xmlns:xlink="http://www.w3.org/1999/xlink" x="0px" y="0px"
	 viewBox="0 0 66.4 66.4" style="enable-background:new 0 0 66.4 66.4;" xml:space="preserve">
<style type="text/css">
	.st0{fill:#DEFCF2;}
	.st1{clip-path:url(#SVGID_2_);}
	.st2{fill:#C3996B;}
	.st3{fill:#C8C3BD;}
	.st4{fill:#A3A3A3;}
	.st5{opacity:0.8;fill-rule:evenodd;clip-rule:evenodd;fill:#67D3F4;}
</style>
<title>icon-bell</title>
<g>
	<circle class="st0" cx="33.2" cy="33.2" r="33.2"/>
	<g>
		<defs>
			<circle id="SVGID_1_" cx="33.2" cy="33.2" r="33.2"/>
		</defs>
		<clipPath id="SVGID_2_">
			<use xlink:href="#SVGID_1_"  style="overflow:visible;"/>
		</clipPath>
		<g class="st1">
			<path class="st2" d="M26.6,48.7c-0.9-0.9-6,4-8.2,4c1-1,3.3-2.6,2.2-3.5c-1.5-1.2-11.7,2.1-11.7,2.1v0l-22.2,0v7.6L8.9,59
				c0,0,13.1,2.8,16,0C26.2,57.6,27.9,50.1,26.6,48.7z"/>
			<path class="st2" d="M28.2,38.5c-2-3.4-15.5-3.9-15.5-3.9l-21.5-5.4l-1.9,7.4l21.5,5.4l0,0c0,0,9.1,5.7,10.9,4.9
				c1.3-0.6-0.6-2.7-1.3-3.9c2.1,0.5,5.9,6.5,6.9,5.8C29,47.9,29.1,40.1,28.2,38.5z"/>
			<g>
				<g>
					<path class="st3" d="M48,23.1v5.7l-21.4-8.1c-3.2,0-5.7,2.6-5.7,5.7v2.3h5.7v-2.6L48,41.4v2.1h11.9V23.1H48z"/>
					<path class="st4" d="M47.1,17.6h13.6v5.5c0,0.7-0.5,1.2-1.2,1.2H48.3c-0.7,0-1.2-0.5-1.2-1.2V17.6z"/>
					<path class="st3" d="M29.3,8.7L29.3,8.7c0.3-1.9,2-3,3.6-2.4L41,9.4l19.7,8.3H49c-0.1,0-3.5,0-1.9,0l-17.3-8
						C29.4,9.5,29.2,9.1,29.3,8.7z"/>
				</g>
				<g>
					<path class="st5" d="M27.8,45.7c0,1.6-0.8,2.8-1.8,2.9s-1.8-1.2-1.9-2.8c0-1.6,1.7-5.8,1.7-5.8S27.7,44.1,27.8,45.7z"/>
					<path class="st5" d="M26,36.2c0,1.7-0.8,3.2-2,3.2s-2.1-1.4-2.1-3.1c0-1.7,1.9-6.5,1.9-6.5S25.9,34.4,26,36.2z"/>
					<path class="st5" d="M25.8,60.4c0,1.6-0.8,2.9-1.8,2.9s-1.9-1.2-1.9-2.8c0-1.6,1.7-5.8,1.7-5.8S25.8,58.8,25.8,60.4z"/>
					<path class="st5" d="M23.9,50.8c0,1.8-0.9,3.2-2,3.2s-2.1-1.4-2.1-3.1c0-1.8,1.9-6.5,1.9-6.5S23.8,49.1,23.9,50.8z"/>
				</g>
			</g>
		</g>
	</g>
</g>
</svg>
