<?xml version="1.0" encoding="utf-8"?>
<!-- Generator: Adobe Illustrator 22.1.0, SVG Export Plug-In . SVG Version: 6.00 Build 0)  -->
<svg version="1.1" id="Layer_1" xmlns="http://www.w3.org/2000/svg" xmlns:xlink="http://www.w3.org/1999/xlink" x="0px" y="0px"
	 viewBox="0 0 66.4 66.4" style="enable-background:new 0 0 66.4 66.4;" xml:space="preserve">
<style type="text/css">
	.st0{fill:#DEFCF2;}
	.st1{fill:#C3996B;}
	.st2{opacity:0.7;fill:#42210B;}
	.st3{fill:#A87C4F;stroke:#A87C4F;stroke-width:0.5;stroke-linecap:round;stroke-miterlimit:10;}
	.st4{fill:#231F20;}
	.st5{opacity:0.7;}
	.st6{fill:#595959;}
	.st7{fill:#C9C9C9;}
	.st8{fill:#669FAF;}
	.st9{fill:#89CCE0;}
	.st10{fill:#E86771;}
	.st11{fill:#C65739;}
	.st12{fill:#A87C4F;}
</style>
<title>icon-bell</title>
<g>
	<circle class="st0" cx="33.2" cy="33.2" r="33.2"/>
	<path class="st1" d="M54.7,33.9c0-0.6,0.1-1.2,0.1-1.8c0-12.6-9.7-20.7-21.6-20.7c-11.9,0-21.4,8-21.4,20.7c0,0.6,0,1.2,0.1,1.8
		c0,0-0.1,0-0.1,0c-4.4,0-4.4,6.2,0,6.2c0.5,0,0.9-0.1,1.3-0.2c1.6,4.7,4.8,9,9.2,11.8c3.3,2.1,7,3.4,11,3.4
		c5.6,0,10.9-2.5,14.7-6.3c2.5-2.5,4.3-5.5,5.5-8.8c0.3,0.1,0.7,0.2,1.1,0.2C58.9,40,59,34.1,54.7,33.9z"/>
	<path class="st2" d="M30.7,20c-0.4-0.8-0.6-1.8-0.4-2.7c0.2-0.9,0.7-1.8,1.4-2.5c1.5-1.3,4-1.2,5.4,0.4c0.7,0.8,0.9,1.9,0.6,2.9
		c-0.3,1-1.1,1.8-2.2,1.9c-1,0.1-2.1-0.4-2.6-1.3c-0.5-1,0-2.2,1-2.5c0.1,0,0.2,0,0.2,0.1c0,0.1,0,0.2-0.1,0.2c-0.7,0.4-1,1.3-0.6,2
		c0.4,0.6,1.2,1,1.9,0.9c0.7-0.1,1.3-0.7,1.5-1.4c0.2-0.7,0-1.5-0.5-2.1c-1-1.2-3-1.4-4.2-0.4c-1.3,1-1.8,2.9-1.2,4.5
		c0,0.1,0,0.2-0.1,0.2C30.8,20.1,30.7,20,30.7,20z"/>
	<path class="st3" d="M11.8,37.9c-0.5,0.1-0.9-0.3-1-0.8s0.3-0.9,0.8-1"/>
	<g>
		<path class="st4" d="M44.1,35c0,1.3-1.1,1.7-2.4,1.7c-1.3,0-2.4-0.4-2.4-1.7c0-1.3,1.1-2.5,2.4-2.5C43.1,32.5,44.1,33.7,44.1,35z"
			/>
	</g>
	<g>
		<path class="st4" d="M28.1,35c0,1.3-1.1,1.7-2.4,1.7c-1.3,0-2.4-0.4-2.4-1.7c0-1.3,1.1-2.5,2.4-2.5C27.1,32.5,28.1,33.7,28.1,35z"
			/>
	</g>
	<g class="st5">
		<path class="st2" d="M44.8,29.3c0.1,0,0.3,0,0.4-0.1c0.2-0.1,0.3-0.4,0.1-0.7c-0.7-1.1-1.9-1.7-3.2-1.7c-0.3,0-0.5,0.2-0.5,0.5
			c0,0.3,0.2,0.5,0.5,0.5c0.9,0,1.9,0.5,2.4,1.3C44.6,29.2,44.7,29.2,44.8,29.3z"/>
	</g>
	<g class="st5">
		<path class="st2" d="M23.5,29.3c-0.1,0-0.3,0-0.4-0.1c-0.2-0.1-0.3-0.4-0.1-0.7c0.7-1.1,1.9-1.7,3.2-1.7c0.3,0,0.5,0.2,0.5,0.5
			c0,0.3-0.2,0.5-0.5,0.5c-0.9,0-1.9,0.5-2.4,1.3C23.7,29.2,23.6,29.2,23.5,29.3z"/>
	</g>
	<path class="st3" d="M54.7,37.9c0.5,0.1,0.9-0.3,1-0.8s-0.3-0.9-0.8-1"/>
	<g>
		<path class="st6" d="M32.4,46.8C32.4,46.8,32.5,46.8,32.4,46.8c0.2,0.3,0.6,0.4,0.9,0.2c0.4-0.2,0.8-0.5,1.2-0.7
			c0.1,0,0.1-0.1,0.1-0.1c0-0.1,0-0.1,0-0.2l-0.4-0.7c0,0-0.1-0.1-0.1-0.1c0,0,0,0,0,0c-0.1,0-0.1,0-0.2,0c-0.4,0.2-0.8,0.5-1.2,0.7
			C32.4,46.1,32.3,46.5,32.4,46.8z"/>
		<g>
			<path class="st7" d="M33.8,45.5l0.4,0.7c0.1,0.1,0.2,0.1,0.3,0.1c3.7-2,6.7-2.9,8-3.3c0.4-0.1,0.6-0.2,0.6-0.2l9.4-5.7
				c0.1-0.1,0.1-0.2,0.1-0.3l-2-3.2c0,0-0.1-0.1-0.1-0.1c-0.1,0-0.1,0-0.2,0L41,39.2c-0.1,0-0.2,0.2-0.5,0.5c-0.9,1-3.2,3.3-6.7,5.6
				C33.8,45.3,33.7,45.4,33.8,45.5z"/>
			<path class="st8" d="M50.4,33.8l2,3.2c0.1,0.1,0.2,0.1,0.3,0.1l1-0.6c0.5-0.3,0.8-0.8,1-1.3c0.1-0.5,0-1.1-0.2-1.6
				c-0.3-0.5-0.8-0.8-1.3-1c-0.5-0.1-1.1-0.1-1.6,0.2l-1,0.6C50.3,33.5,50.3,33.7,50.4,33.8z"/>
			<path class="st9" d="M43.5,39.3l0.8,1.3c0.1,0.1,0.2,0.1,0.3,0.1l3.1-1.9c0.1-0.1,0.1-0.2,0.1-0.3L47,37.2c0,0-0.1-0.1-0.1-0.1
				c-0.1,0-0.1,0-0.2,0L43.5,39C43.4,39,43.4,39.2,43.5,39.3z"/>
			<path class="st10" d="M48.3,37.2c0.3,0.4,0.9,0.6,1.3,0.3c0.2-0.1,0.4-0.3,0.4-0.6c0.1-0.2,0-0.5-0.1-0.7
				c-0.1-0.2-0.3-0.4-0.6-0.4c-0.2-0.1-0.5,0-0.7,0.1c-0.2,0.1-0.4,0.3-0.4,0.6C48.1,36.8,48.2,37,48.3,37.2z"/>
		</g>
	</g>
	<rect x="26.5" y="45.5" class="st1" width="14.7" height="3.9"/>
	<g>
		<path class="st11" d="M33.9,44.5c1,0,2,0.3,3,0.8c0.3,0.2,0.4,0.5,0.2,0.8c-0.2,0.3-0.5,0.4-0.8,0.2c-1.6-0.9-3.2-0.9-5,0
			c-0.3,0.1-0.6,0-0.8-0.3c-0.1-0.3,0-0.6,0.3-0.8C31.9,44.8,32.9,44.5,33.9,44.5z"/>
	</g>
	<path class="st12" d="M33.9,40.6L33.9,40.6c-0.7,0-1.5-0.1-1.5-0.3l0.1-0.9c0-0.2,0.6-0.4,1.4-0.4h0c0.7,0,1.4,0.2,1.4,0.4l0.1,0.9
		C35.4,40.5,34.6,40.6,33.9,40.6z"/>
</g>
</svg>
