<?xml version="1.0" encoding="utf-8"?>
<!-- Generator: Adobe Illustrator 22.1.0, SVG Export Plug-In . SVG Version: 6.00 Build 0)  -->
<svg version="1.1" id="Layer_1" xmlns="http://www.w3.org/2000/svg" xmlns:xlink="http://www.w3.org/1999/xlink" x="0px" y="0px"
	 viewBox="0 0 66.4 66.4" style="enable-background:new 0 0 66.4 66.4;" xml:space="preserve">
<style type="text/css">
	.st0{fill:#DEFCF2;}
	.st1{fill:#FFFFFF;}
	.st2{fill:#58BF9D;}
	.st3{fill:#1D946D;}
	.st4{fill:#C1272D;}
</style>
<title>icon-bell</title>
<g>
	<circle class="st0" cx="33.2" cy="33.2" r="33.2"/>
	<g>
		<rect x="11.2" y="17.9" class="st1" width="43.9" height="34.2"/>
		<rect x="15" y="27.9" class="st2" width="4.7" height="4.7"/>
		<rect x="22.9" y="27.9" class="st2" width="4.7" height="4.7"/>
		<rect x="9.6" y="13" class="st3" width="47.2" height="4.9"/>
		<g>
			<path class="st3" d="M56.8,53.1H9.6c-0.6,0-1-0.4-1-1s0.4-1,1-1h47.2c0.6,0,1,0.4,1,1S57.3,53.1,56.8,53.1z"/>
		</g>
		<path class="st4" d="M34.1,30.3l1.2-1.2c0.3-0.3,0.3-0.7,0-0.9c-0.3-0.3-0.7-0.3-0.9,0l-1.2,1.2L32,28.1c-0.3-0.3-0.7-0.3-0.9,0
			c-0.3,0.3-0.3,0.7,0,0.9l1.2,1.2L31,31.5c-0.3,0.3-0.3,0.7,0,0.9c0.1,0.1,0.3,0.2,0.5,0.2s0.3-0.1,0.5-0.2l1.2-1.2l1.2,1.2
			c0.1,0.1,0.3,0.2,0.5,0.2c0.2,0,0.3-0.1,0.5-0.2c0.3-0.3,0.3-0.7,0-0.9L34.1,30.3z"/>
		<path class="st4" d="M42,30.3l1.2-1.2c0.3-0.3,0.3-0.7,0-0.9c-0.3-0.3-0.7-0.3-0.9,0l-1.2,1.2l-1.2-1.2c-0.3-0.3-0.7-0.3-0.9,0
			c-0.3,0.3-0.3,0.7,0,0.9l1.2,1.2L39,31.5c-0.3,0.3-0.3,0.7,0,0.9c0.1,0.1,0.3,0.2,0.5,0.2c0.2,0,0.3-0.1,0.5-0.2l1.2-1.2l1.2,1.2
			c0.1,0.1,0.3,0.2,0.5,0.2c0.2,0,0.3-0.1,0.5-0.2c0.3-0.3,0.3-0.7,0-0.9L42,30.3z"/>
		<path class="st4" d="M50,30.3l1.2-1.2c0.3-0.3,0.3-0.7,0-0.9c-0.3-0.3-0.7-0.3-0.9,0L49,29.3l-1.2-1.2c-0.3-0.3-0.7-0.3-0.9,0
			c-0.3,0.3-0.3,0.7,0,0.9l1.2,1.2l-1.2,1.2c-0.3,0.3-0.3,0.7,0,0.9c0.1,0.1,0.3,0.2,0.5,0.2c0.2,0,0.3-0.1,0.5-0.2l1.2-1.2l1.2,1.2
			c0.1,0.1,0.3,0.2,0.5,0.2c0.2,0,0.3-0.1,0.5-0.2c0.3-0.3,0.3-0.7,0-0.9L50,30.3z"/>
		<path class="st4" d="M18.3,38.2l1.2-1.2c0.3-0.3,0.3-0.7,0-0.9c-0.3-0.3-0.7-0.3-0.9,0l-1.2,1.2L16.2,36c-0.3-0.3-0.7-0.3-0.9,0
			c-0.3,0.3-0.3,0.7,0,0.9l1.2,1.2l-1.2,1.2c-0.3,0.3-0.3,0.7,0,0.9c0.1,0.1,0.3,0.2,0.5,0.2s0.3-0.1,0.5-0.2l1.2-1.2l1.2,1.2
			c0.1,0.1,0.3,0.2,0.5,0.2s0.3-0.1,0.5-0.2c0.3-0.3,0.3-0.7,0-0.9L18.3,38.2z"/>
		<rect x="15" y="20" class="st2" width="4.7" height="4.7"/>
		<rect x="22.9" y="20" class="st2" width="4.7" height="4.7"/>
		<rect x="30.8" y="20" class="st2" width="4.7" height="4.7"/>
		<rect x="38.8" y="20" class="st2" width="4.7" height="4.7"/>
		<rect x="46.7" y="20" class="st2" width="4.7" height="4.7"/>
		<rect x="15" y="43.8" class="st2" width="4.7" height="4.7"/>
		<rect x="22.9" y="43.8" class="st2" width="4.7" height="4.7"/>
		<rect x="30.8" y="43.8" class="st2" width="4.7" height="4.7"/>
		<rect x="38.8" y="43.8" class="st2" width="4.7" height="4.7"/>
		<rect x="46.7" y="43.8" class="st2" width="4.7" height="4.7"/>
		<rect x="30.8" y="35.8" class="st2" width="4.7" height="4.7"/>
		<rect x="38.8" y="35.8" class="st2" width="4.7" height="4.7"/>
		<rect x="46.7" y="35.8" class="st2" width="4.7" height="4.7"/>
		<path class="st4" d="M26.2,38.2l1.2-1.2c0.3-0.3,0.3-0.7,0-0.9c-0.3-0.3-0.7-0.3-0.9,0l-1.2,1.2L24.1,36c-0.3-0.3-0.7-0.3-0.9,0
			c-0.3,0.3-0.3,0.7,0,0.9l1.2,1.2l-1.2,1.2c-0.3,0.3-0.3,0.7,0,0.9c0.1,0.1,0.3,0.2,0.5,0.2s0.3-0.1,0.5-0.2l1.2-1.2l1.2,1.2
			c0.1,0.1,0.3,0.2,0.5,0.2s0.3-0.1,0.5-0.2c0.3-0.3,0.3-0.7,0-0.9L26.2,38.2z"/>
	</g>
	<g>
		<path class="st3" d="M33.7,11c0.6,0,1,0.4,1,1v3c0,0.6-0.4,1-1,1s-1-0.4-1-1v-3C32.7,11.4,33.1,11,33.7,11z"/>
	</g>
	<g>
		<path class="st3" d="M33.7,7.5c1.2,0,2.3,1,2.3,2.3s-1,2.3-2.3,2.3s-2.3-1-2.3-2.3S32.4,7.5,33.7,7.5z M33.7,10.8
			c0.6,0,1.1-0.5,1.1-1.1c0-0.6-0.5-1.1-1.1-1.1s-1.1,0.5-1.1,1.1C32.5,10.3,33,10.8,33.7,10.8z"/>
	</g>
</g>
</svg>
