<?xml version="1.0" encoding="utf-8"?>
<!-- Generator: Adobe Illustrator 22.1.0, SVG Export Plug-In . SVG Version: 6.00 Build 0)  -->
<svg version="1.1" id="Layer_1" xmlns="http://www.w3.org/2000/svg" xmlns:xlink="http://www.w3.org/1999/xlink" x="0px" y="0px"
	 viewBox="0 0 66.4 66.4" style="enable-background:new 0 0 66.4 66.4;" xml:space="preserve">
<style type="text/css">
	.st0{fill:#DEFCF2;}
	.st1{fill:#DC7729;}
	.st2{fill:#77777F;}
	.st3{opacity:0.15;fill:#871212;}
	.st4{fill:#EAC4AC;}
	.st5{fill:#871212;}
	.st6{opacity:0.75;fill-rule:evenodd;clip-rule:evenodd;fill:#D64541;}
</style>
<title>icon-bell</title>
<g>
	<circle class="st0" cx="33.2" cy="33.2" r="33.2"/>
	<g>
		<rect x="5.9" y="32.7" class="st1" width="16.5" height="5.8"/>
		<path class="st2" d="M57.4,38.5h-4.3v-5.8h4.3c0.9,0,1.6,0.7,1.6,1.6v2.5C59.1,37.7,58.3,38.5,57.4,38.5z"/>
		<path class="st3" d="M57.4,38.5h-4.3v-5.8h4.3c0.9,0,1.6,0.7,1.6,1.6v2.5C59.1,37.7,58.3,38.5,57.4,38.5z"/>
		<rect x="22.4" y="32.7" class="st4" width="30.7" height="5.8"/>
		<path class="st2" d="M57.7,21.3c2.5,5.1,2.5,7.8-1.1,9.9c-0.7,0.4,2.2-2.1,0.1-6.9c-1.7-3.8-2.9-8.3,0.9-10
			C58.4,14,55.1,16,57.7,21.3z"/>
		<circle class="st5" cx="59.1" cy="38.8" r="0.3"/>
		<circle class="st5" cx="59.3" cy="41.3" r="0.3"/>
		<circle class="st5" cx="58" cy="40.1" r="0.3"/>
		<circle class="st5" cx="58.2" cy="41.9" r="0.3"/>
		<circle class="st5" cx="58.4" cy="44.4" r="0.3"/>
		<circle class="st5" cx="57.1" cy="43.2" r="0.3"/>
		<circle class="st5" cx="59.6" cy="44.8" r="0.3"/>
		<circle class="st5" cx="59.1" cy="43.2" r="0.3"/>
		<circle class="st5" cx="59.8" cy="47.3" r="0.3"/>
		<circle class="st5" cx="58.5" cy="46" r="0.3"/>
		<circle class="st5" cx="58.5" cy="48.6" r="0.3"/>
	</g>
	<path class="st6" d="M38.8,33.2l16.1,16.1c0.8,0.8,0.8,2,0,2.8l-2.8,2.8c-0.8,0.8-2,0.8-2.8,0L33.2,38.8L17.1,54.9
		c-0.8,0.8-2,0.8-2.8,0l-2.8-2.8c-0.8-0.8-0.8-2,0-2.8l16.1-16.1L11.5,17.1c-0.8-0.8-0.8-2,0-2.8l2.8-2.8c0.8-0.8,2-0.8,2.8,0
		l16.1,16.1l16.1-16.1c0.8-0.8,2-0.8,2.8,0l2.8,2.8c0.8,0.8,0.8,2,0,2.8L38.8,33.2z"/>
</g>
</svg>
