<svg id="Layer_1" data-name="Layer 1" xmlns="http://www.w3.org/2000/svg" viewBox="0 0 66.36 66.36"><defs><style>.cls-1{fill:#defcf2;}.cls-2{fill:#b7b3a9;}.cls-3{fill:#ffb624;}.cls-4{fill:#9e9a8d;}.cls-5{fill:#d64541;fill-rule:evenodd;opacity:0.75;}</style></defs><title>icon_no_appetite</title><circle class="cls-1" cx="33.18" cy="33.18" r="33.18"/><path class="cls-2" d="M44.28,52.11l-.21-.84a43.57,43.57,0,0,1,.14-20.09,2.69,2.69,0,0,0-2.6-3.39h-.84V25.28H25.68v2.51h-.75A2.7,2.7,0,0,0,22.29,31l.47,2.36a46.38,46.38,0,0,1,.09,15.68l-.61,3.21a2.69,2.69,0,0,0,2.65,3.19H41.67A2.69,2.69,0,0,0,44.28,52.11Z" transform="translate(0 0)"/><path class="cls-3" d="M33.23,18.57H39.1A3.21,3.21,0,0,0,37.35,16c-1.29-.81-1.84-3.25-1.29-4.67l0-.05a3.2,3.2,0,0,0-2.46-4.39l-.39,0-.39,0a3.2,3.2,0,0,0-2.47,4.39l0,.05c.56,1.42,0,3.86-1.28,4.67a3.21,3.21,0,0,0-1.75,2.6Z" transform="translate(0 0)"/><path class="cls-2" d="M26.67,18.57H39.78a1,1,0,0,1,1,1v2.37a0,0,0,0,1,0,0H25.68a0,0,0,0,1,0,0V19.56A1,1,0,0,1,26.67,18.57Z"/><path class="cls-4" d="M41.61,25.28H24.85a.85.85,0,0,1-.84-.91V22.84a.84.84,0,0,1,.84-.91H41.61a.85.85,0,0,1,.84.91v1.53A.86.86,0,0,1,41.61,25.28Z" transform="translate(0 0)"/><path class="cls-3" d="M43.57,34a7.42,7.42,0,0,1-10.29.09,7.5,7.5,0,0,0-10.36.1l0,0a46.67,46.67,0,0,1,0,14.83l-.61,3.21a2.69,2.69,0,0,0,2.65,3.19H41.67a2.69,2.69,0,0,0,2.61-3.34l-.21-.84A44.28,44.28,0,0,1,43.6,34Z" transform="translate(0 0)"/><path class="cls-5" d="M38.78,33.18,54.87,49.27a2,2,0,0,1,0,2.8l-2.8,2.8a2,2,0,0,1-2.8,0L33.18,38.78,17.09,54.87a2,2,0,0,1-2.8,0l-2.8-2.8a2,2,0,0,1,0-2.8L27.58,33.18,11.49,17.09a2,2,0,0,1,0-2.8l2.8-2.8a2,2,0,0,1,2.8,0L33.18,27.58,49.27,11.49a2,2,0,0,1,2.8,0l2.8,2.8a2,2,0,0,1,0,2.8Z" transform="translate(0 0)"/></svg>