<?xml version="1.0" encoding="utf-8"?>
<!-- Generator: Adobe Illustrator 22.1.0, SVG Export Plug-In . SVG Version: 6.00 Build 0)  -->
<svg version="1.1" id="Layer_1" xmlns="http://www.w3.org/2000/svg" xmlns:xlink="http://www.w3.org/1999/xlink" x="0px" y="0px"
	 viewBox="0 0 66.4 66.4" style="enable-background:new 0 0 66.4 66.4;" xml:space="preserve">
<style type="text/css">
	.st0{fill:#DEFCF2;}
	.st1{fill:#C3996B;}
	.st2{opacity:0.7;fill:#42210B;}
	.st3{fill:#A87C4F;stroke:#A87C4F;stroke-width:0.5;stroke-linecap:round;stroke-miterlimit:10;}
	.st4{fill:#231F20;}
	.st5{opacity:0.7;}
	.st6{fill:#A87C4F;}
	.st7{fill-rule:evenodd;clip-rule:evenodd;fill:#67D3F4;}
	.st8{fill:#67D3F4;}
	.st9{fill:#CA6B4F;}
	.st10{fill:#A54122;}
</style>
<title>icon-bell</title>
<g>
	<circle class="st0" cx="33.2" cy="33.2" r="33.2"/>
	<path class="st1" d="M54.7,33.9c0-0.6,0.1-1.2,0.1-1.8c0-12.6-9.7-20.7-21.6-20.7c-11.9,0-21.4,8-21.4,20.7c0,0.6,0,1.2,0.1,1.8
		c0,0-0.1,0-0.1,0c-4.4,0-4.4,6.2,0,6.2c0.5,0,0.9-0.1,1.3-0.2c1.6,4.7,4.8,9,9.2,11.8c3.3,2.1,7,3.4,11,3.4
		c5.6,0,10.9-2.5,14.7-6.3c2.5-2.5,4.3-5.5,5.5-8.8c0.3,0.1,0.7,0.2,1.1,0.2C58.9,40,59,34.1,54.7,33.9z"/>
	<path class="st2" d="M30.7,20c-0.4-0.8-0.6-1.8-0.4-2.7c0.2-0.9,0.7-1.8,1.4-2.5c1.5-1.3,4-1.2,5.4,0.4c0.7,0.8,0.9,1.9,0.6,2.9
		c-0.3,1-1.1,1.8-2.2,1.9c-1,0.1-2.1-0.4-2.6-1.3c-0.5-1,0-2.2,1-2.5c0.1,0,0.2,0,0.2,0.1c0,0.1,0,0.2-0.1,0.2c-0.7,0.4-1,1.3-0.6,2
		c0.4,0.6,1.2,1,1.9,0.9c0.7-0.1,1.3-0.7,1.5-1.4c0.2-0.7,0-1.5-0.5-2.1c-1-1.2-3-1.4-4.2-0.4c-1.3,1-1.8,2.9-1.2,4.5
		c0,0.1,0,0.2-0.1,0.2C30.8,20.1,30.7,20,30.7,20z"/>
	<path class="st3" d="M11.8,37.9c-0.5,0.1-0.9-0.3-1-0.8s0.3-0.9,0.8-1"/>
	<g>
		<path class="st4" d="M44.1,35c0,1.3-1.1,1.7-2.4,1.7c-1.3,0-2.4-0.4-2.4-1.7c0-1.3,1.1-2.5,2.4-2.5C43.1,32.5,44.1,33.7,44.1,35z"
			/>
	</g>
	<g>
		<path class="st4" d="M28.1,35c0,1.3-1.1,1.7-2.4,1.7c-1.3,0-2.4-0.4-2.4-1.7c0-1.3,1.1-2.5,2.4-2.5C27.1,32.5,28.1,33.7,28.1,35z"
			/>
	</g>
	<g class="st5">
		<path class="st2" d="M44.8,29.3c0.1,0,0.3,0,0.4-0.1c0.2-0.1,0.3-0.4,0.1-0.7c-0.7-1.1-1.9-1.7-3.2-1.7c-0.3,0-0.5,0.2-0.5,0.5
			c0,0.3,0.2,0.5,0.5,0.5c0.9,0,1.9,0.5,2.4,1.3C44.6,29.2,44.7,29.2,44.8,29.3z"/>
	</g>
	<g class="st5">
		<path class="st2" d="M23.5,29.3c-0.1,0-0.3,0-0.4-0.1c-0.2-0.1-0.3-0.4-0.1-0.7c0.7-1.1,1.9-1.7,3.2-1.7c0.3,0,0.5,0.2,0.5,0.5
			c0,0.3-0.2,0.5-0.5,0.5c-0.9,0-1.9,0.5-2.4,1.3C23.7,29.2,23.6,29.2,23.5,29.3z"/>
	</g>
	<path class="st3" d="M54.7,37.9c0.5,0.1,0.9-0.3,1-0.8s-0.3-0.9-0.8-1"/>
	<path class="st6" d="M33.9,40.6L33.9,40.6c-0.7,0-1.5-0.1-1.5-0.3l0.1-0.9c0-0.2,0.6-0.4,1.4-0.4h0c0.7,0,1.4,0.2,1.4,0.4l0.1,0.9
		C35.4,40.5,34.6,40.6,33.9,40.6z"/>
	<path class="st7" d="M48.3,25.6c0,0.7-0.3,1.3-0.8,1.3c-0.4,0-0.8-0.5-0.8-1.2c0-0.7,0.8-2.6,0.8-2.6S48.3,24.9,48.3,25.6z"/>
	<path class="st7" d="M45.7,23.5c0,0.8-0.4,1.4-0.9,1.4s-0.9-0.6-0.9-1.4c0-0.8,0.8-2.9,0.8-2.9S45.7,22.8,45.7,23.5z"/>
	<path class="st7" d="M48.3,21.3c0,0.7-0.3,1.3-0.8,1.3c-0.4,0-0.8-0.5-0.8-1.2c0-0.7,0.8-2.6,0.8-2.6S48.3,20.6,48.3,21.3z"/>
	<g>
		<g>
			<path class="st8" d="M32.2,49.4v4.1c0,1.2-1,2.2-2.2,2.2c-1,0-1.9-0.8-1.9-1.9c0-0.9,0.7-1.6,1.6-1.6c0.2,0,0.4,0.2,0.4,0.4
				s-0.2,0.4-0.4,0.4c-0.4,0-0.7,0.3-0.7,0.7c0,0.5,0.4,1,1,1c0.7,0,1.3-0.6,1.3-1.3v-4.1c0-0.2,0.2-0.4,0.4-0.4
				S32.2,49.1,32.2,49.4z"/>
		</g>
		<g>
			<path class="st8" d="M39.4,57c0,1-0.8,1.9-1.9,1.9c-1.2,0-2.2-1-2.2-2.2v-6.9c0-0.2,0.2-0.4,0.4-0.4s0.4,0.2,0.4,0.4v6.9
				c0,0.7,0.6,1.3,1.3,1.3c0.5,0,1-0.4,1-1c0-0.4-0.3-0.7-0.7-0.7c-0.2,0-0.4-0.2-0.4-0.4s0.2-0.4,0.4-0.4
				C38.7,55.4,39.4,56.1,39.4,57z"/>
		</g>
		<g>
			<path class="st8" d="M34.2,48.4v9.2c0,1.2-1,2.2-2.2,2.2c-1,0-1.9-0.8-1.9-1.9c0-0.9,0.7-1.6,1.6-1.6c0.2,0,0.4,0.2,0.4,0.4
				s-0.2,0.4-0.4,0.4c-0.4,0-0.7,0.3-0.7,0.7c0,0.5,0.4,1,1,1c0.7,0,1.3-0.6,1.3-1.3v-9.2c0-0.2,0.2-0.4,0.4-0.4
				S34.2,48.1,34.2,48.4z"/>
		</g>
	</g>
	<g>
		<path class="st9" d="M37.5,46.5c0.2-0.4,0.2-1-0.2-1.4c-0.3-0.3-0.6-0.5-0.9-0.6c-1.2-0.6-2.8-0.7-4.1-0.4c-0.4,0.1-0.7,0.2-1,0.3
			c-0.3,0.2-0.6,0.3-0.9,0.6c-0.4,0.4-0.5,1-0.2,1.5c0.8-0.6,2.2-1,3.9-1C35.6,45.5,36.9,45.9,37.5,46.5z"/>
		<path class="st10" d="M31.8,46.7c0.7-0.6,2.9-0.9,3.9,0.1c0.5,0.4,1.2,0.4,1.6-0.1c0.1-0.1,0.1-0.2,0.2-0.2c-0.6-0.6-1.9-1-3.5-1
			c-1.6,0-3.1,0.4-3.9,1c0,0,0.1,0.1,0.1,0.1C30.6,47,31.3,47.1,31.8,46.7z"/>
	</g>
</g>
</svg>
