<svg id="Layer_1" data-name="Layer 1" xmlns="http://www.w3.org/2000/svg" viewBox="0 0 66.36 66.36"><defs><style>.cls-1{fill:#defcf2;}.cls-2{fill:#67d3f4;}.cls-2,.cls-3{fill-rule:evenodd;}.cls-3{fill:#d64541;opacity:0.75;}</style></defs><title>icon_dehydrated</title><circle class="cls-1" cx="33.18" cy="33.18" r="33.18"/><path class="cls-2" d="M43.15,41c.18,8.53-4.14,15.54-9.64,15.66s-10.12-6.71-10.3-15.24,9.3-31.64,9.3-31.64S43,32.43,43.15,41Z" transform="translate(0 0)"/><path class="cls-3" d="M38.78,33.18,54.87,49.27a2,2,0,0,1,0,2.8l-2.8,2.8a2,2,0,0,1-2.8,0L33.18,38.78,17.09,54.87a2,2,0,0,1-2.8,0l-2.8-2.8a2,2,0,0,1,0-2.8L27.58,33.18,11.49,17.09a2,2,0,0,1,0-2.8l2.8-2.8a2,2,0,0,1,2.8,0L33.18,27.58,49.27,11.49a2,2,0,0,1,2.8,0l2.8,2.8a2,2,0,0,1,0,2.8Z" transform="translate(0 0)"/></svg>