<?xml version="1.0" encoding="utf-8"?>
<!-- Generator: Adobe Illustrator 22.1.0, SVG Export Plug-In . SVG Version: 6.00 Build 0)  -->
<svg version="1.1" id="Layer_1" xmlns="http://www.w3.org/2000/svg" xmlns:xlink="http://www.w3.org/1999/xlink" x="0px" y="0px"
	 viewBox="0 0 66.6 66.6" style="enable-background:new 0 0 66.6 66.6;" xml:space="preserve">
<style type="text/css">
	.st0{fill:#FFFFFF;}
	.st1{fill:#446D91;}
	.st2{fill:#153368;}
	.st3{fill:#BBCBD3;}
</style>
<title>btn-baby-blue</title>
<g>
	<g>
		<path class="st0" d="M66.6,15c0,12.4,0,24.9,0,37.3c-0.1,0.5-0.2,0.9-0.3,1.4C65.7,60,61.2,65,55,66.2c-1,0.2-1.9,0.4-2.9,0.5
			c-12.5,0-25.1,0-37.6,0c-0.4-0.1-0.7-0.2-1.1-0.3C6.7,65.9,1.8,61.4,0.5,54.8c-0.2-1-0.3-2.1-0.5-3.2C0,39.4,0,27.2,0,15
			c0.1-0.5,0.2-1,0.3-1.6c0.8-6,3.9-10.2,9.6-12.2c1.6-0.6,3.4-0.7,5.2-1c12.2,0,24.5,0,36.7,0c0.5,0.1,1,0.2,1.4,0.3
			c6.4,0.5,11.5,5,12.8,11.4C66.3,12.9,66.4,13.9,66.6,15z"/>
	</g>
</g>
<g>
	<g>
		<path class="st1" d="M54.1,40.4H12.3v0c0-11.2,9-20.2,20.2-20.2h2.3c10.6,0,19.2,8.7,19.2,19.2V40.4z"/>
		<path class="st2" d="M48.4,41.2H18.2c-2.4,0-4.4-2-4.4-4.4v0c0-2.4,2-4.4,4.4-4.4h30.2c2.4,0,4.4,2,4.4,4.4v0
			C52.8,39.2,50.8,41.2,48.4,41.2z"/>
		<path class="st1" d="M15,46.6h-2.4c-1,0-1.8-0.8-1.8-1.8v0c0-1,0.8-1.8,1.8-1.8H15c1,0,1.8,0.8,1.8,1.8v0
			C16.9,45.8,16,46.6,15,46.6z"/>
		<path class="st1" d="M53.7,46.7h-2.4c-1,0-1.8-0.8-1.8-1.8v0c0-1,0.8-1.8,1.8-1.8h2.4c1,0,1.8,0.8,1.8,1.8v0
			C55.6,45.9,54.7,46.7,53.7,46.7z"/>
		<path class="st1" d="M59.1,31.8c0-1.7-1.4-3.1-3.1-3.1c-1,0-1.9,0.5-2.4,1.2c-0.4,0.4-0.6,0.9-0.7,1.5c0,0.2,0,0.8,0,0.9v6.6H13.7
			v-6.6c0-0.1,0-0.3,0-0.4c0-1.7-1.4-3.1-3.1-3.1c-1.7,0-3.1,1.4-3.1,3.1c0,1.2,0.6,2.2,1.6,2.7l0,9.7c0,0.5,0.4,0.9,0.9,0.9h46.6
			c0.5,0,0.9-0.4,0.9-0.9l0-9.7C58.4,34,59.1,33,59.1,31.8z"/>
	</g>
	<g>
		<g>
			<path class="st0" d="M15.9,36.8c0-0.1-0.1-0.3-0.2-0.4c-0.3-0.4-0.7-1.4-1-2.5l0-0.1c-0.3-1.1-0.4-2-0.3-2.5c0-0.1,0-0.3-0.1-0.4
				l0.1,0c0.1,0,0.2,0,0.3-0.1c0.5-0.3,1.9-0.8,3.5-1.2c1.5-0.4,2.9-0.6,3.6-0.6c0,0,0,0,0,0c0.2,0,0.4-0.1,0.5-0.2
				c0,0.1,0.1,0.3,0.2,0.4c0.3,0.3,0.7,1.2,0.9,2.3l0,0.1c0.3,1.1,0.4,2.2,0.3,2.7c0,0.1,0,0.3,0,0.4l-0.1,0c-0.1,0-0.2,0-0.3,0.1
				c-0.5,0.3-1.9,0.8-3.5,1.2c-1.5,0.4-2.9,0.6-3.6,0.6c0,0,0,0,0,0C16.1,36.6,16,36.7,15.9,36.8z"/>
			<path class="st0" d="M22.1,29.5C22.1,29.6,22.2,29.6,22.1,29.5c0.2,0.2,0.6,0.9,0.9,2.2l0,0.1c0.3,1.3,0.4,2.2,0.3,2.4
				c0,0,0,0,0,0.1c-0.1,0-0.1,0-0.2,0.1c-0.5,0.3-1.9,0.7-3.4,1.1c-1.5,0.4-2.9,0.6-3.5,0.6l-0.1,0c0,0-0.1,0-0.1,0c0,0,0,0,0-0.1
				c-0.2-0.2-0.6-1-0.9-2.3l0-0.1l-1,0.2l1-0.3c-0.3-1.2-0.3-2-0.3-2.2c0,0,0,0,0-0.1c0.1,0,0.1,0,0.2-0.1c0.5-0.3,1.9-0.7,3.4-1.1
				c1.5-0.4,2.9-0.6,3.5-0.6l0.1,0C22,29.6,22.1,29.6,22.1,29.5 M22.8,27.9c-0.2,0-0.4,0.2-0.6,0.4c0,0,0,0.1-0.1,0.1
				c0,0-0.1,0.1-0.1,0.1c0,0,0,0,0,0c0,0,0,0-0.1,0c-0.8,0-2.2,0.3-3.7,0.7c-1.5,0.4-3,0.9-3.6,1.2c0,0,0,0-0.1,0c0,0-0.1,0-0.1,0
				c0,0-0.1-0.1-0.1-0.1c-0.2-0.1-0.3-0.1-0.5-0.1c-0.2,0-0.3,0.1-0.3,0.2c-0.1,0.2,0.1,0.5,0.4,0.7l0,0c0,0,0.1,0.1,0.1,0.1
				c-0.1,0.5,0,1.6,0.3,2.7c0,0,0,0,0,0c0,0,0,0,0,0.1c0.3,1.1,0.7,2.3,1.1,2.7c0,0,0,0.1,0,0.2c0,0,0,0,0,0c-0.2,0.3-0.2,0.7,0,0.8
				c0,0,0.1,0,0.1,0c0.2,0,0.4-0.2,0.6-0.4c0,0,0-0.1,0.1-0.1c0,0,0.1-0.1,0.1-0.1c0,0,0,0,0,0c0,0,0,0,0.1,0c0.8,0,2.2-0.3,3.7-0.7
				c1.5-0.4,3-0.9,3.6-1.2c0,0,0,0,0.1,0c0,0,0.1,0,0.1,0c0,0,0.1,0.1,0.1,0.1c0.2,0.1,0.3,0.1,0.5,0.1c0.2,0,0.3-0.1,0.3-0.2
				c0.1-0.2-0.1-0.5-0.4-0.7c0,0,0,0,0,0c0,0-0.1-0.1-0.1-0.1c0.1-0.6,0-1.8-0.3-2.9c0,0,0-0.1,0-0.1c0,0,0,0,0,0
				c-0.3-1.1-0.7-2.1-1-2.5c0,0,0-0.1,0-0.2c0,0,0,0,0,0c0.2-0.3,0.2-0.7,0-0.8C22.9,27.9,22.8,27.9,22.8,27.9L22.8,27.9z"/>
		</g>
		<g>
			<ellipse transform="matrix(0.9689 -0.2475 0.2475 0.9689 -7.9531 4.7516)" class="st3" cx="14.9" cy="34" rx="0.3" ry="2.8"/>
			<path class="st3" d="M14.3,31.3C14.2,31.3,14.2,31.3,14.3,31.3c-0.1,0,0.1,1.3,0.4,2.7c0.4,1.5,0.8,2.6,0.9,2.6c0,0,0,0,0,0
				c0.1,0-0.1-1.3-0.4-2.7C14.8,32.5,14.4,31.3,14.3,31.3L14.3,31.3z"/>
		</g>
	</g>
</g>
</svg>
