<svg id="Layer_1" data-name="Layer 1" xmlns="http://www.w3.org/2000/svg" viewBox="0 0 66.57 66.57"><defs><style>.cls-1{fill:#82dabd;}.cls-2{fill:#333;}.cls-3{fill:#fff;}.cls-4{fill:#bbcbd3;}.cls-5{fill:#c0272d;}.cls-6{fill:#282560;}.cls-7{fill:#b3b2b3;}.cls-8{fill:#4d4e4e;}.cls-9{fill:#cbcbca;}</style></defs><title>btn-appointment-green</title><path class="cls-1" d="M66.6,15.65V52.93c-.09.47-.22.94-.27,1.42A14.06,14.06,0,0,1,55,66.9c-1,.19-1.92.35-2.87.53H14.53a9.21,9.21,0,0,0-1.13-.26A14,14,0,0,1,.53,55.5c-.2-1-.34-2.11-.5-3.16V15.65c.09-.53.21-1,.28-1.57.78-6,3.89-10.2,9.63-12.22a34.13,34.13,0,0,1,5.18-1H51.81a11.94,11.94,0,0,0,1.43.26A14.06,14.06,0,0,1,66.06,12.48C66.27,13.53,66.42,14.59,66.6,15.65Z" transform="translate(-0.03 -0.85)"/><path class="cls-2" d="M61.17,27.78l-11.55-5a3,3,0,0,0-3.93,1.56L33.49,52.75a3,3,0,0,0,1.56,3.93l11.55,5a3,3,0,0,0,1.18.24,3.08,3.08,0,0,0,1.11-.21,3,3,0,0,0,1.64-1.59L62.73,31.7A3,3,0,0,0,61.17,27.78Z" transform="translate(-0.03 -0.85)"/><rect class="cls-3" x="36.65" y="34.08" width="23.06" height="15.95" transform="translate(-9.52 68.86) rotate(-66.73)"/><path class="cls-3" d="M51.07,56.08l-.2-.08L36,49.61,45.3,28l15,6.47ZM36.58,49.39l14.26,6.13,8.94-20.79L45.52,28.6Z" transform="translate(-0.03 -0.85)"/><path class="cls-4" d="M60,34.64l-9.07,21.1L36.36,49.48l9.07-21.1L60,34.64m.12,0L45.39,28.26,36.24,49.52,51,55.86l9.14-21.27Z" transform="translate(-0.03 -0.85)"/><circle class="cls-3" cx="42.25" cy="54.94" r="1.5"/><path d="M42.28,57.35a1.5,1.5,0,0,1-.62-.13,1.56,1.56,0,0,1,0-2.88,1.53,1.53,0,0,1,1.19,0,1.56,1.56,0,0,1,.82,2.06,1.54,1.54,0,0,1-.85.83A1.7,1.7,0,0,1,42.28,57.35Zm0-3a1.49,1.49,0,0,0-.54.11,1.39,1.39,0,0,0-.79.77,1.44,1.44,0,0,0,1.86,1.91,1.47,1.47,0,0,0,.8-.77h0a1.47,1.47,0,0,0,0-1.11,1.45,1.45,0,0,0-.77-.79A1.42,1.42,0,0,0,42.28,54.34Z" transform="translate(-0.03 -0.85)"/><rect class="cls-3" x="52.09" y="27.84" width="4.1" height="0.71" rx="0.3" ry="0.3" transform="translate(15.51 -19.95) rotate(23.27)"/><path d="M55.82,29.33h-.07L52.22,27.8a.17.17,0,0,1-.09-.23l.18-.41a.16.16,0,0,1,.09-.09.15.15,0,0,1,.13,0l3.54,1.52a.16.16,0,0,1,.09.09.15.15,0,0,1,0,.13l-.18.42a.2.2,0,0,1-.09.09Zm0-.09h.06a.12.12,0,0,0,0,0l.18-.41a.09.09,0,0,0,0-.07.1.1,0,0,0,0,0L52.5,27.15a.08.08,0,0,0-.11,0l-.18.42a.08.08,0,0,0,0,.11Z" transform="translate(-0.03 -0.85)"/><circle class="cls-5" cx="48.23" cy="41.05" r="6.11"/><polygon class="cls-3" points="49.93 40.37 50.64 38.72 48.27 37.7 47.56 39.35 45.9 38.64 44.88 41.01 46.54 41.72 45.83 43.38 48.2 44.4 48.91 42.74 50.57 43.46 51.59 41.09 49.93 40.37"/><path class="cls-3" d="M48.34,45.54l-2.77-1.19.72-1.66L44.63,42l1.19-2.76,1.66.71.71-1.66L51,39.45l-.71,1.66,1.66.72-1.19,2.76-1.66-.71Zm-2.2-1.42,2,.85.72-1.66,1.66.71.84-2-1.65-.71.71-1.66-2-.85-.71,1.66L46,39.78l-.85,2,1.66.71Z" transform="translate(-0.03 -0.85)"/><path class="cls-3" d="M4.36,19.84A17.3,17.3,0,0,0,25,40.76l7.68,5.66a1,1,0,0,0,1.58-.92l-1.09-9.16A17.3,17.3,0,1,0,4.36,19.84Z" transform="translate(-0.03 -0.85)"/><path class="cls-3" d="M33.29,46.83a1.17,1.17,0,0,1-.71-.24L25,41a17.48,17.48,0,1,1,8.45-4.57l1.07,9.06a1.18,1.18,0,0,1-.59,1.18A1.22,1.22,0,0,1,33.29,46.83Zm-8.22-6.3,7.76,5.72a.78.78,0,0,0,.85,0,.74.74,0,0,0,.38-.76L33,36.26l.08-.08A17.08,17.08,0,1,0,4.57,19.89l-.21-.05.21.05A17.08,17.08,0,0,0,25,40.55Z" transform="translate(-0.03 -0.85)"/><path class="cls-6" d="M18.59,40a8,8,0,0,1-8-8v-7.2a1,1,0,1,1,2.06,0V32A5.91,5.91,0,0,0,24.5,32v-7.2a1,1,0,1,1,2.06,0V32A8,8,0,0,1,18.59,40Z" transform="translate(-0.03 -0.85)"/><path class="cls-7" d="M23.68,10.1c-2.91,0-2.94,3.25-3,4.65v1.9a.48.48,0,0,0,.48.49.48.48,0,0,0,.49-.48l0-1.91c0-2.66.57-3.69,2-3.68a.48.48,0,0,0,.49-.48A.48.48,0,0,0,23.68,10.1Z" transform="translate(-0.03 -0.85)"/><circle class="cls-8" cx="24.03" cy="9.63" r="1.01"/><path class="cls-7" d="M27.41,10.14c2.91,0,2.88,3.31,2.86,4.71v1.9a.49.49,0,0,1-1,0l0-1.9c0-2.67-.51-3.71-1.9-3.73a.49.49,0,0,1-.49-.49A.5.5,0,0,1,27.41,10.14Z" transform="translate(-0.03 -0.85)"/><circle class="cls-8" cx="26.99" cy="9.67" r="1.01"/><path class="cls-6" d="M29.73,15.74a1,1,0,0,0-1,1l-.41,3.87a2.9,2.9,0,1,1-5.8,0l-.34-3.89a1,1,0,0,0-1.94,0l.34,3.89a4.84,4.84,0,1,0,9.68.09l.42-3.88A1,1,0,0,0,29.73,15.74Z" transform="translate(-0.03 -0.85)"/><circle class="cls-7" cx="11.66" cy="24.07" r="3.42"/><circle class="cls-9" cx="11.72" cy="24.09" r="1.87"/></svg>