<?xml version="1.0" encoding="utf-8"?>
<!-- Generator: Adobe Illustrator 22.1.0, SVG Export Plug-In . SVG Version: 6.00 Build 0)  -->
<svg version="1.1" id="Layer_1" xmlns="http://www.w3.org/2000/svg" xmlns:xlink="http://www.w3.org/1999/xlink" x="0px" y="0px"
	 viewBox="0 0 66.6 66.6" style="enable-background:new 0 0 66.6 66.6;" xml:space="preserve">
<style type="text/css">
	.st0{fill:#FFFFFF;}
	.st1{fill:#333333;}
	.st2{fill:#BBCBD3;}
	.st3{fill:#C0272D;}
	.st4{fill:#B1F0DB;}
	.st5{fill:#D64541;}
</style>
<title>btn-appointment-green</title>
<g>
	<g>
		<g>
			<path class="st0" d="M66.6,14.8c0,12.4,0,24.9,0,37.3c-0.1,0.5-0.2,0.9-0.3,1.4c-0.6,6.3-5.1,11.3-11.4,12.5
				c-1,0.2-1.9,0.4-2.9,0.5c-12.5,0-25.1,0-37.6,0c-0.4-0.1-0.7-0.2-1.1-0.3C6.7,65.7,1.8,61.3,0.5,54.6c-0.2-1-0.3-2.1-0.5-3.2
				C0,39.3,0,27,0,14.8c0.1-0.5,0.2-1,0.3-1.6C1.1,7.2,4.2,3,9.9,1c1.6-0.6,3.4-0.7,5.2-1c12.2,0,24.5,0,36.7,0
				c0.5,0.1,1,0.2,1.4,0.3c6.4,0.5,11.5,5,12.8,11.4C66.2,12.7,66.4,13.7,66.6,14.8z"/>
		</g>
	</g>
	<g>
		<path class="st1" d="M61.1,26.9l-11.5-5c-0.7-0.3-1.5-0.3-2.3,0c-0.7,0.3-1.3,0.9-1.6,1.6L33.5,51.9c-0.3,0.7-0.3,1.5,0,2.3
			c0.3,0.7,0.9,1.3,1.6,1.6l11.5,5c0.4,0.2,0.8,0.2,1.2,0.2c0.4,0,0.8-0.1,1.1-0.2c0.7-0.3,1.3-0.9,1.6-1.6l12.2-28.4
			C63.3,29.3,62.6,27.6,61.1,26.9z"/>
		<g>
			<g>
				
					<rect x="36.6" y="33.2" transform="matrix(0.395 -0.9187 0.9187 0.395 -8.7241 69.1622)" class="st0" width="23.1" height="15.9"/>
				<path class="st0" d="M51,55.2l-0.2-0.1L36,48.8l9.3-21.6l15,6.5L51,55.2z M36.6,48.5l14.3,6.1l8.9-20.8l-14.3-6.1L36.6,48.5z"/>
			</g>
			<g>
				<path class="st2" d="M60,33.8l-9.1,21.1l-14.6-6.3l9.1-21.1L60,33.8 M60.1,33.7l-14.7-6.3l-9.1,21.3L50.9,55L60.1,33.7
					L60.1,33.7z"/>
			</g>
		</g>
		<g>
			<circle class="st0" cx="42.2" cy="54.9" r="1.5"/>
			<path d="M42.2,56.5c-0.2,0-0.4,0-0.6-0.1c-0.8-0.3-1.2-1.3-0.8-2.1c0.2-0.4,0.5-0.7,0.9-0.8c0.4-0.2,0.8-0.1,1.2,0
				c0.4,0.2,0.7,0.5,0.8,0.9c0.2,0.4,0.1,0.8,0,1.2c-0.2,0.4-0.5,0.7-0.9,0.8C42.6,56.5,42.4,56.5,42.2,56.5z M42.2,53.5
				c-0.2,0-0.4,0-0.5,0.1c-0.4,0.1-0.6,0.4-0.8,0.8c-0.3,0.7,0,1.6,0.8,1.9c0.4,0.2,0.7,0.2,1.1,0c0.4-0.1,0.6-0.4,0.8-0.8l0,0
				c0.2-0.4,0.2-0.7,0-1.1c-0.1-0.4-0.4-0.6-0.8-0.8C42.6,53.5,42.4,53.5,42.2,53.5z"/>
		</g>
		<g>
			<path class="st0" d="M55.6,28.4L52.4,27c-0.2-0.1-0.2-0.2-0.2-0.4l0-0.1c0.1-0.2,0.2-0.2,0.4-0.2l3.2,1.4
				c0.2,0.1,0.2,0.2,0.2,0.4l0,0.1C55.9,28.4,55.7,28.4,55.6,28.4z"/>
			<path d="M55.8,28.5C55.8,28.5,55.7,28.5,55.8,28.5l-3.6-1.5c-0.1,0-0.1-0.1-0.1-0.2l0.2-0.4c0,0,0.1-0.1,0.1-0.1c0,0,0.1,0,0.1,0
				l3.5,1.5c0,0,0.1,0.1,0.1,0.1c0,0,0,0.1,0,0.1l-0.2,0.4C55.9,28.4,55.9,28.4,55.8,28.5C55.8,28.5,55.8,28.5,55.8,28.5z
				 M55.8,28.4C55.8,28.4,55.8,28.4,55.8,28.4c0.1,0,0.1,0,0.1,0l0.2-0.4c0,0,0,0,0-0.1c0,0,0,0,0,0l-3.5-1.5c0,0-0.1,0-0.1,0
				l-0.2,0.4c0,0,0,0.1,0,0.1L55.8,28.4z"/>
		</g>
		<g>
			<circle class="st3" cx="48.2" cy="41" r="6.1"/>
		</g>
		<g>
			<polygon class="st0" points="49.9,40.4 50.6,38.7 48.3,37.7 47.6,39.4 45.9,38.6 44.9,41 46.5,41.7 45.8,43.4 48.2,44.4 
				48.9,42.7 50.6,43.5 51.6,41.1 			"/>
			<path class="st0" d="M48.3,44.7l-2.8-1.2l0.7-1.7l-1.7-0.7l1.2-2.8l1.7,0.7l0.7-1.7l2.8,1.2l-0.7,1.7l1.7,0.7l-1.2,2.8L49,43
				L48.3,44.7z M46.1,43.3l2,0.8l0.7-1.7l1.7,0.7l0.8-2l-1.7-0.7l0.7-1.7l-2-0.8l-0.7,1.7L46,38.9l-0.8,2l1.7,0.7L46.1,43.3z"/>
		</g>
	</g>
	<g>
		<g>
			<path class="st4" d="M4.3,19c-2.1,8.7,2.9,17.7,11.4,20.5c3.1,1,6.3,1.1,9.3,0.4l7.7,5.7c0.7,0.5,1.7-0.1,1.6-0.9l-1.1-9.2
				c2.2-2.1,3.9-4.9,4.7-8.1c2.3-8.7-2.6-17.8-11.1-20.7C17.1,3.4,6.7,9.1,4.3,19z"/>
			<path class="st0" d="M33.3,46c-0.3,0-0.5-0.1-0.7-0.2l-7.6-5.6c-3.1,0.7-6.3,0.5-9.3-0.5C7,36.8,2,27.7,4.1,18.9
				c1.2-4.8,4.3-8.9,8.6-11.2s9.4-2.8,14.1-1.2c8.6,2.9,13.6,12.2,11.3,21c-0.8,3.1-2.4,5.9-4.7,8.1l1.1,9.1
				c0.1,0.5-0.2,0.9-0.6,1.2C33.7,45.9,33.5,46,33.3,46z M25,39.7l7.8,5.7c0.3,0.2,0.6,0.2,0.9,0c0.2-0.1,0.4-0.4,0.4-0.8l-1.1-9.3
				l0.1-0.1c2.3-2.2,3.9-4.9,4.7-8c2.2-8.6-2.6-17.6-11-20.5c-4.5-1.5-9.6-1.1-13.8,1.2c-4.2,2.3-7.3,6.3-8.4,11L4.3,19L4.5,19
				c-2.1,8.6,2.9,17.5,11.3,20.2C18.8,40.2,21.9,40.4,25,39.7L25,39.7z"/>
		</g>
	</g>
	<g>
		<path class="st5" d="M12,16.6c0-1.2,0.4-2.3,1.1-3.5c0.7-1.2,1.8-2.2,3.2-2.9c1.4-0.8,3.1-1.2,5-1.2c1.8,0,3.3,0.3,4.7,1
			c1.4,0.7,2.4,1.5,3.1,2.7c0.7,1.1,1.1,2.3,1.1,3.7c0,1-0.2,1.9-0.6,2.7c-0.4,0.8-0.9,1.5-1.5,2c-0.6,0.6-1.6,1.5-3.1,2.9
			c-0.4,0.4-0.7,0.7-1,1c-0.2,0.3-0.4,0.5-0.6,0.8c-0.1,0.2-0.2,0.5-0.3,0.7c-0.1,0.2-0.2,0.7-0.3,1.3c-0.2,1.3-1,1.9-2.2,1.9
			c-0.6,0-1.2-0.2-1.6-0.6c-0.4-0.4-0.6-1-0.6-1.8c0-1,0.2-1.9,0.5-2.7c0.3-0.7,0.7-1.4,1.3-2c0.5-0.6,1.2-1.2,2.1-2
			c0.8-0.7,1.3-1.2,1.7-1.5c0.3-0.3,0.6-0.7,0.9-1.2s0.4-0.9,0.4-1.4c0-1-0.4-1.8-1.1-2.5c-0.7-0.7-1.7-1-2.8-1c-1.3,0-2.3,0.3-3,1
			c-0.6,0.7-1.2,1.7-1.6,3c-0.4,1.4-1.2,2.1-2.4,2.1c-0.7,0-1.3-0.2-1.7-0.7C12.2,17.7,12,17.2,12,16.6z M20.9,36.6
			c-0.7,0-1.4-0.2-1.9-0.7c-0.6-0.5-0.8-1.2-0.8-2c0-0.8,0.3-1.4,0.8-1.9c0.5-0.5,1.2-0.8,2-0.8c0.8,0,1.4,0.3,1.9,0.8
			c0.5,0.5,0.8,1.2,0.8,1.9c0,0.9-0.3,1.5-0.8,2C22.3,36.4,21.6,36.6,20.9,36.6z"/>
	</g>
</g>
</svg>
