<svg id="Layer_1" data-name="Layer 1" xmlns="http://www.w3.org/2000/svg" viewBox="0 0 66.57 66.57"><defs><style>.cls-1{fill:#82dabd;}.cls-2,.cls-6{fill:#c44241;}.cls-3{fill:#e86c6d;}.cls-4{fill:#f59fa1;}.cls-5{fill:#2e100f;}.cls-6{fill-rule:evenodd;}</style></defs><title>btn-siren-green</title><path class="cls-1" d="M66.33,15.65V52.93a13.67,13.67,0,0,0-.27,1.42A14.06,14.06,0,0,1,54.7,66.9c-1,.19-1.91.35-2.87.53H14.25a8.66,8.66,0,0,0-1.12-.26A14,14,0,0,1,.26,55.5c-.21-1-.34-2.11-.5-3.16V15.65c.09-.53.2-1,.27-1.57.78-6,3.89-10.2,9.64-12.22a34.13,34.13,0,0,1,5.18-1H51.54A11.59,11.59,0,0,0,53,1.11,14.07,14.07,0,0,1,65.79,12.48C66,13.53,66.15,14.59,66.33,15.65Z" transform="translate(0.24 -0.85)"/><rect class="cls-2" x="20.21" y="37.14" width="26.15" height="13.67"/><path class="cls-2" d="M46.18,38.7C46.18,46,40.3,51.12,33,51.12S19.91,46,19.91,38.7a13.14,13.14,0,0,1,26.27,0Z" transform="translate(0.24 -0.85)"/><circle class="cls-3" cx="33.29" cy="44.37" r="6.08"/><circle class="cls-4" cx="33.29" cy="46.03" r="4.42"/><path class="cls-5" d="M46.55,44a.83.83,0,0,0-.82,0A31.22,31.22,0,0,1,33,47.17a31.27,31.27,0,0,1-12.68-3.23.83.83,0,0,0-1.22.73V54.5a.85.85,0,0,0,.44.74A32.39,32.39,0,0,0,33,58.66a32.46,32.46,0,0,0,13.47-3.42A.85.85,0,0,0,47,54.5V44.67A.83.83,0,0,0,46.55,44Z" transform="translate(0.24 -0.85)"/><path class="cls-6" d="M37.22,23.5l5.37-5.82c.69-.74,1.36-1.49,2.06-2.21.3-.31.28-.56,0-.79A21.35,21.35,0,0,0,42.51,13a20.59,20.59,0,0,0-2.61-1.32c-.55-.25-.68-.15-.88.41L35.16,22.65a1.1,1.1,0,0,0,.25,1.28.91.91,0,0,0,1.1.18,4.43,4.43,0,0,0,.72-.59Z" transform="translate(0.24 -0.85)"/><path class="cls-6" d="M22.74,15.24c-.45.54-.92,1.07-1.36,1.63-.24.29-.23.54.13.8,2.26,1.6,4.49,3.23,6.74,4.85.41.3.82.6,1.24.89a.94.94,0,0,0,1.28,0,.92.92,0,0,0,.06-1.28l-3-4.87c-.72-1.16-1.45-2.3-2.13-3.48-.24-.43-.51-.38-.79-.18-.68.47-1.32,1-2,1.49-.07.05-.12.11-.19.17Z" transform="translate(0.24 -0.85)"/><path class="cls-6" d="M31.77,18.6a.63.63,0,0,0,1.08-.25,13.29,13.29,0,0,0,.32-1.42c.43-2.2.85-4.4,1.29-6.6.08-.37,0-.53-.37-.59a7.38,7.38,0,0,0-3.37.16.43.43,0,0,0-.35.56c.42,2.54.82,5.07,1.24,7.61A3.1,3.1,0,0,0,31.77,18.6Z" transform="translate(0.24 -0.85)"/></svg>