<svg id="Layer_1" data-name="Layer 1" xmlns="http://www.w3.org/2000/svg" viewBox="0 0 66.57 66.57"><defs><style>.cls-1{fill:#fff;}.cls-2{fill:#333;}.cls-3{fill:#bbcbd3;}.cls-4{fill:#c0272d;}.cls-5{fill:#b1f0db;}.cls-6{fill:#282560;}.cls-7{fill:#b3b2b3;}.cls-8{fill:#4d4e4e;}.cls-9{fill:#cbcbca;}</style></defs><title>btn-appointment-white</title><path class="cls-1" d="M66.6,15.52V52.8c-.09.48-.22,1-.27,1.43A14,14,0,0,1,55,66.77c-1,.2-1.92.36-2.87.53H14.53a9.15,9.15,0,0,0-1.13-.25A14,14,0,0,1,.53,55.38c-.2-1.05-.34-2.11-.5-3.17V15.52c.09-.52.21-1,.28-1.56C1.09,8,4.2,3.76,9.94,1.74a34.13,34.13,0,0,1,5.18-1H51.81A14.32,14.32,0,0,0,53.24,1,14,14,0,0,1,66.06,12.36C66.27,13.41,66.42,14.47,66.6,15.52Z" transform="translate(-0.03 -0.73)"/><path class="cls-2" d="M61.17,27.65l-11.55-5a2.94,2.94,0,0,0-2.29,0,3,3,0,0,0-1.64,1.59L33.49,52.63a3,3,0,0,0,0,2.28,2.94,2.94,0,0,0,1.59,1.64l11.55,5a3,3,0,0,0,1.18.24,3.08,3.08,0,0,0,1.11-.21A3,3,0,0,0,50.53,60l12.2-28.37A3,3,0,0,0,61.17,27.65Z" transform="translate(-0.03 -0.73)"/><rect class="cls-1" x="36.65" y="33.96" width="23.06" height="15.95" transform="translate(-9.4 68.9) rotate(-66.73)"/><path class="cls-1" d="M51.07,56l-.2-.09L36,49.49,45.3,27.91l15,6.47Zm-14.49-6.7,14.26,6.13,8.94-20.78L45.52,28.48Z" transform="translate(-0.03 -0.73)"/><path class="cls-3" d="M60,34.52l-9.07,21.1L36.36,49.35l9.07-21.1L60,34.52m.12-.05L45.39,28.13,36.24,49.4,51,55.74l9.14-21.27Z" transform="translate(-0.03 -0.73)"/><circle class="cls-1" cx="42.25" cy="54.94" r="1.5"/><path d="M42.28,57.23a1.5,1.5,0,0,1-.62-.13,1.56,1.56,0,0,1-.82-2.05,1.61,1.61,0,0,1,.86-.84,1.57,1.57,0,0,1,2,.88,1.54,1.54,0,0,1,0,1.19,1.56,1.56,0,0,1-.85.84A1.7,1.7,0,0,1,42.28,57.23Zm0-3a1.47,1.47,0,0,0-.54.1,1.45,1.45,0,0,0-.79.77,1.43,1.43,0,0,0,.76,1.9,1.4,1.4,0,0,0,1.1,0,1.47,1.47,0,0,0,.8-.77h0a1.47,1.47,0,0,0,0-1.11,1.45,1.45,0,0,0-1.34-.91Z" transform="translate(-0.03 -0.73)"/><rect class="cls-1" x="52.09" y="27.72" width="4.1" height="0.71" rx="0.3" ry="0.3" transform="matrix(0.92, 0.4, -0.4, 0.92, 15.46, -19.83)"/><path d="M55.82,29.21l-.07,0-3.53-1.52a.16.16,0,0,1-.09-.22l.18-.42a.2.2,0,0,1,.09-.09.28.28,0,0,1,.13,0l3.54,1.52a.18.18,0,0,1,.09.1.15.15,0,0,1,0,.13L56,29.1a.16.16,0,0,1-.09.09Zm0-.1a.06.06,0,0,0,.06,0,.1.1,0,0,0,0,0l.18-.42a.06.06,0,0,0,0-.06.12.12,0,0,0,0-.05L52.5,27a.1.1,0,0,0-.11.05l-.18.41a.08.08,0,0,0,0,.11Z" transform="translate(-0.03 -0.73)"/><circle class="cls-4" cx="48.23" cy="41.05" r="6.11"/><polygon class="cls-1" points="49.93 40.37 50.64 38.72 48.27 37.7 47.56 39.35 45.9 38.64 44.88 41.01 46.54 41.72 45.83 43.38 48.2 44.4 48.91 42.74 50.57 43.46 51.59 41.09 49.93 40.37"/><path class="cls-1" d="M48.34,45.41l-2.77-1.19.72-1.66-1.66-.71,1.19-2.76,1.66.71.71-1.66L51,39.33,50.24,41l1.66.71-1.19,2.77-1.66-.72ZM46.14,44l2,.85.72-1.66,1.66.71.84-2-1.65-.72.71-1.65-2-.85-.71,1.66L46,39.65l-.85,2,1.66.71Z" transform="translate(-0.03 -0.73)"/><path class="cls-5" d="M4.36,19.72A17.3,17.3,0,0,0,25,40.64L32.7,46.3a1,1,0,0,0,1.58-.92l-1.09-9.16A17.3,17.3,0,1,0,4.36,19.72Z" transform="translate(-0.03 -0.73)"/><path class="cls-1" d="M33.29,46.71a1.17,1.17,0,0,1-.71-.24L25,40.87a17.48,17.48,0,1,1,8.45-4.57l1.07,9.05a1.2,1.2,0,0,1-.59,1.19A1.22,1.22,0,0,1,33.29,46.71Zm-8.22-6.3,7.76,5.71a.78.78,0,0,0,.85.05.76.76,0,0,0,.38-.77L33,36.14l.08-.08A17.08,17.08,0,1,0,4.57,19.77l-.21-.05.21.05A17.08,17.08,0,0,0,25,40.43Z" transform="translate(-0.03 -0.73)"/><path class="cls-6" d="M18.59,39.86a8,8,0,0,1-8-8v-7.2a1,1,0,1,1,2.06,0v7.2a5.91,5.91,0,0,0,11.82,0v-7.2a1,1,0,1,1,2.06,0v7.2A8,8,0,0,1,18.59,39.86Z" transform="translate(-0.03 -0.73)"/><path class="cls-7" d="M23.68,10c-2.91,0-2.94,3.25-3,4.65v1.9a.49.49,0,1,0,1,0l0-1.9c0-2.66.57-3.7,2-3.69a.48.48,0,0,0,.49-.48A.49.49,0,0,0,23.68,10Z" transform="translate(-0.03 -0.73)"/><circle class="cls-8" cx="24.03" cy="9.63" r="1.01"/><path class="cls-7" d="M27.41,10c2.91,0,2.88,3.3,2.86,4.7v1.91a.5.5,0,0,1-.49.48.5.5,0,0,1-.49-.49l0-1.91c0-2.66-.51-3.71-1.9-3.72a.49.49,0,0,1-.49-.49A.5.5,0,0,1,27.41,10Z" transform="translate(-0.03 -0.73)"/><circle class="cls-8" cx="26.99" cy="9.67" r="1.01"/><path class="cls-6" d="M29.73,15.62a1,1,0,0,0-1,1l-.41,3.88a2.9,2.9,0,0,1-5.8-.06l-.34-3.88a1,1,0,0,0-1.94,0l.34,3.89a4.84,4.84,0,1,0,9.68.09l.42-3.88A1,1,0,0,0,29.73,15.62Z" transform="translate(-0.03 -0.73)"/><circle class="cls-7" cx="11.66" cy="24.07" r="3.42"/><circle class="cls-9" cx="11.72" cy="24.09" r="1.87"/></svg>