<svg id="Layer_1" data-name="Layer 1" xmlns="http://www.w3.org/2000/svg" viewBox="0 0 66.57 66.57"><defs><style>.cls-1{fill:#fff;}.cls-2,.cls-6{fill:#c44241;}.cls-3{fill:#e86c6d;}.cls-4{fill:#f59fa1;}.cls-5{fill:#2e100f;}.cls-6{fill-rule:evenodd;}</style></defs><title>btn-siren-white</title><path class="cls-1" d="M66.33,16V53.26a14.38,14.38,0,0,0-.27,1.43A14.06,14.06,0,0,1,54.7,67.23c-1,.19-1.91.35-2.87.53H14.25a7.24,7.24,0,0,0-1.12-.25A14,14,0,0,1,.26,55.84c-.21-1.05-.34-2.11-.5-3.17V16c.09-.52.2-1,.27-1.56.78-6,3.89-10.21,9.64-12.23a36.77,36.77,0,0,1,5.18-1H51.54A13.85,13.85,0,0,0,53,1.45,14,14,0,0,1,65.79,12.82C66,13.87,66.15,14.93,66.33,16Z" transform="translate(0.24 -1.18)"/><rect class="cls-2" x="20.21" y="37.14" width="26.15" height="13.67"/><path class="cls-2" d="M46.18,39c0,7.26-5.88,12.43-13.14,12.43S19.91,46.29,19.91,39a13.14,13.14,0,0,1,26.27,0Z" transform="translate(0.24 -1.18)"/><circle class="cls-3" cx="33.29" cy="44.37" r="6.08"/><circle class="cls-4" cx="33.29" cy="46.03" r="4.42"/><path class="cls-5" d="M46.55,44.3a.83.83,0,0,0-.82,0A31.22,31.22,0,0,1,33,47.5a31.27,31.27,0,0,1-12.68-3.23.84.84,0,0,0-1.22.74v9.82a.83.83,0,0,0,.44.74A32.39,32.39,0,0,0,33,59a32.46,32.46,0,0,0,13.47-3.42.83.83,0,0,0,.44-.74V45A.83.83,0,0,0,46.55,44.3Z" transform="translate(0.24 -1.18)"/><path class="cls-6" d="M37.22,23.84,42.59,18c.69-.74,1.36-1.49,2.06-2.21.3-.3.28-.55,0-.79a21.24,21.24,0,0,0-2.14-1.67A19.41,19.41,0,0,0,39.9,12c-.55-.24-.68-.14-.88.41L35.16,23a1.11,1.11,0,0,0,.25,1.29.9.9,0,0,0,1.1.17,4.43,4.43,0,0,0,.72-.59Z" transform="translate(0.24 -1.18)"/><path class="cls-6" d="M22.74,15.57c-.45.54-.92,1.08-1.36,1.63-.24.3-.23.55.13.81,2.26,1.6,4.49,3.22,6.74,4.84.41.3.82.6,1.24.89a.92.92,0,0,0,1.34-1.27l-3-4.86c-.72-1.16-1.45-2.31-2.13-3.49a.47.47,0,0,0-.79-.18c-.68.48-1.32,1-2,1.49-.07.05-.12.12-.19.18Z" transform="translate(0.24 -1.18)"/><path class="cls-6" d="M31.77,18.93a.63.63,0,0,0,1.08-.25,13.68,13.68,0,0,0,.32-1.41c.43-2.2.85-4.41,1.29-6.61.08-.36,0-.53-.37-.59a7.38,7.38,0,0,0-3.37.16.44.44,0,0,0-.35.57c.42,2.53.82,5.07,1.24,7.61A3,3,0,0,0,31.77,18.93Z" transform="translate(0.24 -1.18)"/></svg>