<?xml version="1.0" encoding="utf-8"?>
<!-- Generator: Adobe Illustrator 22.1.0, SVG Export Plug-In . SVG Version: 6.00 Build 0)  -->
<svg version="1.1" id="Layer_1" xmlns="http://www.w3.org/2000/svg" xmlns:xlink="http://www.w3.org/1999/xlink" x="0px" y="0px"
	 viewBox="0 0 306 306" style="enable-background:new 0 0 306 306;" xml:space="preserve">
<style type="text/css">
	.st0{fill:#DEFCF2;}
	.st1{clip-path:url(#SVGID_2_);}
	.st2{fill:#1B1464;}
	.st3{clip-path:url(#XMLID_2_);}
	.st4{fill:none;}
	.st5{clip-path:url(#XMLID_3_);}
	.st6{fill:#42210B;}
	.st7{fill:#F4BB3A;}
	.st8{fill:#A87C4F;}
	.st9{fill:#C3996B;}
	.st10{fill:#A87C4F;stroke:#A87C4F;stroke-width:0.75;stroke-linecap:round;stroke-miterlimit:10;}
	.st11{fill:#9E005D;}
	.st12{fill:#C65739;}
	.st13{fill:#A46C35;}
	.st14{fill:#A4A3CE;}
	.st15{fill:#8E572A;}
	.st16{fill:#8E572A;stroke:#8E572A;stroke-width:0.5478;stroke-linecap:round;stroke-linejoin:round;stroke-miterlimit:10;}
	.st17{fill:#8A8AB7;}
	.st18{fill:#1A1A1A;}
	.st19{fill:#232099;}
	.st20{fill:#231F20;}
	.st21{fill:#6E2405;}
	.st22{opacity:0.7;fill:#42210B;}
</style>
<g>
	<title>scene-needle-poke</title>
	<circle class="st0" cx="153" cy="153" r="153"/>
	<g>
		<defs>
			<circle id="SVGID_1_" cx="153" cy="153" r="153"/>
		</defs>
		<clipPath id="SVGID_2_">
			<use xlink:href="#SVGID_1_"  style="overflow:visible;"/>
		</clipPath>
		<g class="st1">
			<path class="st2" d="M84.6,335L84.6,335c-7.3,0-13.3-6-13.3-13.3l-3.4-72.1c0-7.3,9.4-13.3,16.7-13.3h0c7.3,0,16.7,6,16.7,13.3
				l-3.4,72.1C97.9,329,91.9,335,84.6,335z"/>
			<path class="st2" d="M84.6,414.6L84.6,414.6c-7.3,0-10-6-10-13.3l-3.4-80.5c0-7.3,6-13.3,13.3-13.3h0c7.3,0,13.3,6,13.3,13.3
				l-3.4,80.5C94.5,408.6,91.9,414.6,84.6,414.6z"/>
			<path class="st2" d="M120.2,335L120.2,335c-7.3,0-13.3-6-13.3-13.3l-3.4-72.1c0-7.3,9.4-13.3,16.7-13.3h0c7.3,0,16.7,6,16.7,13.3
				l-3.4,72.1C133.5,329,127.5,335,120.2,335z"/>
			<path class="st2" d="M120.2,415L120.2,415c-7.3,0-10-6-10-13.3l-3.4-80.5c0-7.3,6-13.3,13.3-13.3h0c7.3,0,13.3,6,13.3,13.3
				l-3.4,80.5C130.2,409,127.5,415,120.2,415z"/>
			<g>
				<defs>
					<path id="XMLID_19_" d="M110.3,402.5c11.6,0.8,16.9,0.9,19.8,0c0,0,11.5,6.5,11.5,6.6c2.3,1.5,4.8,3.2,6.2,5.6
						c2.5,4.3,1.1,8.9-2.6,11.7c-3.9,2.9-8.3,2.1-12.7,0.8c0,0-15.8-4.6-15.8-4.6C110.3,419.9,107.5,416.3,110.3,402.5z"/>
				</defs>
				<clipPath id="XMLID_2_">
					<use xlink:href="#XMLID_19_"  style="overflow:visible;"/>
				</clipPath>
				<g class="st3">
					<path class="st4" d="M139.7,400.9c-7.1-1.9-13.4-4.9-19.2-9.4c-8.6-6.7-18.4,7.1-9.8,13.7c6.8,5.3,14.7,9.3,23,11.5
						c4.4,1.2,9.2-0.3,10.9-4.9C146.1,407.9,144.2,402.1,139.7,400.9L139.7,400.9z"/>
				</g>
			</g>
			<g>
				<defs>
					<path id="XMLID_18_" d="M94.5,402.4c-11.6,0.8-16.9,0.9-19.8,0c0,0-11.5,6.5-11.5,6.6c-2.3,1.5-4.8,3.2-6.2,5.6
						c-2.5,4.3-1.1,8.9,2.6,11.7c3.9,2.9,8.3,2.1,12.7,0.8c0,0,15.8-4.6,15.8-4.6C94.5,419.8,97.4,416.2,94.5,402.4z"/>
				</defs>
				<clipPath id="XMLID_3_">
					<use xlink:href="#XMLID_18_"  style="overflow:visible;"/>
				</clipPath>
				<g class="st5">
					<path class="st4" d="M65.1,400.8c7.1-1.9,13.4-4.9,19.2-9.4c8.6-6.7,18.4,7.1,9.8,13.7c-6.8,5.3-14.7,9.3-23,11.5
						c-4.4,1.2-9.2-0.3-10.9-4.9C58.8,407.8,60.7,402,65.1,400.8L65.1,400.8z"/>
				</g>
			</g>
			<path class="st6" d="M143.1,87.2c0-0.5-0.1-0.9-0.2-1.3c0.7-0.9,1.2-2,1.2-3.3c0-1.6-0.7-3.1-1.9-4c1-1.1,1.7-2.6,1.7-4.2
				c0-2.4-1.3-4.4-3.2-5.3c0.3-0.8,0.5-1.7,0.5-2.7c0-3.7-2.4-6.8-5.7-7.6c0.1-0.5,0.3-1,0.3-1.6c0-3-2.3-5.4-5.1-5.4
				c-0.2,0-0.5,0-0.7,0.1c-1.3-2.7-3.9-4.6-6.9-4.7c-0.5-1.8-2.1-3.1-4-3.1c-0.6,0-1.2,0.2-1.7,0.4c-1.4-1.9-3.6-3.2-6-3.2
				c-1.3,0-2.6,0.4-3.7,1.1c-1.9-1.2-4.1-1.9-6.5-1.9c-2.8,0-5.3,1-7.4,2.6c-0.4,0-0.7-0.1-1.1-0.1c-2.3,0.1-4.4,1.3-5.8,3
				c-0.6-0.2-1.2-0.4-1.8-0.3c-2.2,0.1-3.9,2-4,4.3c-0.5-0.1-1-0.1-1.5-0.1c-4.1,0.2-7.2,3.7-7.2,8c-0.3,0-0.6-0.1-0.9-0.1
				c-2.8,0.1-5,2.7-4.8,5.6c0,0.2,0.1,0.4,0.1,0.5c-3.1,1.1-5.3,4.2-5.1,7.8c0.1,1.2,0.4,2.3,0.9,3.3c-0.6,1-1,2.2-0.9,3.5
				c0,1,0.4,2,0.8,2.8c-1.3,1-2.1,2.6-2,4.4c0.1,1.3,0.6,2.5,1.4,3.3c-0.4,0.6-0.6,1.2-0.6,1.9c0.1,1.7,1.5,3.1,3.1,3
				c1.6-0.1,2.9-1.6,2.8-3.3c0-0.2-0.1-0.3-0.1-0.5c1.8-0.8,3.1-2.7,3-4.9c0-0.6-0.2-1.1-0.3-1.6c2-1,3.3-3.2,3.2-5.6
				c1.5-1,2.7-2.5,3.2-4.3c0.5,0.1,1.1,0.2,1.7,0.1c2.7-0.1,5-1.8,6.2-4.2c0.5,0.2,1.1,0.3,1.6,0.3c2.4-0.1,4.3-2.3,4.2-4.8
				c0.3,0,0.7,0.1,1,0.1c1-0.1,1.9-0.3,2.8-0.7c2.1,1.7,4.8,2.8,7.7,2.8c2.5,0,4.8-0.8,6.8-2.1c1.4,1.3,3.3,2.1,5.3,2.1
				c1.9,0,3.6-0.7,5-1.8c0.7,3.7,3.8,6.6,7.5,6.6c0.9,0,1.7-0.2,2.4-0.5c0.1,0.1,0.2,0.3,0.3,0.4c0,0.1,0,0.1,0,0.2
				c0,2.2,1.2,4.1,2.9,5.2c0.1,2.1,1.4,3.8,3.2,4.4c0,0.3-0.1,0.6-0.1,0.9c0,1.6,0.8,3.1,1.9,4c0,0.2-0.1,0.4-0.1,0.6
				c0,1.2,0.6,2.3,1.5,3c-0.4,0.5-0.6,1-0.6,1.7c0,1.5,1.1,2.6,2.5,2.6c1.4,0,2.5-1.2,2.5-2.6c0-0.6-0.2-1.2-0.6-1.6
				C142.5,89.6,143.1,88.5,143.1,87.2z"/>
			<path class="st7" d="M130.5,144.9l-26.8-5.1h-2.8L74,144.9c-4.9,0-7,8.8-5.8,12.2c1.9,5.4,4.3,30.2,4.6,34.9l-5.1,58
				c0,8.9,10.7,14.6,19.6,14.6h0.2H117h0.2c8.9,0,19.8-6.5,19.8-15.4l-5.3-57.2c0.3-4.7,2.7-29.6,4.6-34.9
				C137.5,153.7,135.3,144.9,130.5,144.9z"/>
			<path class="st8" d="M102.3,165L102.3,165c-3.6,0-8.9-10.8-8.9-14.4l-1.7-26.5h21.1l-1.7,26.5C111.1,154.2,105.9,165,102.3,165z"
				/>
			<path class="st9" d="M133.6,102.7c-0.1,0-0.1,0-0.1,0c0.1-1.1,0.1-2.2,0.1-3.3c0-22.8-14-37.2-31.4-37.2
				c-17.4,0-31.7,14.5-31.7,37.2c0,1.1,0,2.2,0.1,3.3c-6.2,0.3-6.1,11.1,0.3,11.1c0.6,0,1.1-0.1,1.6-0.3
				c3.2,11.4,10.1,20.4,18.9,24.6c0.6,0.3,5.6,2.4,10.6,2.4c5.1,0,10.2-2.1,10.9-2.4c8.8-4.2,15.7-13.2,18.9-24.7
				c0.6,0.3,1.2,0.4,1.9,0.4C140.1,113.8,140.1,102.7,133.6,102.7z"/>
			<path class="st10" d="M134.3,110.3c1,0.2,1.9-0.6,2-1.6c0.1-1.1-0.5-2-1.5-2.2"/>
			<path class="st10" d="M71.3,110.2c-1,0.2-1.9-0.6-2-1.6c-0.1-1.1,0.5-2,1.5-2.2"/>
			<path class="st11" d="M138.1,77.7c-0.2-0.8,0.1-1.7,0.1-2.5c0.2-2.8-1.4-5.3-3.1-7.5c-5-6.1-12.2-10.4-20-11.8
				c-3.6-0.7-7.8-0.6-10.3,2.1c-2.6-3-7.1-2.9-11-2.1c-11,2.2-25.7,9-27.9,21.3c-0.1,0.7-0.2,1.4-0.5,2.1c-0.3,0.7-0.7,1.4-1.1,2
				c-1.7,2.8-2.5,6-2.3,9.3c0.1,2.7,1,5.3,1.8,7.9c0.6,1.8,1.2,3.8,2.6,5.2c1.4,1.4,3.7,2,5.3,0.9c1.4-1,1.8-2.9,2.2-4.6
				c1.4-5.7,5-10.6,8.9-15C88.9,78,96.1,72,104,67.2c1.5,4.5,5.6,7.6,9.8,9.9c4.2,2.3,8.7,4.1,12.1,7.4c2.8,2.8,4.7,6.5,5.2,10.4
				c0.4,3.1,0.1,6.8,2.4,9c0.6,0.6,1.4,1,2.2,1c1.6-0.1,2.5-1.7,3.1-3.1c0.8-1.8,1.6-3.5,2.4-5.3c0.5-1.1,1-2.2,1.2-3.3
				c1.2-4.7-1.2-9.5-3.6-13.7C138.5,78.9,138.2,78.3,138.1,77.7z"/>
			<path class="st6" d="M95.7,75.9c-1.2-1-1.9-2.5-1.8-4.1c0.1-2.8,2.5-5,5.4-4.9c1,0,1.9,0.4,2.7,0.9c0.7-0.9,1.8-1.4,3-1.3
				c1.2,0.1,2.3,0.7,2.9,1.7c0.4-0.1,0.9-0.2,1.4-0.2c3.4-0.1,6.3,2.6,6.5,6c0.1,1.6-0.5,3-1.4,4.1c1.2,0.9,2.1,2.3,2.2,4
				c0.1,2.8-2.1,5.2-5,5.3c-1,0-2-0.2-2.8-0.7c-0.7,0.9-1.7,1.5-2.9,1.6c-1.4,0.1-2.7-0.7-3.3-1.8c-0.2-0.1-0.5-0.1-0.7-0.2
				c0,0,0,0-0.1,0c0,0,0,0,0,0c-0.6,0.1-1.1,0.2-1.8,0.2c-3.4-0.1-6.1-3.1-6-6.5C94,78.3,94.7,77,95.7,75.9z"/>
			<path class="st6" d="M93.4,79.8c-0.9,0.6-2,0.8-3.1,0.4c-1.9-0.6-2.9-2.7-2.2-4.5c0.2-0.7,0.6-1.2,1.2-1.6
				c-0.4-0.6-0.6-1.5-0.3-2.3c0.3-0.8,0.9-1.4,1.7-1.6c0-0.3,0-0.6,0.1-0.9c0.6-2.3,3-3.7,5.3-3.1c1,0.3,1.9,0.9,2.5,1.7
				c0.8-0.7,2-0.9,3.1-0.6c1.9,0.5,3.1,2.4,2.6,4.3c-0.2,0.7-0.5,1.3-1,1.7c0.5,0.6,0.7,1.4,0.5,2.2c-0.2,0.9-1,1.6-1.9,1.9
				c-0.1,0.1-0.2,0.3-0.3,0.4c0,0,0,0,0,0c0,0,0,0,0,0c0,0.4-0.1,0.8-0.2,1.2c-0.8,2.3-3.2,3.5-5.5,2.7
				C94.7,81.4,93.9,80.6,93.4,79.8z"/>
			<path class="st6" d="M91.8,72.6c0.7-0.7,1.7-1,2.8-0.9c1.8,0.3,3,2,2.8,3.8c-0.1,0.6-0.4,1.2-0.8,1.7c0.5,0.5,0.8,1.2,0.6,2
				c-0.1,0.8-0.6,1.4-1.3,1.8c0,0.3,0.1,0.6,0,0.9c-0.2,2.2-2.1,3.9-4.3,3.7c-1-0.1-1.9-0.5-2.5-1.2c-0.7,0.7-1.6,1.2-2.7,1.1
				c-1.8-0.1-3.2-1.7-3-3.5c0-0.6,0.3-1.2,0.6-1.7c-0.5-0.5-0.8-1.2-0.8-1.9c0.1-0.9,0.6-1.6,1.4-2c0-0.1,0.1-0.3,0.2-0.4
				c0,0,0,0,0,0c0,0,0,0,0,0c0-0.4-0.1-0.7,0-1.1c0.3-2.2,2.4-3.7,4.6-3.3C90.4,71.4,91.2,71.9,91.8,72.6z"/>
			<path class="st6" d="M111.9,74.7c-0.5-0.8-0.6-1.9-0.2-2.8c0.7-1.7,2.6-2.5,4.2-1.8c0.6,0.2,1.1,0.6,1.4,1.1
				c0.6-0.4,1.4-0.5,2.1-0.2c0.7,0.3,1.2,0.9,1.4,1.6c0.3,0,0.6,0.1,0.9,0.2c2.1,0.6,3.3,2.8,2.6,4.9c-0.3,0.9-0.9,1.7-1.7,2.2
				c0.6,0.8,0.8,1.8,0.5,2.8c-0.5,1.7-2.3,2.7-4.1,2.2c-0.6-0.2-1.1-0.5-1.5-1c-0.6,0.4-1.3,0.6-2.1,0.3c-0.9-0.3-1.4-1-1.6-1.8
				c-0.1-0.1-0.2-0.2-0.4-0.3c0,0,0,0,0,0c0,0,0,0,0,0c-0.4,0-0.7-0.1-1.1-0.2c-2-0.8-3-3.1-2.2-5.1
				C110.4,75.8,111.1,75.1,111.9,74.7z"/>
			<path class="st6" d="M100.2,72.2c-0.9-0.8-1.4-1.9-1.4-3.1c0.1-2.2,1.9-3.8,4.1-3.7c0.8,0,1.5,0.3,2.1,0.7c0.5-0.6,1.4-1,2.3-1
				c0.9,0,1.7,0.5,2.2,1.3c0.3-0.1,0.7-0.1,1-0.2c2.6-0.1,4.8,1.9,4.9,4.5c0,1.2-0.4,2.3-1.1,3.1c0.9,0.7,1.6,1.8,1.6,3
				c0.1,2.2-1.6,4-3.8,4c-0.8,0-1.5-0.2-2.1-0.5c-0.5,0.7-1.3,1.2-2.2,1.2c-1.1,0-2-0.5-2.5-1.4c-0.2,0-0.3-0.1-0.5-0.1c0,0,0,0,0,0
				c0,0,0,0,0,0c-0.4,0.1-0.9,0.2-1.3,0.2c-2.6-0.1-4.6-2.3-4.5-4.9C99,74,99.5,73,100.2,72.2z"/>
			<path class="st9" d="M149,265.6l4.6-0.5c2.9-0.3,5-3,4.6-5.9l-6.3-53.9c-0.3-2.9-3-5-5.9-4.6l-4.6,0.5c-2.9,0.3-5,3-4.6,5.9
				l6.3,53.9C143.5,263.9,146.1,266,149,265.6z"/>
			<path class="st9" d="M152.9,252.5l-6.3-0.4c-3.4-0.2-6.5,2.4-6.7,5.8l-0.8,11.4c-0.2,3.4,2.4,6.5,5.8,6.7l6.3,0.4
				c3.4,0.2,6.5-2.4,6.7-5.8l0.8-11.4C159,255.7,156.4,252.7,152.9,252.5z"/>
			<path class="st9" d="M141.4,212.9l6.6-1.5c2.6-0.6,4.2-3.2,3.6-5.8L137,150.3c-0.7-2.6-3.4-4.2-6-3.6l-6.6,1.5
				c-2.6,0.6-4.2,3.2-3.6,5.8l14.6,55.3C136,211.9,138.8,213.5,141.4,212.9z"/>
			<path class="st7" d="M124.8,175l-4.5-18.2c-1.3-5.2,1.9-10.5,7.1-11.8h0c5.2-1.3,10.5,1.9,11.8,7.1l3.8,15.5c0.1,0.5,0,1-0.4,1.3
				c-3.1,3.1-11.8,6.7-16.4,7.1C125.6,176.2,125,175.7,124.8,175z"/>
			<path class="st9" d="M53.6,211.6l-6.8-2.4c-2.7-0.9-4.1-3.7-3.1-6.2l22.1-53.3c1-2.5,4.1-3.7,6.8-2.8l6.8,2.4
				c2.7,0.9,4.1,3.7,3.1,6.2l-22.1,53.3C59.3,211.3,56.3,212.5,53.6,211.6z"/>
			<path class="st9" d="M88.4,247.8l-4.1,3.2c-2.3,1.8-5.6,1.4-7.4-0.9l-32.4-41.4c-1.8-2.3-1.4-5.6,0.9-7.4l4.1-3.2
				c2.3-1.8,5.6-1.4,7.4,0.9l32.4,41.4C91.1,242.6,90.7,246,88.4,247.8z"/>
			<path class="st9" d="M74.4,241.1l4.2-4.7c2.3-2.6,6.3-2.8,8.9-0.6l8.5,7.5c2.6,2.3,2.8,6.3,0.6,8.9l-4.2,4.7
				c-2.3,2.6-6.3,2.8-8.9,0.6l-8.5-7.5C72.4,247.7,72.1,243.7,74.4,241.1z"/>
			<g>
				<circle cx="90.7" cy="104.2" r="3.2"/>
				<g>
					<circle cx="114" cy="104.2" r="3.2"/>
				</g>
				<path class="st8" d="M102.4,117.4L102.4,117.4c-1.1,0-2.3-0.1-2.3-0.6l0.2-1.2c0-0.4,0.9-1.7,2-1.7l0,0c1.1,0,2.1,1.3,2.1,1.7
					l0.2,1.2C104.7,117.3,103.6,117.4,102.4,117.4z"/>
				<g>
					<path class="st6" d="M86.4,98.3c-0.2,0-0.4,0-0.6-0.1c-0.3-0.2-0.3-0.7-0.1-0.9c2-2.1,3.1-2.5,6-2.9c0.4-0.1,0.7,0.3,0.7,0.6
						c0,0.4-0.3,0.7-0.6,0.7c-2.5,0.5-3.3,0.7-5.1,2.4C86.6,98.1,86.5,98.2,86.4,98.3z"/>
				</g>
				<g>
					<path class="st6" d="M118.3,98.3c0.2,0,0.4,0,0.6-0.1c0.3-0.2,0.3-0.7,0.1-0.9c-1.9-2.1-3.1-2.5-6-3c-0.4-0.1-0.7,0.2-0.7,0.6
						c0,0.4,0.3,0.7,0.6,0.7c2.5,0.5,3.3,0.7,5,2.5C118.1,98.2,118.2,98.2,118.3,98.3z"/>
				</g>
				<path class="st12" d="M104.8,122.4c-2.3-0.2-4.5,0-6.7,0.7c-1.3,0.4-0.7,2.4,0.6,2c2-0.6,4-0.8,6.1-0.6
					C106.1,124.6,106.1,122.6,104.8,122.4z"/>
			</g>
			<path class="st7" d="M75.7,175.7l7.4-17.3c2.1-4.9-0.2-10.7-5.1-12.8h0c-4.9-2.1-10.7,0.2-12.8,5.1l-6.3,14.7
				c-0.2,0.5-0.1,1,0.1,1.4c2.5,3.5,10.6,8.5,15,9.6C74.7,176.7,75.4,176.4,75.7,175.7z"/>
			<g>
				<path class="st2" d="M217.5,415l-2.6,0c-8,0-12.6-6.6-12.6-14.5l-1.6-78.4c0-8,6.6-14.5,14.5-14.5l2.6,0c8,0,14.5,6.6,14.5,14.5
					l-2.1,78.4C230.2,408.5,225.5,415,217.5,415z"/>
				<path class="st2" d="M179.2,415.1l-2.6,0c-8,0-12.6-6.6-12.6-14.5l-1.6-78.4c0-8,6.6-14.5,14.5-14.5l2.6,0
					c8,0,14.5,6.6,14.5,14.5l-2.1,78.4C191.8,408.6,187.1,415.1,179.2,415.1z"/>
				<path class="st2" d="M178,334.1L178,334.1c-8.7,0-15.8-6.5-15.8-14.5l-2-78.4c0-8,9.1-14.5,17.8-14.5h0
					c8.7,0,17.8,6.5,17.8,14.5l-2,78.4C193.8,327.6,186.7,334.1,178,334.1z"/>
				<path class="st2" d="M216.3,333.8L216.3,333.8c-8.7,0-15.8-6.5-15.8-14.5l-2-78.4c0-8,9.1-14.5,17.8-14.5h0
					c8.7,0,17.8,6.5,17.8,14.5l-2,78.4C232.1,327.3,225,333.8,216.3,333.8z"/>
				<path class="st13" d="M255,221.8l-2.2,0.7c-5.4,1.7-11.2-1.9-12.8-8l-17.9-62.2c-1.6-6.1,3.2-12.9,8.6-14.6l2.2-0.7
					c5.4-1.7,12.8,1.4,14.4,7.5l14.8,63.2C263.6,213.8,260.5,220.1,255,221.8z"/>
				<g>
					<path class="st13" d="M255.7,278.7h-8.8c-3.4,0-6.2-2.8-6.2-6.2v-65.2c0-3.4,2.8-6.2,6.2-6.2h8.8c3.4,0,6.2,2.8,6.2,6.2v65.2
						C261.9,275.9,259.1,278.7,255.7,278.7z"/>
					<path class="st13" d="M255.9,283.6h-11.1c-3.8,0-6.8-3.1-6.8-6.8v-11.9c0-3.8,3.1-6.8,6.8-6.8h11.1c3.8,0,6.8,3.1,6.8,6.8v11.9
						C262.7,280.5,259.7,283.6,255.9,283.6z"/>
				</g>
				<path class="st14" d="M257.7,185.1l-9.1-39.6c-1.7-6.6-9.5-10.1-15.3-8.3l-3.9,1.1c-5.8,1.8-9.7,8.1-8,14.8l11,38.2
					C242,190.5,250.5,188.5,257.7,185.1z"/>
				<path class="st13" d="M139.2,221.6l2.2,0.7c5.4,1.7,11.2-1.9,12.8-8l17.9-62.2c1.6-6.1-3.2-12.9-8.6-14.6l-2.2-0.7
					c-5.4-1.7-12.8,1.4-14.4,7.5l-14.8,63.2C130.6,213.5,133.7,219.9,139.2,221.6z"/>
				<g>
					<path class="st13" d="M138.9,279.8h8.8c3.4,0,6.2-2.8,6.2-6.2v-65.2c0-3.4-2.8-6.2-6.2-6.2h-8.8c-3.4,0-6.2,2.8-6.2,6.2v65.2
						C132.6,277,135.4,279.8,138.9,279.8z"/>
					<path class="st13" d="M138.6,284.7h11.1c3.8,0,6.8-3.1,6.8-6.8V266c0-3.8-3.1-6.8-6.8-6.8h-11.1c-3.8,0-6.8,3.1-6.8,6.8v11.9
						C131.8,281.6,134.9,284.7,138.6,284.7z"/>
				</g>
				<path class="st14" d="M136.5,184.9l9.1-39.6c1.7-6.6,9.5-10.1,15.3-8.3l3.9,1.1c5.8,1.8,9.7,8.1,8,14.8l-11,38.2
					C152.8,190.8,144.4,188.6,136.5,184.9z"/>
				<g>
					<path id="XMLID_15_" class="st14" d="M239.6,149.8c1.4-3.7,2.5-13.3-3.2-13.3l-38-5.5H196l-38,5.5c-5.8,0-4.7,9.6-3.2,13.3
						c2.2,5.8,3.1,7.1,3.5,12.2c0,0.1,0,0.2,0,0.2l0.1,76.1c0,1.6,1.3,2.9,2.9,2.9h71.8c1.6,0,2.9-1.3,2.9-2.9l0.1-76.1
						c0-0.1,0-0.2,0-0.2C236.4,156.9,237.3,155.6,239.6,149.8z"/>
					<path class="st2" d="M160.3,243.8c0,9.7,8.6,17.6,19.2,17.6h0.2h34.9h0.2c10.6,0,19.2-7.9,19.2-17.6l0.1-2.6h-73.9L160.3,243.8
						z"/>
				</g>
				<g>
					<path class="st15" d="M197.3,159L197.3,159l-11.7-24.1c-0.4-0.6-0.6-1.3-0.6-2.1v-15c0-2.4,2-4.4,4.4-4.4h15.7
						c2.4,0,4.4,2,4.4,4.4v15c0,0.7-0.2,1.4-0.6,2.1L197.3,159z"/>
				</g>
				<g>
					<path class="st13" d="M235.2,89.1c-0.1,0-0.1,0-0.2,0c0.1-1.2,0.1-2.4,0.1-3.6c0-24.7-16.9-40.5-37.9-40.5
						c-21,0-38.2,15.8-38.2,40.5c0,1.2,0,2.4,0.1,3.6c-7.5,0.4-7.4,12,0.3,12c0.7,0,1.3-0.1,1.9-0.3c3.9,12.4,8.5,22.4,19.1,26.7
						c6.8,2.7,10.5,2.6,16.5,2.6c6.1,0,12.2-0.7,16.8-2.6c10.7-4.3,15.3-14.4,19.2-26.9c0.7,0.3,1.5,0.4,2.3,0.4
						C243,101.2,243,89.1,235.2,89.1z"/>
					<path class="st16" d="M234.7,97.4c1.2,0.2,2.2-0.6,2.4-1.8c0.2-1.1-0.6-2.2-1.8-2.4"/>
					<path class="st16" d="M159.8,97.2c-1.2,0.2-2.2-0.6-2.4-1.8c-0.2-1.1,0.6-2.2,1.8-2.4"/>
				</g>
				<polyline class="st17" points="197.4,158.9 181.9,154.8 184.8,133.4 				"/>
				<polyline class="st17" points="197.4,159 212.9,154.9 210,133.5 				"/>
				<g>
					<g>
						<path class="st18" d="M191.9,399c-13.6-0.1-15.3,0.1-28.1-0.6c0,0-10.8,6.9-10.9,7c-2.7,1.6-5.6,3.3-7.3,5.8
							c-3,4.5-1.3,9.2,3,12.1c4.6,3.1,9.7,2.2,14.8,0.9c0,0,18.4-4.8,18.4-4.8C189.5,416.7,195.1,413.3,191.9,399z"/>
						<g>
							<path d="M155.8,402.4c4.9-0.2,9.4,2.6,11.5,7c1,2.1-2.2,3.6-3.2,1.6c-1.6-3.3-4.9-5.1-8.6-5
								C153.2,406.1,153.5,402.5,155.8,402.4L155.8,402.4z"/>
						</g>
						<g>
							<path d="M160.9,398.7c4.9,0,9.2,3.1,11.2,7.6c0.9,2.1-2.4,3.5-3.3,1.4c-1.5-3.4-4.7-5.4-8.3-5.4
								C158.1,402.3,158.6,398.7,160.9,398.7L160.9,398.7z"/>
						</g>
					</g>
					<path class="st19" d="M163,391.9l29.5,0.1c0.3,0,0.6,0.3,0.6,0.6l0,5.8c0,0.3-0.3,0.6-0.6,0.6l-29.5-0.1
						c-0.3,0-0.6-0.3-0.6-0.6l0-5.8C162.4,392.2,162.7,391.9,163,391.9z"/>
				</g>
				<g>
					<path class="st18" d="M202.2,398.9c13.6,0,15.3,0.2,28.1-0.4c0,0,10.8,7,10.8,7c2.6,1.6,5.6,3.3,7.2,5.8
						c2.9,4.5,1.2,9.2-3.1,12.1c-4.6,3-9.7,2.2-14.8,0.8c0,0-18.4-4.9-18.4-4.9C204.5,416.6,198.9,413.2,202.2,398.9z"/>
					<path d="M238.3,402.5c-4.9-0.2-9.4,2.6-11.6,6.9c-1,2.1,2.2,3.7,3.2,1.6c1.6-3.3,4.9-5.1,8.6-4.9
						C240.9,406.2,240.6,402.6,238.3,402.5L238.3,402.5z"/>
					<path d="M233.2,398.8c-4.9,0-9.3,3-11.2,7.5c-0.9,2.1,2.4,3.5,3.3,1.4c1.5-3.4,4.7-5.3,8.3-5.4
						C236,402.4,235.5,398.8,233.2,398.8L233.2,398.8z"/>
					<path class="st19" d="M231.1,392l-29.5-0.1c-0.3,0-0.6,0.3-0.6,0.6l0,5.8c0,0.3,0.3,0.6,0.6,0.6l29.5,0.1
						c0.3,0,0.6-0.3,0.6-0.6l0-5.8C231.7,392.2,231.4,392,231.1,392z"/>
				</g>
				<circle class="st20" cx="213" cy="89.7" r="3.8"/>
				<g>
					<circle class="st20" cx="181.4" cy="89.7" r="3.8"/>
				</g>
				<g>
					<path class="st15" d="M197.1,102.9L197.1,102.9c-1.9,0-3.8-0.2-3.8-0.7l0.3-2.4c0-0.6,1.5-1,3.4-1l0,0c1.9,0,3.4,0.5,3.4,1
						l0.4,2.4C200.9,102.7,199,102.9,197.1,102.9z"/>
				</g>
				<g>
					<path class="st21" d="M198.2,111c2,0,4,0.5,5.6,1.7c0.5,0.4,0.6,1.2,0.2,1.7c-0.4,0.5-1.2,0.6-1.7,0.2c-2.9-2.2-8.3-1.1-10,0.8
						c-0.5,0.5-1.2,0.5-1.7,0c-0.5-0.5-0.5-1.2,0-1.7C192,112.2,195.1,111,198.2,111z"/>
				</g>
				<g>
					<path class="st6" d="M176.5,79.8c-0.6,0-1.1-0.3-1.4-0.8c-0.4-0.8-0.2-1.7,0.6-2.2c2.5-1.4,5.4-1.9,8.2-1.4
						c0.9,0.2,1.4,1,1.3,1.9c-0.2,0.9-1,1.5-1.9,1.3c-2-0.4-4.2,0-6,1C177,79.7,176.8,79.8,176.5,79.8z"/>
				</g>
				<g>
					<path class="st6" d="M217.5,79.8c0.6,0,1.1-0.3,1.4-0.8c0.4-0.8,0.2-1.7-0.6-2.2c-2.5-1.4-5.4-1.9-8.2-1.4
						c-0.9,0.2-1.4,1-1.3,1.9c0.2,0.9,1,1.5,1.9,1.3c2-0.4,4.2,0,6,1C216.9,79.7,217.2,79.8,217.5,79.8z"/>
				</g>
				<path class="st6" d="M231.7,56.5c4.5-5.1,1.7-12-10.7-11.5c2.8-3.3,1.1-11.4-31.6-5.4C170.9,43,159.1,52,160.9,56.8
					c0.2,0.6,0.6,1,1.2,1.4c-1.6,0.4-2.9,1.6-3.6,3.1c-2.5,5-3.8,21.8-1.8,26.9c1.7,4.4,5.9,2.3,6.1-1.6c0.2-3.8,1.9-12.1,3.5-17.7
					c0.6-2.1,2.8-3.2,4.8-2.4c7.2,2.6,18.4,4.2,31.1,4.2c8.4,0,16.1-0.7,22.5-2c1.9-0.4,3.8,0.8,4.3,2.7c1.4,5.3,2.7,12,2.8,15.2
					c0.2,3.9,4.3,6,6.1,1.6c1.7-4.2,1-16.6-0.7-23.5C239.6,62.4,239.8,57,231.7,56.5z"/>
				<path class="st22" d="M221.4,120.8c-2.4-8.9-9.2-15.7-23.8-15.7c-15.2,0-22,7.4-24.2,17c-0.1,0.4-0.1,0.7-0.1,1.1
					c2,1.8,4.3,3.2,7,4.3c6.8,2.7,10.5,2.6,16.5,2.6c6.1,0,12.2-0.7,16.8-2.6c3.1-1.2,5.6-3,7.8-5.1
					C221.6,122,221.6,121.4,221.4,120.8z M197.2,120c-7.1,0-13.8-1.6-12.6-5.4c1.1-3.6,5.7-7.2,12.8-7.2s11.5,3.2,12.8,7.2
					C211.3,118.4,204.2,120,197.2,120z"/>
			</g>
		</g>
	</g>
</g>
</svg>
