<?xml version="1.0" encoding="utf-8"?>
<!-- Generator: Adobe Illustrator 22.1.0, SVG Export Plug-In . SVG Version: 6.00 Build 0)  -->
<svg version="1.1" id="Layer_1" xmlns="http://www.w3.org/2000/svg" xmlns:xlink="http://www.w3.org/1999/xlink" x="0px" y="0px"
	 viewBox="0 0 306 306" style="enable-background:new 0 0 306 306;" xml:space="preserve">
<style type="text/css">
	.st0{clip-path:url(#SVGID_2_);}
	.st1{fill:#DEFCF2;}
	.st2{fill:#B7B3A9;}
	.st3{fill:#FFB624;}
	.st4{fill:#9E9A8D;}
	.st5{fill:#C4C6C5;}
	.st6{fill:#E5DCBE;}
	.st7{fill:#F7C0BC;}
	.st8{fill:#FB7B76;}
	.st9{fill:#EDE9D9;}
	.st10{fill:#F09372;}
	.st11{fill:#D1D4D1;}
	.st12{fill:#ECF0F1;}
	.st13{fill:#F3D55B;}
	.st14{fill:#E64C3C;}
	.st15{fill:#8697CB;}
	.st16{fill:#F0C419;}
	.st17{fill:#B9D0FC;}
</style>
<g>
	<defs>
		<circle id="SVGID_1_" cx="153" cy="153" r="153"/>
	</defs>
	<clipPath id="SVGID_2_">
		<use xlink:href="#SVGID_1_"  style="overflow:visible;"/>
	</clipPath>
	<g class="st0">
		<circle class="st1" cx="153" cy="153" r="153"/>
		<path class="st2" d="M196.7,235.3l-0.8-3c-5.4-21.7-5.2-50.4,0.5-72c1.4-5.2-1.7-10.4-6.8-11.8c-0.8-0.2-1.6-0.3-2.5-0.3h-3v-9
			h-54.1v9h-2.7c-5.3,0-9.6,4.3-9.6,9.7c0,0.6,0.1,1.3,0.2,1.9l1.7,8.5c3.3,16.6,3.4,39.6,0.3,56.2l-2.2,11.5
			c-1,5.2,2.5,10.3,7.7,11.3c0.6,0.1,1.2,0.2,1.8,0.2h60.1c5.3,0,9.6-4.3,9.6-9.6C197,236.8,196.9,236.1,196.7,235.3z"/>
		<path class="st3" d="M157.1,115.1h21c0-4.3-3.2-7.4-6.3-9.3c-4.6-2.9-6.6-11.6-4.6-16.7l0.1-0.2c2.7-6.8-1.5-14.9-8.8-15.7
			c-0.5-0.1-0.9-0.1-1.4-0.1c-0.5,0-0.9,0-1.4,0.1c-7.3,0.8-11.6,8.9-8.8,15.7l0.1,0.2c2,5.1,0,13.8-4.6,16.7
			c-3.1,1.9-6.3,5-6.3,9.3L157.1,115.1z"/>
		<path class="st2" d="M131.1,115.1h52.1c0.6,0,1,0.4,1,1v11l0,0h-54.1l0,0v-11C130.1,115.6,130.5,115.1,131.1,115.1z"/>
		<path class="st4" d="M187.1,139.1h-60.1c-1.7,0-3-1.3-3-3c0-0.1,0-0.2,0-0.3v-5.5c-0.1-1.7,1.2-3.1,2.9-3.3c0,0,0.1,0,0.1,0h60.1
			c1.7,0,3,1.3,3,3c0,0.1,0,0.2,0,0.3v5.5c0.1,1.7-1.1,3.1-2.7,3.2C187.3,139.1,187.2,139.2,187.1,139.1z"/>
		<path class="st3" d="M194.2,170.4c-9.9,9.9-27,10.3-36.9,0.3s-27.2-9.6-37.1,0.4v0.1c2.8,16.3,2.7,37.5-0.2,53.1l-2.2,11.5
			c-1,5.2,2.5,10.3,7.7,11.3c0.6,0.1,1.2,0.2,1.8,0.2h60.1c5.3,0,9.6-4.3,9.7-9.6c0-0.8-0.1-1.6-0.3-2.4l-0.8-3
			c-4.6-18.4-5.1-41.9-1.7-61.8L194.2,170.4z"/>
		<path class="st5" d="M225.8,191.3c-1.6,0-2.9-1.3-2.9-2.9v-20.6c0.1-1.6,1.5-2.9,3.1-2.8c1.5,0.1,2.7,1.3,2.8,2.8v20.6
			C228.7,189.9,227.4,191.3,225.8,191.3z"/>
		<ellipse class="st6" cx="225.8" cy="138.2" rx="17.7" ry="29.5"/>
		<path class="st7" d="M225.8,188.3L225.8,188.3c4.9,0,8.8,4,8.8,8.8v41.3c0,4.9-4,8.8-8.8,8.8l0,0c-4.9,0-8.8-4-8.8-8.8v-41.3
			C216.9,192.3,220.9,188.3,225.8,188.3z"/>
		<rect x="216.9" y="223.7" class="st8" width="17.7" height="11.8"/>
		<path class="st9" d="M259.2,153h78c2.9,0,5.2,2.3,5.2,5.2l0,0V243c0,2.3-1.9,4.2-4.2,4.2l0,0h-79c-2.9,0-5.2-2.3-5.2-5.2l0,0
			v-83.8C254,155.3,256.4,153,259.2,153z"/>
		<circle class="st10" cx="298.2" cy="200.1" r="32.4"/>
		<path class="st11" d="M267.9,126.4h60.5c1.2,0,2.2,1,2.2,2.2V153l0,0h-64.8l0,0v-24.4C265.8,127.4,266.8,126.5,267.9,126.4z"/>
		<rect x="277.6" y="144.1" class="st12" width="5.9" height="8.8"/>
		<rect x="289.4" y="144.1" class="st12" width="5.9" height="8.8"/>
		<rect x="301.2" y="144.1" class="st12" width="5.9" height="8.8"/>
		<rect x="313" y="144.1" class="st12" width="5.9" height="8.8"/>
		<path class="st13" d="M298.2,197.2c-1.6,0-2.9-1.2-2.9-2.8c0-1-0.4-9.8,4.3-14.7c1.9-2,4.7-3.2,7.5-3.1c1.6-0.1,3,1.1,3.1,2.8
			s-1.1,3-2.8,3.1c-0.1,0-0.2,0-0.3,0c-1.2-0.1-2.4,0.4-3.2,1.3c-2.5,2.6-2.8,8.5-2.7,10.3c0.1,1.6-1.2,3-2.8,3.1c0,0,0,0,0,0
			L298.2,197.2z"/>
		<path class="st14" d="M305.6,190.2c-3,0.1-5.7,1.6-7.4,4c-1.7-2.4-4.4-3.9-7.4-4c-5.7,0-10.3,5.9-10.3,13.3s4.6,13.3,10.3,13.3
			c2.9-0.1,5.7-1.6,7.4-4c1.7,2.4,4.4,3.9,7.4,4c5.7,0,10.3-5.9,10.3-13.3S311.3,190.2,305.6,190.2z"/>
		<path class="st15" d="M-17.6,135.3h94.3l0,0v101.8c0,2.3-1.9,4.3-4.3,4.3l0,0h-85.8c-2.3,0-4.3-1.9-4.3-4.3l0,0L-17.6,135.3
			L-17.6,135.3z"/>
		<path class="st16" d="M76.7,211.9h4.1c9.1,0,16.5-7.4,16.5-16.5l0,0v-20.1c0-9.1-7.4-16.5-16.5-16.5l0,0h-4.1v-11.8h4.1
			c15.6,0,28.3,12.7,28.3,28.3v20.1c0,15.6-12.7,28.3-28.3,28.3h-4.1V211.9z"/>
		<path class="st16" d="M-17.6,211.9h-4.1c-9.1,0-16.5-7.4-16.5-16.5l0,0v-20.1c0-9.1,7.4-16.5,16.5-16.5c0,0,0,0,0,0h4.1v-11.8
			h-4.1c-15.6,0-28.3,12.7-28.3,28.3v20.1c0,15.6,12.7,28.3,28.3,28.3h4.1L-17.6,211.9z"/>
		<path class="st17" d="M41.3,101.9V100c0-3.3-2.6-6-5.9-6c0,0,0,0-0.1,0H23.7c-3.3,0-5.9,2.7-5.9,5.9c0,0,0,0,0,0.1v1.9
			c0,7.1-5.7,12.8-12.8,12.8h-18.2c-2.4,0-4.4,2-4.4,4.4l0,0v16.2h94.3v-16.2c0-2.4-2-4.4-4.4-4.4c0,0,0,0,0,0H54.1
			C47,114.7,41.3,108.9,41.3,101.9z"/>
		<path class="st17" d="M30.2,147.5l10.9,22.1c0.1,0.2,0.3,0.4,0.6,0.4l24.4,3.5c0.4,0.1,0.7,0.5,0.7,0.9c0,0.2-0.1,0.3-0.2,0.5
			l-17.6,17.2c-0.2,0.2-0.3,0.4-0.2,0.7l4.2,24.2c0.1,0.4-0.2,0.8-0.6,0.9c-0.2,0-0.4,0-0.5-0.1l-21.8-11.4c-0.2-0.1-0.5-0.1-0.7,0
			L7.4,217.8c-0.4,0.2-0.9,0.1-1.1-0.3c-0.1-0.2-0.1-0.3-0.1-0.5l4.2-24.3c0-0.3,0-0.5-0.2-0.7l-17.6-17.2c-0.3-0.3-0.3-0.8,0-1.1
			c0.1-0.1,0.3-0.2,0.5-0.2l24.3-3.5c0.3,0,0.5-0.2,0.6-0.4l10.9-22.1c0.2-0.4,0.6-0.6,1-0.4C30,147.2,30.1,147.3,30.2,147.5z"/>
	</g>
</g>
</svg>
