<?xml version="1.0" encoding="utf-8"?>
<!-- Generator: Adobe Illustrator 22.1.0, SVG Export Plug-In . SVG Version: 6.00 Build 0)  -->
<svg version="1.1" id="Layer_1" xmlns="http://www.w3.org/2000/svg" xmlns:xlink="http://www.w3.org/1999/xlink" x="0px" y="0px"
	 viewBox="0 0 306 306" style="enable-background:new 0 0 306 306;" xml:space="preserve">
<style type="text/css">
	.st0{fill:#DEFCF2;}
	.st1{fill:#EEC6B0;}
	.st2{fill:#00A69C;}
	.st3{fill:#FFFFFF;stroke:#FFFFFF;stroke-width:1.0693;stroke-miterlimit:10;}
	.st4{fill:#E75B5B;}
	.st5{fill:#EDEDED;}
	.st6{opacity:0.9;fill:#C8C6C7;}
	.st7{fill:#7B1D1D;}
	.st8{fill:#A6A7AA;}
	.st9{fill:#E2B49C;}
	.st10{fill:#CEA18A;stroke:#CEA18A;stroke-width:0.947;stroke-linecap:round;stroke-linejoin:round;stroke-miterlimit:10;}
	.st11{fill:#954F22;}
	.st12{fill:#402312;}
	.st13{fill:#C96B4F;}
	.st14{fill:#BCE1D3;}
	.st15{opacity:0.5;fill:#954F22;}
	.st16{fill:#272361;stroke:#272361;stroke-miterlimit:10;}
	.st17{fill:#F2F2F2;}
	.st18{fill:#808080;}
</style>
<g>
	<path class="st0" d="M114.4,274.1l14.9-48.2c0.6-1.7,1.4-3.2,2.5-4.5c1.1-1.7,2.7-3.1,4.7-4.3c4.7-3.1,10.8-4.5,16.5-4l27.1-5.3
		c1.8-3,4.3-5.6,7.1-7.6c-14.4-7.8-25.6-21.3-31.1-37.8c-1,0.3-2,0.5-3.1,0.5c-11.8,0-12.9-15.2-3.3-18c-1.6-1.5-2-4-2.2-6.3
		c-1.1-12.1-1.8-25.3,4.8-35.3c0.3-0.4,0.6-0.9,0.9-1.3c0.6-0.8,1.2-1.6,1.3-2.6c0.1-0.7-0.1-1.4-0.3-2.1
		c-1.9-7.4,1.4-15.5,6.9-20.7c5.5-5.3,13-8.1,20.4-9.8c13.8-3.1,28.2-2.7,42.3-1.7c15.8,1.1,32.6,3.3,44.5,13.7
		c17.3,15,18,40.1,15.5,61.1c-0.2,1.8-0.6,3.7-1.7,4.9c9.6,2.8,8.6,18.1-3.3,18.1c-1.5,0-2.7-0.3-3.9-0.7
		c-5,14.9-14.6,27.4-26.9,35.4c-0.1,0.1-0.2,0.2-0.3,0.2c-0.3,0.2-0.5,0.3-0.8,0.5c-0.3,0.2-0.6,0.4-1,0.6c-0.5,0.3-1.1,0.6-1.6,0.9
		c3.1,2,5.7,4.8,7.6,7.9l29.6,5.8c3.8-0.3,7.7,0.3,11.2,1.6c8.5-19,13.2-40,13.2-62.2C306,68.5,237.5,0,153,0C68.5,0,0,68.5,0,153
		c0,69.8,46.7,128.7,110.6,147l6.3-24C116.1,275.4,115.2,274.8,114.4,274.1z M85.8,182.5c-25.8,4.6-51-11.5-57.6-36.8
		C20.6,116.9,39.3,87.9,68.7,83c25.9-4.3,51.1,12.3,57.3,37.8c2.3,9.4,1.8,18.8-0.9,27.3l15.5,22c1.5,2.1-0.3,4.9-2.8,4.5l-27.6-3.9
		C103.5,176.7,95.2,180.8,85.8,182.5z"/>
	<path class="st1" d="M144.9,288c-10.1-1.7-19.5-5.7-28-12l-6.3,24c11.1,3.2,22.7,5.2,34.7,5.8L144.9,288z"/>
	<path class="st1" d="M136.5,217.1c-2,1.1-3.6,2.6-4.7,4.3C133.1,219.7,134.7,218.3,136.5,217.1z"/>
	<path class="st2" d="M255.6,243.5v1.2c0.2,0,0.3,0.1,0.5,0.1L255.6,243.5z"/>
	<path class="st2" d="M250.7,253.2c-7.5,0-13.6,6.1-13.6,13.6v12.9l1.1,0.3c0,0,0.1,0,0.1,0c8.6-5.8,16.6-12.4,23.8-19.8l-0.6-1.5
		C259.1,255.4,255.1,253.2,250.7,253.2z"/>
	<g>
		<path class="st2" d="M236.3,205.8v3.3c0,11.2-20.5,34.8-20.3,35.6l0,0c-0.2-0.7-20.3-24.3-20.3-35.6V206c-5.8,2.3-10,8-10,14.6
			l-0.7,21.6c6.2,2.2,10.7,8.1,10.7,15.1c0,6.4-3.7,11.9-9.2,14.4l5.5,1.6l0.7-2.5c0.6-2.1,2.8-3.3,4.8-2.7L228,277v-10.2
			c0-11.1,8-20.3,18.5-22.3v-24C246.5,213.8,242.2,208.1,236.3,205.8z"/>
		<path class="st2" d="M153,213.1c-5.7-0.5-11.8,0.9-16.5,4c-1.8,1.2-3.4,2.6-4.7,4.3c-1.1,1.4-1.9,2.9-2.5,4.5l-14.9,48.2
			c0.8,0.7,1.7,1.3,2.6,2c8.5,6.3,17.8,10.2,28,12l0.4,17.8c2,0.1,4.1,0.2,6.1,0.2c0.5,0,1,0,1.6,0c2.5,0,5.1-0.1,7.6-0.2l10-34.4
			c0.1-0.3,0.2-0.5,0.3-0.7c-0.9-0.6-1.7-1.2-2.4-2c-0.7-0.7-1.3-1.5-1.9-2.3c-1.8-2.6-2.8-5.7-2.8-9c0-7.5,5.2-13.8,12.1-15.5
			l0.5-14.2c-1-1.8-2.4-3.6-4.1-5.2c1.6,1.6,3,3.4,4.1,5.2l0-0.4c0,0,0,0,0,0l0.2-6.7c0-4.6,1.3-9,3.6-12.7L153,213.1
			C153,213.1,153,213.1,153,213.1z M165.8,217.1c-1-0.5-2-0.9-3-1.3C163.8,216.1,164.8,216.5,165.8,217.1z M168.6,219.4
			c-2.3-1.6-4.7-2.8-7-3.5C163.9,216.6,166.3,217.8,168.6,219.4z"/>
	</g>
	<path class="st2" d="M281.6,213.6l0.2,0c3.6-0.1,7.5,0.5,11,1.7c0,0,0-0.1,0.1-0.1C289.3,213.9,285.4,213.3,281.6,213.6z"/>
	<g>
		<path class="st3" d="M150.5,176.7l-17.2-24.5c3-9.5,3.6-19.9,1-30.3c-6.9-28.4-34.8-46.8-63.6-42c-32.6,5.5-53.4,37.6-45,69.6
			c7.4,28.1,35.4,46,64,40.9c10.5-1.9,19.7-6.5,27.1-13l30.6,4.3C150.2,182.1,152.1,179,150.5,176.7z"/>
		<g>
			<g>
				<g>
					<path class="st4" d="M64.9,110.9h29.7c3,0,5.4,2.4,5.4,5.4v63.6H59.5v-63.6C59.5,113.3,61.9,110.9,64.9,110.9z"/>
					<g>
						<path class="st4" d="M73.4,96h12.9c1.6,0,2.9-1.3,2.9-2.9v-3.4c0-1.6-1.3-2.9-2.9-2.9H73.4c-1.6,0-2.9,1.3-2.9,2.9V93
							C70.5,94.7,71.8,96,73.4,96z"/>
						<rect x="72.2" y="93.5" class="st4" width="15.2" height="23.3"/>
					</g>
				</g>
				<rect x="59.5" y="129.6" class="st5" width="40.6" height="42.1"/>
			</g>
			<polygon class="st6" points="94.3,85.8 65.3,85.8 63.4,111.5 96.2,111.5 			"/>
		</g>
	</g>
	<path class="st2" d="M262.1,260.2c0.1-0.1,0.2-0.2,0.2-0.2c-0.3-0.4-0.5-0.9-0.8-1.3L262.1,260.2z"/>
	<path class="st2" d="M281.8,213.6l-0.2,0c-0.4,0-0.8,0.1-1.2,0.1C280.8,213.7,281.3,213.6,281.8,213.6z"/>
	<path class="st2" d="M281.8,213.6c-0.5,0-1,0-1.4,0.1c0.4,0,0.8-0.1,1.2-0.1l-29.6-5.8c2.2,3.7,3.6,8.1,3.6,12.7v9v3v5.3l2.4,6.3
		l-2.4-6.3v5.6l0.5,1.3c0.8,0.2,1.6,0.4,2.4,0.7l0,0c4.1,1.5,7.6,4.2,10.2,7.6c9.1-10.5,16.8-22.3,22.8-35c0.4-0.9,0.9-1.8,1.3-2.7
		C289.3,214.1,285.4,213.5,281.8,213.6z"/>
	<path class="st7" d="M258.5,245.5c-0.8-0.3-1.6-0.5-2.4-0.7c-0.2,0-0.3-0.1-0.5-0.1v-1.2v0v-5.6v-5.3c-0.3,0.9-0.5,1.8-0.6,2.7
		c0.2-0.9,0.4-1.8,0.6-2.7v-3c0,0,0,0,0,0v-9c0-4.7-1.3-9-3.6-12.7c-1.9-3.2-4.5-5.9-7.6-7.9c-0.1,0.1-0.3,0.2-0.4,0.2
		c-0.3,0.2-0.6,0.3-0.8,0.5c-0.8,0.4-1.7,0.9-2.5,1.3c-0.2,0.1-0.3,0.1-0.4,0.2c-1,0.5-2,0.9-3.1,1.3c-0.1,0-0.2,0.1-0.3,0.1
		c-0.1,0.1-0.3,0.1-0.6,0.2v1.1v1.1c6,2.2,10.2,8,10.2,14.7v24c-10.5,2-18.5,11.2-18.5,22.3V277l9.1,2.6v-12.9
		c0-7.5,6.1-13.6,13.6-13.6c4.5,0,8.4,2.2,10.9,5.5c0.3,0.4,0.6,0.8,0.8,1.3c0.4-0.4,0.8-0.8,1.1-1.2c1.8-1.9,3.5-3.7,5.2-5.7
		C266.1,249.7,262.6,247,258.5,245.5z M254.8,235.7c-0.1-0.5-0.2-1-0.2-1.5C254.7,234.7,254.7,235.2,254.8,235.7
		C254.8,235.7,254.8,235.7,254.8,235.7z"/>
	<path class="st8" d="M184.9,242.2l-0.3,7.6c2.4,1.6,4.1,4.3,4.1,7.4c0,4.8-3.9,8.8-8.8,8.8c-3.8,0-7-2.4-8.2-5.8
		c-0.3-0.9-0.5-1.9-0.5-3c0-3.2,1.8-6.1,4.4-7.6l0.3-7.8l0,0c-7,1.7-12.1,8-12.1,15.5c0,3.4,1,6.5,2.8,9c0.6,0.8,1.2,1.6,1.9,2.3
		c0.7,0.7,1.6,1.4,2.4,2c0.9-1.7,2.9-2.6,4.8-2l10.9,3.2c5.4-2.6,9.2-8.1,9.2-14.4C195.7,250.3,191.2,244.4,184.9,242.2z"/>
	<polygon class="st7" points="175.9,241.8 175.8,241.8 175.8,241.9 	"/>
	<path class="st7" d="M195.6,204.8v-0.9c-0.8-0.3-1.4-0.5-1.6-0.6c-2.3-0.9-4.5-2-6.7-3.1c-2.9,2-5.3,4.6-7.1,7.6l13.6-2.7
		l-13.6,2.7c-2.3,3.7-3.6,8.1-3.6,12.7l-0.2,6.7l0,0.4l-0.5,14.2c0,0,0,0,0,0l0,0l-0.3,7.8c0.1-0.1,0.3-0.1,0.4-0.2l-0.4,1
		c0-0.2,0-0.3,0-0.5l0-0.2c-2.6,1.5-4.4,4.3-4.4,7.6c0,1.1,0.2,2.1,0.5,3c1.2,3.4,4.4,5.8,8.2,5.8c4.8,0,8.8-3.9,8.8-8.8
		c0-3.1-1.6-5.8-4.1-7.4l0.3-7.6l0.7-21.6c0-6.6,4.1-12.3,10-14.6V204.8L195.6,204.8z"/>
	<path class="st7" d="M175.6,250.4l0.4-1c-0.1,0.1-0.3,0.1-0.4,0.2l0,0.2C175.6,250,175.6,250.2,175.6,250.4z"/>
	<path class="st9" d="M234.2,204.3c-0.6,0.2-1.2,0.4-1.9,0.6c-4.2,1.1-10.6,2.5-17,2.5c-5.9,0-11.8-1.2-15.9-2.3
		c-0.8-0.2-1.5-0.4-2.1-0.6c-0.6-0.2-1.2-0.4-1.7-0.5v0.9v1.2v3.1c0,11.2,20.2,34.8,20.3,35.6l0,0c-0.2-0.7,20.3-24.3,20.3-35.6
		v-3.3v-1.1v-1.1C235.8,203.8,235.1,204.1,234.2,204.3z"/>
	<path class="st1" d="M226.7,177c2.4,0,4.6,0.9,6.3,2.4c-2.8-4-8.4-6.8-16.2-6.8c-6.4,0-11.3,2.1-14.4,4.9c0.9-0.3,1.9-0.4,2.9-0.4
		H226.7z"/>
	<path class="st1" d="M186.3,199.6c-2.2-1.3-3.5-3.9-2.9-6.4c3-13.4,12.5-23.8,33.8-23.8c20.3,0,29.8,9.4,33.2,21.9
		c0.6,2.4-0.3,4.8-2.3,6.2c12.3-8.1,21.9-20.5,26.9-35.4c1.1,0.4,2.4,0.7,3.9,0.7c11.8,0,12.9-15.2,3.3-18.1
		c-0.1,0.1-0.3,0.3-0.4,0.4c-2.3,1.9-6.1,0.4-7.6-2.2c-1.6-2.5-1.7-5.7-1.8-8.7c-0.2-4.2-0.7-8.4-1.5-12.5c-0.7-3.5-1.6-7.1-3.7-10
		c-2.5-3.3-6.3-5.2-10.3-6.3c-7.5-2-13-1.3-20.6,0.6c-7.3,1.8-17.1,2.1-24.6,1.9c-8.1-0.2-15.6-1.4-23.4-3.5
		c-7.8-2-17.3-1.8-22.6,4.3c-2.8,3.2-3.9,7.5-4.7,11.7c-0.9,4.6-1.4,9.3-1.7,14c-0.2,2.8-0.2,5.6-1.6,8c-1.4,2.4-4.5,4-6.9,2.8
		c-0.3-0.2-0.6-0.4-0.9-0.7c-9.6,2.8-8.5,18,3.3,18c1.2,0,2.2-0.2,3.1-0.5c5.6,16.5,16.8,30,31.1,37.8c0,0,0.1,0,0.1-0.1
		C187,200,186.7,199.8,186.3,199.6z M280.6,150.8c1.9,0.3,3.3,1.9,3,3.7c-0.3,1.8-2.1,3-4,2.7L280.6,150.8z M149.6,154.2
		c-0.3-1.8,1-3.4,3-3.7l1.1,6.4C151.7,157.2,149.9,155.9,149.6,154.2z M191.6,152.7c-3.1,0-5.7-2.6-5.7-5.7s2.6-5.7,5.7-5.7
		c3.1,0,5.7,2.6,5.7,5.7S194.8,152.7,191.6,152.7z M239.1,152.7c-3.1,0-5.7-2.6-5.7-5.7s2.6-5.7,5.7-5.7s5.7,2.6,5.7,5.7
		S242.2,152.7,239.1,152.7z M234.3,125.1c4.8-0.9,9.9,0,14.1,2.4c1.3,0.8,1.8,2.4,1,3.8c-0.5,0.9-1.4,1.4-2.4,1.4
		c-0.5,0-0.9-0.1-1.4-0.4c-3.1-1.8-6.9-2.4-10.3-1.7c-1.5,0.3-2.9-0.7-3.2-2.2C231.8,126.8,232.8,125.4,234.3,125.1z M210.6,156.2
		c0-1.8,1.8-3.9,4-3.9s4,2,4,3.9l0.4,7.5c0,1.8-2.2,2.3-4.4,2.3s-4.4-0.5-4.4-2.3L210.6,156.2z M180.7,131.3c-0.8-1.3-0.3-3,1-3.8
		c4.2-2.4,9.4-3.3,14.1-2.4c1.5,0.3,2.5,1.7,2.2,3.2c-0.3,1.5-1.7,2.5-3.2,2.2c-3.5-0.7-7.3,0-10.3,1.7c-0.4,0.3-0.9,0.4-1.4,0.4
		C182.1,132.6,181.2,132.1,180.7,131.3z"/>
	<path class="st1" d="M247,198.3c-0.3,0.2-0.6,0.4-1,0.6C246.4,198.7,246.7,198.5,247,198.3z"/>
	<path class="st1" d="M240.7,201.8c-0.2,0.1-0.3,0.1-0.4,0.2C240.4,201.9,240.5,201.9,240.7,201.8z"/>
	<path class="st1" d="M236.3,203.6c0.2-0.1,0.4-0.1,0.6-0.2C236.7,203.5,236.5,203.6,236.3,203.6L236.3,203.6z"/>
	<path class="st1" d="M244,200.1c-0.3,0.2-0.6,0.3-0.8,0.5C243.5,200.4,243.7,200.2,244,200.1z"/>
	<path class="st1" d="M195.6,203.9L195.6,203.9c-0.8-0.3-1.3-0.5-1.5-0.6c-2.3-0.9-4.5-2-6.7-3.2c0,0-0.1,0-0.1,0.1
		c2.2,1.2,4.4,2.2,6.7,3.1C194.2,203.5,194.8,203.7,195.6,203.9z"/>
	<path class="st1" d="M198.9,182.6c-1.6,5.4,7.7,7.6,17.6,7.6c9.9,0,19.8-2.2,18.1-7.6c-0.4-1.1-0.9-2.2-1.6-3.2
		c-1.7-1.5-3.9-2.4-6.3-2.4h-21.6c-1,0-2,0.2-2.9,0.4C200.6,179,199.4,180.8,198.9,182.6z M205.7,179.1c0.7-0.7,1.8-0.8,2.6-0.1
		c4,3.7,12.2,2.8,15.1,0.3c0.8-0.7,1.9-0.6,2.6,0.2c0.7,0.8,0.6,1.9-0.2,2.6c-2.4,2.1-7.2,3.4-11.9,2.9c-3-0.3-5.9-1.3-8.1-3.4
		C205.1,181,205,179.9,205.7,179.1z"/>
	<path class="st1" d="M218.9,207.2c-1.2,0.1-2.4,0.1-3.5,0.1c-5.9,0-11.7-1.2-15.8-2.3c0,0-0.1,0-0.1,0c4.1,1.1,10,2.3,15.9,2.3
		c6.4,0,12.7-1.4,17-2.5c0,0,0,0,0,0C228.8,205.8,224,206.8,218.9,207.2z"/>
	<path class="st1" d="M234.2,204.3L234.2,204.3c0.9-0.3,1.6-0.5,2.1-0.7v0C235.7,203.8,235,204.1,234.2,204.3z"/>
	<path class="st1" d="M234.2,204.3c-0.6,0.2-1.2,0.4-2,0.6c0,0,0,0,0,0C233,204.7,233.6,204.5,234.2,204.3L234.2,204.3z"/>
	<path class="st1" d="M197.4,204.4c-0.7-0.2-1.3-0.4-1.8-0.6v0.1c0.5,0.2,1.1,0.3,1.7,0.5L197.4,204.4z"/>
	<path class="st1" d="M197.4,204.4l-0.1,0c0.6,0.2,1.3,0.4,2.1,0.6c0,0,0.1,0,0.1,0C198.8,204.8,198.1,204.6,197.4,204.4z"/>
	<path class="st10" d="M283.6,154.5c0.3-1.8-1-3.4-3-3.7l-1.1,6.4C281.5,157.5,283.3,156.3,283.6,154.5z"/>
	<path class="st10" d="M149.6,154.2c0.3,1.8,2.1,3,4,2.7l-1.1-6.4C150.6,150.8,149.3,152.4,149.6,154.2z"/>
	<path class="st11" d="M268.4,78.8c-11.9-10.4-28.7-12.6-44.5-13.7c-14.1-1-28.5-1.4-42.3,1.7c-7.5,1.7-14.9,4.5-20.4,9.8
		c-5.5,5.3-8.9,13.3-6.9,20.7c0.2,0.7,0.4,1.4,0.3,2.1c-0.1,1-0.8,1.8-1.3,2.6c-0.3,0.4-0.6,0.9-0.9,1.3c-6.6,10-5.9,23.3-4.8,35.3
		c0.2,2.3,0.6,4.8,2.2,6.3c0.3,0.2,0.6,0.5,0.9,0.7c2.4,1.3,5.6-0.4,6.9-2.8c1.4-2.4,1.4-5.3,1.6-8c0.3-4.7,0.8-9.4,1.7-14
		c0.8-4.2,1.9-8.5,4.7-11.7c5.3-6.1,14.8-6.3,22.6-4.3c7.8,2,15.3,3.2,23.4,3.5c7.5,0.2,17.3-0.1,24.6-1.9c7.6-1.9,13-2.6,20.6-0.6
		c3.9,1.1,7.8,3,10.3,6.3c2.2,2.8,3.1,6.4,3.7,10c0.8,4.1,1.3,8.3,1.5,12.5c0.2,3,0.2,6.1,1.8,8.7c1.6,2.5,5.3,4,7.6,2.2
		c0.2-0.1,0.3-0.3,0.4-0.4c1.2-1.3,1.5-3.2,1.7-4.9C286.4,118.8,285.7,93.8,268.4,78.8z"/>
	<circle class="st12" cx="239.1" cy="147" r="5.7"/>
	<path class="st12" d="M191.6,141.3c-3.1,0-5.7,2.6-5.7,5.7s2.6,5.7,5.7,5.7c3.1,0,5.7-2.6,5.7-5.7S194.8,141.3,191.6,141.3z"/>
	<path class="st9" d="M214.6,166c2.2,0,4.4-0.5,4.4-2.3l-0.4-7.5c0-1.8-1.8-3.9-4-3.9s-4,2-4,3.9l-0.4,7.5
		C210.2,165.5,212.4,166,214.6,166z"/>
	<path class="st13" d="M213.9,185.1c4.6,0.5,9.4-0.9,11.9-2.9c0.8-0.7,0.9-1.8,0.2-2.6c-0.7-0.8-1.8-0.9-2.6-0.2
		c-2.9,2.5-11.1,3.3-15.1-0.3c-0.7-0.7-1.9-0.6-2.6,0.1c-0.7,0.7-0.6,1.9,0.1,2.6C208,183.7,210.9,184.8,213.9,185.1z"/>
	<path class="st11" d="M194.8,130.5c1.5,0.3,2.9-0.7,3.2-2.2c0.3-1.5-0.7-2.9-2.2-3.2c-4.8-0.9-9.9,0-14.1,2.4
		c-1.3,0.8-1.8,2.4-1,3.8c0.5,0.9,1.4,1.4,2.4,1.4c0.5,0,0.9-0.1,1.4-0.4C187.5,130.5,191.3,129.9,194.8,130.5z"/>
	<path class="st11" d="M235.3,130.5c3.5-0.7,7.3,0,10.3,1.7c0.4,0.3,0.9,0.4,1.4,0.4c0.9,0,1.9-0.5,2.4-1.4c0.8-1.3,0.3-3-1-3.8
		c-4.2-2.4-9.4-3.3-14.1-2.4c-1.5,0.3-2.5,1.7-2.2,3.2C232.4,129.8,233.8,130.8,235.3,130.5z"/>
	<path class="st14" d="M244.4,199.8c0.5-0.3,1.1-0.6,1.6-0.9C245.5,199.2,245,199.5,244.4,199.8
		C244.4,199.8,244.4,199.8,244.4,199.8z"/>
	<path class="st15" d="M244.4,199.8c0.5-0.3,1.1-0.6,1.6-0.9C245.5,199.2,245,199.5,244.4,199.8
		C244.4,199.8,244.4,199.8,244.4,199.8z"/>
	<path class="st14" d="M247.8,197.8c0.1-0.1,0.2-0.1,0.3-0.2c-0.4,0.2-0.7,0.5-1.1,0.7C247.3,198.2,247.5,198,247.8,197.8z"/>
	<path class="st15" d="M247.8,197.8c0.1-0.1,0.2-0.1,0.3-0.2c-0.4,0.2-0.7,0.5-1.1,0.7C247.3,198.2,247.5,198,247.8,197.8z"/>
	<path class="st7" d="M236.8,203.5c0.1,0,0.2-0.1,0.3-0.1c1-0.4,2.1-0.9,3.1-1.3c-1,0.5-2.1,0.9-3.2,1.4
		C237,203.4,236.9,203.4,236.8,203.5z"/>
	<path class="st15" d="M236.8,203.5c0.1,0,0.2-0.1,0.3-0.1c1-0.4,2.1-0.9,3.1-1.3c-1,0.5-2.1,0.9-3.2,1.4
		C237,203.4,236.9,203.4,236.8,203.5z"/>
	<path class="st7" d="M244,200.1c0.1-0.1,0.3-0.2,0.4-0.2c0,0,0,0,0,0C244.3,199.9,244.1,200,244,200.1z"/>
	<path class="st15" d="M244,200.1c0.1-0.1,0.3-0.2,0.4-0.2c0,0,0,0,0,0C244.3,199.9,244.1,200,244,200.1z"/>
	<path class="st7" d="M243.2,200.5c-0.8,0.4-1.7,0.9-2.5,1.3C241.5,201.4,242.3,201,243.2,200.5z"/>
	<path class="st15" d="M243.2,200.5c-0.8,0.4-1.7,0.9-2.5,1.3C241.5,201.4,242.3,201,243.2,200.5z"/>
	<path class="st1" d="M250.4,191.4c-3.4-12.5-12.9-21.9-33.2-21.9c-21.3,0-30.8,10.3-33.8,23.8c-0.6,2.5,0.7,5.1,2.9,6.4
		c0.3,0.2,0.7,0.4,1,0.6c2.5-1.7,5.2-2.9,8.2-3.6v-10c0-4.3,2.8-7.9,6.7-9.1c3.1-2.8,8.1-4.9,14.4-4.9c7.9,0,13.4,2.9,16.2,6.8
		c2,1.8,3.3,4.3,3.3,7.2v9.8c3,0.7,5.7,1.9,8.2,3.5c0.5-0.3,1.1-0.6,1.6-0.9c0.3-0.2,0.6-0.4,1-0.6c0.4-0.2,0.7-0.5,1.1-0.7
		C250,196.2,251,193.7,250.4,191.4z"/>
	<path class="st1" d="M236.8,203.5c0.1,0,0.2-0.1,0.2-0.1c1.1-0.4,2.1-0.9,3.2-1.4c0.2-0.1,0.3-0.1,0.4-0.2c0.8-0.4,1.7-0.8,2.5-1.3
		c0.3-0.1,0.6-0.3,0.8-0.5c0.1-0.1,0.3-0.2,0.4-0.2c-2.5-1.6-5.2-2.8-8.2-3.5v7.3C236.5,203.6,236.7,203.5,236.8,203.5z"/>
	<path class="st1" d="M187.4,200.2c2.2,1.2,4.4,2.2,6.7,3.2c0.2,0.1,0.8,0.3,1.5,0.5v-7.3C192.6,197.3,189.8,198.5,187.4,200.2z"/>
	<path class="st1" d="M212.2,195.8c2.5,0,4.5,2,4.5,4.5c0,0.2,0,0.5-0.1,0.7h0.3c-0.1-0.3-0.1-0.6-0.1-0.8c0-2.5,2-4.5,4.5-4.5h9.3
		c1.9,0,3.8,0.2,5.5,0.6v-9.8c0-2.9-1.3-5.4-3.3-7.2c0.7,1,1.3,2.1,1.6,3.2c1.7,5.4-8.2,7.6-18.1,7.6c-9.9,0-19.2-2.2-17.6-7.6
		c0.5-1.8,1.7-3.6,3.4-5.1c-3.9,1.2-6.7,4.8-6.7,9.1v10c1.9-0.4,3.8-0.7,5.8-0.7H212.2z"/>
	<path class="st1" d="M212.2,204.9h-10.8c-0.6,0-1.2,0-1.8,0.1c4.1,1.1,9.9,2.3,15.8,2.3c1.2,0,2.3-0.1,3.5-0.1
		c5.1-0.4,9.9-1.4,13.3-2.3c-0.5,0-1-0.1-1.5-0.1h-9.3c-2.2,0-4.1-1.6-4.5-3.7h-0.3C216.3,203.3,214.4,204.9,212.2,204.9z"/>
	<path class="st1" d="M221.4,195.7c-2.5,0-4.5,2-4.5,4.5c0,0.3,0,0.6,0.1,0.8h0.8l16.4,3.2c0.9-0.3,1.6-0.5,2.1-0.7v-7.3
		c-1.8-0.4-3.6-0.6-5.5-0.6H221.4z"/>
	<path class="st1" d="M221.4,204.8h9.3c0.5,0,1,0,1.5,0.1c0.7-0.2,1.4-0.4,2-0.6l-16.4-3.2h-0.8
		C217.3,203.2,219.2,204.8,221.4,204.8z"/>
	<path class="st1" d="M214.6,201.1h2c0-0.2,0.1-0.5,0.1-0.7c0-2.5-2-4.5-4.5-4.5h-10.8c-2,0-3.9,0.3-5.8,0.7v7.3
		c0.5,0.2,1.1,0.4,1.8,0.6L214.6,201.1z"/>
	<path class="st1" d="M201.4,204.9h10.8c2.3,0,4.1-1.7,4.5-3.8h-2l-17.2,3.4c0.6,0.2,1.3,0.4,2.1,0.6
		C200.2,205,200.8,204.9,201.4,204.9z"/>
	<path class="st15" d="M250.4,191.4c-3.4-12.5-12.9-21.9-33.2-21.9c-21.3,0-30.8,10.3-33.8,23.8c-0.6,2.5,0.7,5.1,2.9,6.4
		c0.3,0.2,0.7,0.4,1,0.6c2.2,1.2,4.4,2.2,6.7,3.2c0.2,0.1,0.8,0.3,1.5,0.5c0.5,0.2,1.1,0.4,1.8,0.6c0.6,0.2,1.3,0.4,2.1,0.6
		c4.1,1.1,9.9,2.3,15.8,2.3c1.2,0,2.3-0.1,3.5-0.1c5.1-0.4,9.9-1.4,13.3-2.3c0.7-0.2,1.4-0.4,2-0.6c0.9-0.3,1.6-0.5,2.1-0.7
		c0.2-0.1,0.4-0.1,0.6-0.2c0.1,0,0.2-0.1,0.2-0.1c1.1-0.4,2.1-0.9,3.2-1.4c0.2-0.1,0.3-0.1,0.4-0.2c0.8-0.4,1.7-0.8,2.5-1.3
		c0.3-0.1,0.6-0.3,0.8-0.5c0.1-0.1,0.3-0.2,0.4-0.2c-1.1-0.7-1.1-0.7,0,0c0.5-0.3,1.1-0.6,1.6-0.9c0.3-0.2,0.6-0.4,1-0.6
		c0.4-0.2,0.7-0.5,1.1-0.7C250,196.2,251,193.7,250.4,191.4z M216.5,190.2c-9.9,0-19.2-2.2-17.6-7.6c0.5-1.8,1.7-3.6,3.4-5.1
		c3.1-2.8,8.1-4.9,14.4-4.9c7.9,0,13.4,2.9,16.2,6.8c0.7,1,1.3,2.1,1.6,3.2C236.3,188,226.3,190.2,216.5,190.2z"/>
	<path class="st16" d="M188.3,286l3.7-12.6l-5.5-1.6c-2.1,1-4.4,1.5-6.8,1.5c-3.3,0-6.3-1-8.8-2.7c-0.1,0.2-0.2,0.5-0.3,0.7
		l-10,34.4c4.3-0.2,8.5-0.6,12.7-1.1l6.2-21.3L188.3,286z"/>
	<path class="st16" d="M170.9,270.6c2.5,1.7,5.6,2.7,8.8,2.7c2.4,0,4.8-0.6,6.8-1.5l-10.9-3.2C173.7,268,171.7,268.9,170.9,270.6z"
		/>
	<path class="st17" d="M190.8,291.7c-2.1-0.6-3.3-2.8-2.7-4.8l0.2-0.9l-8.9-2.6l-6.2,21.3c11.6-1.5,22.8-4.4,33.4-8.4L190.8,291.7z"
		/>
	<path class="st18" d="M238.2,280l-1.1-0.3v0L228,277l-30.4-8.8c-2.1-0.6-4.2,0.6-4.8,2.7l-0.7,2.5l-3.7,12.6l-0.2,0.9
		c-0.6,2.1,0.6,4.2,2.7,4.8l15.9,4.6c2.4-0.9,4.8-1.9,7.2-2.9c4.9-2.1,9.7-4.5,14.4-7.2c0,0,0,0,0,0c0.6-0.4,1.3-0.7,1.9-1.1v0
		c0.3-0.2,0.6-0.3,0.9-0.5c1.2-0.7,2.4-1.4,3.6-2.2c0.9-0.5,1.7-1.1,2.6-1.6v0c0.4-0.3,0.8-0.5,1.2-0.8
		C238.3,280,238.2,280,238.2,280z"/>
</g>
</svg>
