<?xml version="1.0" encoding="utf-8"?>
<!-- Generator: Adobe Illustrator 22.1.0, SVG Export Plug-In . SVG Version: 6.00 Build 0)  -->
<svg version="1.1" id="Layer_1" xmlns="http://www.w3.org/2000/svg" xmlns:xlink="http://www.w3.org/1999/xlink" x="0px" y="0px"
	 viewBox="0 0 306 306" style="enable-background:new 0 0 306 306;" xml:space="preserve">
<style type="text/css">
	.st0{fill:#DEFCF2;}
	.st1{clip-path:url(#SVGID_2_);}
	.st2{fill:#C1976B;}
	.st3{fill:#00A89C;}
	.st4{fill:#4D4E4E;}
	.st5{fill:#A77C4F;}
	.st6{fill:#A77C4F;stroke:#A77C4F;stroke-width:0.5654;stroke-linecap:round;stroke-linejoin:round;stroke-miterlimit:10;}
	.st7{fill:#F2F2F2;}
	.st8{fill:#E5E5E4;}
	.st9{fill:#676767;}
	.st10{fill:#402312;}
	.st11{fill:#C96B4F;}
	.st12{fill:#3A2416;}
	.st13{fill:url(#SVGID_3_);}
	.st14{fill:#F3D2AF;}
	.st15{fill:#313138;}
	.st16{fill:url(#SVGID_4_);}
	.st17{fill:#4D58A6;}
	.st18{fill:url(#SVGID_5_);}
	.st19{fill:url(#SVGID_6_);}
	.st20{fill:#8283BF;}
	.st21{fill:#D7BF77;}
	.st22{fill:#DCB791;}
	.st23{fill:#16133F;}
	.st24{fill:#C6A44D;}
	.st25{fill-rule:evenodd;clip-rule:evenodd;fill:#F3D2AF;}
	.st26{fill:#C55739;}
</style>
<g>
	<circle class="st0" cx="153" cy="153" r="153"/>
	<g>
		<defs>
			<circle id="SVGID_1_" cx="153" cy="153" r="153"/>
		</defs>
		<clipPath id="SVGID_2_">
			<use xlink:href="#SVGID_1_"  style="overflow:visible;"/>
		</clipPath>
		<g class="st1">
			<path class="st2" d="M174.6,314.1L174.6,314.1c-7.1,0-12.9-6.5-12.9-14.4l-1.6-78.1c0-7.9,7.4-14.4,14.5-14.4h0
				c7.1,0,14.5,6.5,14.5,14.4l-1.6,78.1C187.5,307.6,181.7,314.1,174.6,314.1z"/>
			<path class="st2" d="M206.3,308.6L206.3,308.6c-7.1,0-12.9-6.2-12.9-13.7l-1.6-74.3c0-7.6,7.4-13.7,14.5-13.7h0
				c7.1,0,14.5,6.2,14.5,13.7l-1.6,74.3C219.2,302.4,213.4,308.6,206.3,308.6z"/>
			<path class="st2" d="M239,267l-8.3-0.5c-3.4-0.2-6.1-3.2-5.9-6.6l3.9-70.5c0.2-3.4,3.2-6.1,6.6-5.9l8.3,0.5
				c3.4,0.2,6.1,3.2,5.9,6.6l-3.9,70.5C245.4,264.6,242.4,267.2,239,267z"/>
			<path class="st2" d="M242.3,202.1l-2.2,0.5c-5.5,1.2-11-2.3-12.2-7.8l-14.1-56.3c-1.2-5.5,3.9-11.3,9.4-12.5l2.2-0.5
				c5.5-1.2,12.5,1.9,13.8,7.4l10.9,57C251.3,195.4,247.8,200.9,242.3,202.1z"/>
			<path class="st2" d="M238.8,271.8l-8.4-0.5c-4.5-0.2-7.9-4.1-7.7-8.6l0.7-12.1c0.2-4.5,4.1-7.9,8.6-7.7l8.4,0.5
				c4.5,0.2,7.9,4.1,7.7,8.6l-0.7,12.1C247.1,268.6,243.3,272,238.8,271.8z"/>
			<path class="st3" d="M245.3,160.1l-5.1-26.8c-1.3-5.9-9-9.3-15-8l-2.4,0.5c-5.9,1.3-11.5,7.7-10.1,13.6l7,25.9
				C229,166.7,237.5,165.1,245.3,160.1z"/>
			<path class="st2" d="M145.6,267.1l8.4-0.9c3.4-0.4,5.9-3.5,5.6-6.9l-7.4-70.2c-0.4-3.4-3.5-5.9-6.9-5.6l-8.4,0.9
				c-3.4,0.4-5.9,3.5-5.6,6.9l7.4,70.2C139.1,265,142.1,267.5,145.6,267.1z"/>
			<path class="st2" d="M138.4,202l2.2,0.5c5.5,1.2,11-2.3,12.2-7.8l14.1-56.3c1.2-5.5-3.9-11.3-9.4-12.5l-2.2-0.5
				c-5.5-1.2-12.5,1.9-13.8,7.4l-10.9,57C129.4,195.4,132.9,200.8,138.4,202z"/>
			<path class="st2" d="M146.1,271.6l8.4-0.9c4.4-0.5,7.7-4.5,7.2-8.9l-1.3-12c-0.5-4.4-4.5-7.7-8.9-7.2l-8.4,0.9
				c-4.4,0.5-7.7,4.5-7.2,8.9l1.3,12C137.6,268.8,141.6,272.1,146.1,271.6z"/>
			<g>
				<path class="st3" d="M229.2,125.2l-37.4-6.5h-2.8l-37.4,6.5c-4.7,0-1.9,5.6-0.7,9.1c1.8,5.5,2.6,10.2,2.9,15.1l5.8,68.2h61.8
					l5.8-68.2c0.3-4.9,1-9.6,2.9-15.1C231.1,130.8,233.9,125.2,229.2,125.2z"/>
				<path class="st4" d="M160.3,226.9c0,9.2,7,16.7,15.7,16.7h0.2h28.5h0.2c8.6,0,15.7-7.5,15.7-16.7l0.8-9.3h-61.8L160.3,226.9z"/>
			</g>
			<g>
				<path class="st5" d="M191.3,135.8h-0.4c-6.2,0-11.2-4.8-11.2-10.7l-1.7-20.4h26.3l-1.7,20.4
					C202.6,131.1,197.5,135.8,191.3,135.8z"/>
			</g>
			<g>
				<path class="st2" d="M224.8,78.3c-0.1,0-0.1,0-0.2,0c0.1-1.1,0.1-2.3,0.1-3.4c0-23.5-15-38.4-33.8-38.4c-18.7,0-34,14.9-34,38.4
					c0,1.2,0,2.3,0.1,3.4c-6.7,0.3-6.6,11.4,0.3,11.4c0.6,0,1.2-0.1,1.7-0.3c3.4,11.7,10.9,21.1,20.3,25.3c0.7,0.3,6,2.5,11.4,2.5
					c5.5,0,11-2.2,11.7-2.5c9.4-4.3,16.9-13.7,20.3-25.5c0.6,0.3,1.3,0.4,2.1,0.4C231.8,89.7,231.8,78.3,224.8,78.3z"/>
				<path class="st6" d="M224.5,86c1,0.2,2-0.6,2.2-1.7s-0.6-2.1-1.6-2.3"/>
				<path class="st6" d="M157.7,86c-1,0.2-2-0.6-2.2-1.7c-0.2-1.1,0.6-2.1,1.6-2.3"/>
			</g>
			<path class="st3" d="M135.6,160.1l5.1-26.8c1.3-5.9,9-9.3,15-8l2.4,0.5c5.9,1.3,11.5,7.7,10.1,13.6l-7,25.9
				C152,166.7,143.4,165.1,135.6,160.1z"/>
			<g>
				<path class="st2" d="M206.3,385.4L206.3,385.4c-7.1,0-11.3-5.8-11.3-12.9l-1.6-76c0-7.1,5.8-12.9,12.9-12.9h0
					c7.1,0,12.9,5.8,12.9,12.9l-1.6,76C217.5,379.6,213.4,385.4,206.3,385.4z"/>
				<path class="st7" d="M194.5,360.1l0.4,12.7c0,7.1,4.2,12.9,11.3,12.9c7.1,0,11.3-5.8,11.3-12.9l0.4-12.7H194.5z"/>
				<g>
					<path class="st8" d="M195,370.7c13.3,0.9,19.3,0.5,22.7-0.6c0,0,12.8,7.9,12.8,8c2.6,1.8,5.5,3.7,7.2,6.5
						c2.9,5,1.2,10.3-3,13.5c-4.5,3.4-9.6,2.4-14.6,1c0,0-18.2-5.3-18.2-5.3C194.4,390.5,191.7,386.5,195,370.7z"/>
					<g>
						<path class="st9" d="M233.8,378.8c-4.3-0.5-8.5,1.7-10.7,5.4c-1,1.8,1.7,3.4,2.8,1.6c1.7-2.8,4.7-4.2,7.9-3.8
							C235.8,382.2,235.8,379,233.8,378.8L233.8,378.8z"/>
					</g>
					<g>
						<path class="st9" d="M229.4,375.1c-4.3-0.2-8.4,2.3-10.3,6.2c-0.9,1.8,2,3.2,2.9,1.4c1.5-3,4.4-4.6,7.6-4.4
							C231.7,378.3,231.5,375.1,229.4,375.1L229.4,375.1z"/>
					</g>
					<g>
						<path class="st9" d="M224.9,371.7c-4.3,0-8.2,2.7-10,6.7c-0.8,1.9,2.1,3.1,2.9,1.3c1.3-3,4.2-4.8,7.4-4.8
							C227.4,374.8,227,371.7,224.9,371.7L224.9,371.7z"/>
					</g>
				</g>
			</g>
			<g>
				<path class="st2" d="M174.5,385.4L174.5,385.4c7.1,0,11.3-5.8,11.3-12.9l1.6-76c0-7.1-5.8-12.9-12.9-12.9h0
					c-7.1,0-12.9,5.8-12.9,12.9l1.6,76C163.2,379.6,167.4,385.4,174.5,385.4z"/>
				<path class="st7" d="M186.2,360.1l-0.4,12.7c0,7.1-4.2,12.9-11.3,12.9c-7.1,0-11.3-5.8-11.3-12.9l-0.4-12.7H186.2z"/>
				<g>
					<path class="st8" d="M185.8,370.7c-13.3,0.9-19.3,0.5-22.7-0.6c0,0-12.8,7.9-12.8,8c-2.6,1.8-5.5,3.7-7.2,6.5
						c-2.9,5-1.2,10.3,3,13.5c4.5,3.4,9.6,2.4,14.6,1c0,0,18.2-5.3,18.2-5.3C186.3,390.5,189.1,386.5,185.8,370.7z"/>
					<g>
						<path class="st9" d="M147,378.8c4.3-0.5,8.5,1.7,10.7,5.4c1,1.8-1.7,3.4-2.8,1.6c-1.7-2.8-4.7-4.2-7.9-3.8
							C145,382.2,145,379,147,378.8L147,378.8z"/>
					</g>
					<g>
						<path class="st9" d="M151.3,375.1c4.3-0.2,8.4,2.3,10.3,6.2c0.9,1.8-2,3.2-2.9,1.4c-1.5-3-4.4-4.6-7.6-4.4
							C149,378.3,149.3,375.1,151.3,375.1L151.3,375.1z"/>
					</g>
					<g>
						<path class="st9" d="M155.9,371.7c4.3,0,8.2,2.7,10,6.7c0.8,1.9-2.1,3.1-2.9,1.3c-1.3-3-4.2-4.8-7.4-4.8
							C153.4,374.8,153.8,371.7,155.9,371.7L155.9,371.7z"/>
					</g>
				</g>
			</g>
			<polygon class="st4" points="159.5,216.4 158.6,299.9 189.2,299.9 190.5,249.4 191.7,299.9 222.4,299.9 221.5,216.4 			"/>
			<path class="st9" d="M222.5,300.3h-30.9c-0.3,0-0.5-0.2-0.5-0.5v-6c0-0.3,0.2-0.5,0.5-0.5h30.9c0.3,0,0.5,0.2,0.5,0.5v6
				C223,300.1,222.7,300.3,222.5,300.3z"/>
			<path class="st9" d="M189.5,300.3h-30.9c-0.3,0-0.5-0.2-0.5-0.5v-6c0-0.3,0.2-0.5,0.5-0.5h30.9c0.3,0,0.5,0.2,0.5,0.5v6
				C190,300.1,189.8,300.3,189.5,300.3z"/>
			<path class="st10" d="M227.9,59.8c1.3-1.1,2.2-2.6,2.2-4.3c0-2.3-1.5-4.3-3.7-5.3c0.1-0.2,0.2-0.4,0.3-0.6
				c1.8-4.9-1-10.1-6.4-11.8c-1.1-0.4-2.3-0.5-3.4-0.5c0.9-5.1-2.3-10.2-7.9-12c-4.3-1.3-8.8-0.4-12,2.2c-1.4-1.7-3.5-3.1-5.9-3.9
				c-6.5-2-13.5,1-15.8,6.8c-0.2-0.1-0.4-0.2-0.6-0.2c-5.3-1.7-11.1,0.9-12.9,5.7c-0.4,1.1-0.6,2.2-0.5,3.3
				c-4.8,1.2-8.4,5.4-8.4,10.4c0,1.3,0.3,2.5,0.7,3.7c-1.6,1.1-2.6,2.7-2.6,4.6c0,2.2,1.4,4.1,3.4,5.1c-0.6,0.8-1,1.7-1,2.7
				c0,1.2,0.5,2.2,1.3,3c-0.2,3.3-0.1,6.1,0.5,7.8c1.5,4.1,5.8,2.4,6.2-1.2c0.4-3.3,2.3-10.1,4.1-15.1c2.8-0.3,5.2-1.6,7-3.5
				c0.8,0.5,1.6,0.9,2.6,1.2c4.2,1.3,8.6,0.2,11.5-2.4c1.1,1.4,2.6,2.5,4.6,3.1c3.6,1.1,7.5,0.1,9.9-2.3c1.1,1,2.4,1.7,4,2.2
				c3.1,1,6.3,0.6,8.9-0.8c0.6,1.7,2.2,3,4.1,3.4c1.7,4.9,3.5,11.2,3.8,14.2c0.4,3.6,4.7,5.3,6.2,1.2c0.8-2.1,0.8-6.2,0.3-10.5
				c0.7-0.8,1.1-1.8,1.1-2.8C229.6,61.8,228.9,60.6,227.9,59.8z"/>
			<circle cx="177.2" cy="80.5" r="3.3"/>
			<circle cx="206.6" cy="80.5" r="3.3"/>
			<g>
				<path class="st5" d="M191.9,92.7L191.9,92.7c-1.4,0-2.7-0.2-2.7-1.1l0.3-3.5c0-0.9,1.1-1.2,2.5-1.2l0,0c1.4,0,2.5,0.3,2.5,1.2
					l0.3,3.5C194.6,92.5,193.2,92.7,191.9,92.7z"/>
			</g>
			<path class="st11" d="M190.8,99.5c-1.8,0.1-3.7,0.8-5.1,2c-0.5,0.4-0.5,1.1-0.1,1.6s1.1,0.5,1.6,0.1c2.5-2.2,7.6-1.6,9.3,0
				c0.5,0.4,1.2,0.4,1.6-0.1c0.4-0.5,0.4-1.2-0.1-1.6C196.6,100.1,193.6,99.3,190.8,99.5z"/>
			<path class="st12" d="M172.6,71.9c-0.5,0-1-0.3-1.3-0.8c-0.4-0.7-0.2-1.6,0.6-2.1c2.3-1.3,5.1-1.8,7.8-1.3
				c0.8,0.2,1.4,0.9,1.2,1.8c-0.2,0.8-1,1.4-1.8,1.2c-1.9-0.4-4,0-5.7,1C173.1,71.8,172.8,71.9,172.6,71.9z"/>
			<path class="st12" d="M211,71.9c0.5,0,1-0.3,1.3-0.8c0.4-0.7,0.2-1.6-0.6-2.1c-2.3-1.3-5.1-1.8-7.8-1.3c-0.8,0.2-1.4,0.9-1.2,1.8
				c0.2,0.8,1,1.4,1.8,1.2c1.9-0.4,4,0,5.7,1C210.5,71.8,210.7,71.9,211,71.9z"/>
			<g>
				<g>
					<g>
						<linearGradient id="SVGID_3_" gradientUnits="userSpaceOnUse" x1="119.2878" y1="339.7918" x2="119.2878" y2="275.9918">
							<stop  offset="0" style="stop-color:#F2D3B0"/>
							<stop  offset="0.3561" style="stop-color:#EFCFAC"/>
							<stop  offset="0.7245" style="stop-color:#E6C49F"/>
							<stop  offset="1" style="stop-color:#DCB791"/>
						</linearGradient>
						<path class="st13" d="M119.3,339.8L119.3,339.8c5,0,9-3.9,9-8.6l3.4-46.6c0-4.7-7.5-8.6-12.5-8.6h0c-5,0-12.5,3.9-12.5,8.6
							l3.4,46.6C110.2,335.9,114.3,339.8,119.3,339.8z"/>
						<path class="st14" d="M118.1,386h2.3c4.3,0,7.9-3.6,7.9-7.9v-48c0-4.3-3.6-7.9-7.9-7.9h-2.3c-4.3,0-7.9,3.6-7.9,7.9v48
							C110.2,382.5,113.8,386,118.1,386z"/>
					</g>
					<g>
						<path class="st15" d="M142.2,389.3c-0.7-1.2-1.6-2.2-2.6-3.1c0,0.2-0.1,0.3-0.1,0.5c-1.5,4.2-5.5,5.6-9.2,4.5
							c-7.1-2.1-13.7-5.7-19.5-10.6c-0.2-0.2-0.4-0.4-0.6-0.6c-1.8,11.2,0.6,14.3,5.9,16.6c0,0,13.4,4.3,13.4,4.3
							c3.7,1.2,7.4,1.9,10.7-0.8C143.1,397.5,144.4,393.3,142.2,389.3z"/>
						<path class="st14" d="M110.7,380.5c5.8,4.9,12.5,8.5,19.5,10.6c3.7,1.1,7.8-0.3,9.2-4.5c0.1-0.2,0.1-0.3,0.1-0.5
							c-0.9-0.7-1.8-1.4-2.6-2c0,0-9.8-6-9.8-6c-2.5,0.8-7,0.7-16.8,0c-0.1,0.7-0.2,1.3-0.3,1.9
							C110.3,380.1,110.5,380.3,110.7,380.5z"/>
					</g>
				</g>
				<g>
					<linearGradient id="SVGID_4_" gradientUnits="userSpaceOnUse" x1="87.5474" y1="339.7918" x2="87.5474" y2="275.9918">
						<stop  offset="0" style="stop-color:#F2D3B0"/>
						<stop  offset="0.3561" style="stop-color:#EFCFAC"/>
						<stop  offset="0.7245" style="stop-color:#E6C49F"/>
						<stop  offset="1" style="stop-color:#DCB791"/>
					</linearGradient>
					<path class="st16" d="M87.5,339.8L87.5,339.8c-5,0-9-3.9-9-8.6l-3.4-46.6c0-4.7,7.5-8.6,12.5-8.6h0c5,0,12.5,3.9,12.5,8.6
						l-3.4,46.6C96.6,335.9,92.5,339.8,87.5,339.8z"/>
					<path class="st14" d="M88.7,386h-2.3c-4.3,0-7.9-3.6-7.9-7.9v-48c0-4.3,3.6-7.9,7.9-7.9h2.3c4.3,0,7.9,3.6,7.9,7.9v48
						C96.6,382.5,93,386,88.7,386z"/>
				</g>
				<g>
					<path class="st15" d="M64.6,389.3c0.7-1.2,1.6-2.2,2.6-3.1c0,0.2,0.1,0.3,0.1,0.5c1.5,4.2,5.5,5.6,9.2,4.5
						c7.1-2.1,13.7-5.7,19.5-10.6c0.2-0.2,0.4-0.4,0.6-0.6c1.8,11.2-0.6,14.3-5.9,16.6c0,0-13.4,4.3-13.4,4.3
						c-3.7,1.2-7.4,1.9-10.7-0.8C63.7,397.5,62.4,393.3,64.6,389.3z"/>
					<path class="st14" d="M96.1,380.5c-5.8,4.9-12.5,8.5-19.5,10.6c-3.7,1.1-7.8-0.3-9.2-4.5c-0.1-0.2-0.1-0.3-0.1-0.5
						c0.9-0.7,1.8-1.4,2.6-2c0,0,9.8-6,9.8-6c2.5,0.8,7,0.7,16.8,0c0.1,0.7,0.2,1.3,0.3,1.9C96.6,380.1,96.4,380.3,96.1,380.5z"/>
				</g>
			</g>
			<path class="st14" d="M66.2,202.2l-6.6-0.8c-2.6-0.3-4.4-2.6-3.8-5.2l12.2-54.3c0.6-2.5,3.2-4.3,5.8-4l6.6,0.8
				c2.6,0.3,4.4,2.6,3.8,5.2L72,198.2C71.5,200.7,68.8,202.5,66.2,202.2z"/>
			<path class="st17" d="M82.1,166.5l4-18.8c1.1-5.3-2.3-10.6-7.7-11.8h0c-5.3-1.1-10.6,2.3-11.8,7.7l-3.4,16
				c-0.1,0.5,0.1,1,0.4,1.4c3.2,3,12.3,6.4,17,6.7C81.4,167.7,82,167.2,82.1,166.5z"/>
			<g>
				<path class="st14" d="M139.3,200.9l6.6-1.1c2.6-0.4,4.2-2.9,3.5-5.4l-14.9-53.7c-0.7-2.5-3.4-4.2-6-3.7l-6.6,1.1
					c-2.6,0.4-4.2,2.9-3.5,5.4l14.9,53.7C134,199.7,136.7,201.4,139.3,200.9z"/>
				<path class="st17" d="M121.9,164.1l-5.1-17.4c-1.4-5,1.7-10.1,6.9-11.3h0c5.3-1.3,10.7,1.8,12.2,6.7l4.3,14.8
					c0.1,0.5,0,0.9-0.3,1.3c-3,3-11.9,6.5-16.5,6.9C122.7,165.2,122.1,164.8,121.9,164.1z"/>
			</g>
			<path class="st17" d="M134.2,138.7c-11.6-11.5-50.1-11.5-61.6,0c-1.2,1.3-0.1,12.5-0.5,29.1c-0.1,3.1,5.1,24.7,5.1,30.5
				c0,1.9-4.1,23.3-4.2,25.9c-0.9,25-2.2,85-2.2,85s8.2-1.5,10.4-1.5c5.7,0,10.8,1.9,14.3,2.6c6,1.2,12.5-0.3,16.6-0.9
				c3.4-0.5,10.9,1.3,16.5,1.9c4.2,0.4,7.4-2.1,7.4-2.1s-1.4-60.4-2.1-85c-0.1-2.3-4.2-24.2-4.2-25.9c0-7.4,6.3-26,6.3-30.2
				C135.7,152,136.2,140.7,134.2,138.7z"/>
			<g>
				<linearGradient id="SVGID_5_" gradientUnits="userSpaceOnUse" x1="86.7166" y1="131.9861" x2="86.7166" y2="131.5817">
					<stop  offset="0" style="stop-color:#F2D3B0"/>
					<stop  offset="0.3561" style="stop-color:#EFCFAC"/>
					<stop  offset="0.7245" style="stop-color:#E6C49F"/>
					<stop  offset="1" style="stop-color:#DCB791"/>
				</linearGradient>
				<path class="st18" d="M85.9,132c0.5-0.1,1.1-0.2,1.7-0.4c0,0,0,0,0,0L85.9,132z"/>
				<linearGradient id="SVGID_6_" gradientUnits="userSpaceOnUse" x1="103.389" y1="146.0348" x2="103.389" y2="119.7115">
					<stop  offset="0" style="stop-color:#F2D3B0"/>
					<stop  offset="0.3561" style="stop-color:#EFCFAC"/>
					<stop  offset="0.7245" style="stop-color:#E6C49F"/>
					<stop  offset="1" style="stop-color:#DCB791"/>
				</linearGradient>
				<path class="st19" d="M114.8,130.9v-11.2H92.1v11.2c-1.2,0.2-3.4,0.4-4.5,0.7c0,0.1,0,0.4,0,0.5c0.1,1.2,0.5,5.4,3.6,8.7
					c0.7,3,3.3,5.2,6.5,5.2h11.4c3,0,5.6-2,6.4-4.8c3.2-3.2,3.6-7.5,3.6-8.6c0-0.2,0.1-1,0.1-1C118.1,131.3,115.9,131.1,114.8,130.9
					z"/>
			</g>
			<g>
				<path class="st20" d="M103.8,148.2c-15.6,0-18.2-13.2-18.3-15.7c0-0.3,0-0.4,0-0.4l2.1-0.5c0,0,0,0.4,0,0.5
					c0.1,2.1,2.4,13.9,16.2,13.9c13.2,0,15.3-11.5,15.4-13.5c0-0.2,0.1-1,0.1-1l2.2,0.5c0,0,0,0.6,0,0.8
					C121.2,135.1,118.8,148.2,103.8,148.2z"/>
			</g>
			<path class="st21" d="M69.9,157.6c0,0,16-9,20.8-13.7c7.6-7.4,2.3-31.2-5.7-39.5c-6.9-7.2,10.5-30.2,10.5-30.2s-18,4.1-27,16.4
				c-2.8,3.8-5.6,10.4-3.9,18c1.9,8.7,8.7,15.4,10.4,24.1C77.3,144.7,69.9,157.6,69.9,157.6z"/>
			<path class="st17" d="M119.3,131.6l1.5,0.4C120.3,131.8,119.8,131.7,119.3,131.6z"/>
			<g>
				<circle class="st14" cx="133.8" cy="91.1" r="5"/>
				<path class="st22" d="M136.1,89.8c-0.3-0.5-0.8-0.8-1.4-0.8c-0.2,0-0.3,0.1-0.3,0.2c0,0.1,0.1,0.3,0.2,0.3l-0.5,3.1c0,0,0,0,0,0
					c-0.2,0-0.3,0.1-0.3,0.2c0,0.1,0.1,0.3,0.2,0.3c0.1,0,0.2,0,0.3,0c1,0,2-0.8,2.1-1.8C136.6,90.8,136.5,90.2,136.1,89.8z"/>
			</g>
			<g>
				<circle class="st14" cx="73" cy="91.1" r="5"/>
				<path class="st22" d="M70.7,89.8c0.3-0.5,0.8-0.8,1.4-0.8c0.2,0,0.3,0.1,0.3,0.2c0,0.1-0.1,0.3-0.2,0.3l0.5,3.1c0,0,0,0,0,0
					c0.2,0,0.3,0.1,0.3,0.2c0,0.1-0.1,0.3-0.2,0.3c-0.1,0-0.2,0-0.3,0c-1,0-2-0.8-2.1-1.8C70.2,90.8,70.4,90.2,70.7,89.8z"/>
			</g>
			<path class="st14" d="M103.4,52.8c-15.8,0-30.9,12.7-30.9,36.7c0,22.3,19.3,38.6,30.9,38.6s30.9-16.3,30.9-38.6
				C134.3,65.6,119.2,52.8,103.4,52.8z"/>
			<path class="st22" d="M103.4,99.8L103.4,99.8c1,0,2,0.2,2,1l-0.2,2.1c0,0.8-0.8,1.5-1.8,1.5h0c-1,0-1.8-0.7-1.8-1.5l-0.2-2.1
				C101.4,100.1,102.4,99.8,103.4,99.8z"/>
			<circle class="st23" cx="90.7" cy="94.9" r="3"/>
			<g>
				<circle class="st23" cx="116.2" cy="94.9" r="3"/>
			</g>
			<path class="st24" d="M92,86.4c-2.8-0.2-4.1,0-6.3,1.6c-0.2,0.1-0.3,0.3-0.4,0.6c0,0.3,0,0.5,0.2,0.7c0.2,0.2,0.4,0.3,0.7,0.3
				c0.2,0,0.4-0.1,0.5-0.2c1.9-1.2,2.7-1.3,5.1-1.2c0.5,0,0.9-0.3,1-0.8c0-0.3,0-0.5-0.2-0.7C92.5,86.5,92.3,86.4,92,86.4z"/>
			<path class="st24" d="M121.1,88c-2.3-1.6-3.5-1.8-6.3-1.6c-0.2,0-0.4,0.1-0.6,0.3c-0.2,0.2-0.2,0.5-0.2,0.7
				c0.1,0.5,0.5,0.8,1,0.8c2.4-0.1,3.1,0,5.1,1.2c0.2,0.1,0.4,0.2,0.5,0.2c0.3,0,0.5-0.1,0.7-0.3c0.2-0.2,0.2-0.5,0.2-0.7
				C121.5,88.3,121.3,88.1,121.1,88z"/>
			<path class="st21" d="M103.5,47.5C103.4,47.5,103.4,47.5,103.5,47.5C103.4,47.5,103.4,47.5,103.5,47.5
				c-16.3,0-33.6,7.4-33.6,40.2c0,2.6,14.9-12.4,33.6-12.4s33.6,15,33.6,12.4C137,54.9,119.6,47.5,103.5,47.5z"/>
			<path class="st21" d="M107.5,72.9c0,0-5.4,8.9-15.8,12.4c-10.4,3.5-21.9,0.3-21.9,0.3s5.4-8.9,15.8-12.4
				C96.1,69.7,107.5,72.9,107.5,72.9z"/>
			<path class="st21" d="M137,85.9c0,0-11.5,3.1-21.9-0.4S99.4,72.9,99.4,72.9s11.5-3.1,21.9,0.4C131.7,77,137,85.9,137,85.9z"/>
			<path class="st25" d="M93.1,235c-6.6-5.6-9.2-13.4-5.8-17.4c3.4-4,11.5-2.7,18.1,2.9c6.6,5.6,5.8,10.5,2.4,14.5
				C104.4,238.9,99.7,240.6,93.1,235z"/>
			<path class="st14" d="M99,224.7l-3.9,4.8c-1.6,1.9-4.1,2.3-5.6,0.9l-32.6-30c-1.5-1.4-1.5-4.1,0.1-6l3.9-4.8
				c1.6-1.9,4.1-2.3,5.6-0.9l32.6,30C100.7,220.1,100.6,222.8,99,224.7z"/>
			<path class="st25" d="M124.3,241.3c4.7-7.3,4.9-15.5,0.5-18.4c-4.4-2.8-11.8,0.8-16.5,8.1c-4.7,7.3-2.5,11.7,2,14.5
				C114.6,248.4,119.6,248.6,124.3,241.3z"/>
			<path class="st14" d="M115.6,233.3l5.2,3.4c2.1,1.4,4.6,1,5.6-0.7l22.3-38.2c1-1.8,0.2-4.4-1.9-5.7l-5.2-3.4
				c-2.1-1.4-4.6-1-5.6,0.7l-22.3,38.2C112.7,229.3,113.5,231.9,115.6,233.3z"/>
			<path class="st26" d="M99.8,113.5c2.7-0.2,5.3,0,7.9,0.8c1.5,0.4,0.9,2.7-0.7,2.2c-2.4-0.7-4.8-0.9-7.3-0.7
				C98.2,116,98.3,113.6,99.8,113.5z"/>
		</g>
	</g>
</g>
</svg>
