<?xml version="1.0" encoding="utf-8"?>
<!-- Generator: Adobe Illustrator 22.1.0, SVG Export Plug-In . SVG Version: 6.00 Build 0)  -->
<svg version="1.1" id="Layer_1" xmlns="http://www.w3.org/2000/svg" xmlns:xlink="http://www.w3.org/1999/xlink" x="0px" y="0px"
	 viewBox="0 0 306 306" style="enable-background:new 0 0 306 306;" xml:space="preserve">
<style type="text/css">
	.st0{fill:#DEFCF2;}
	.st1{clip-path:url(#SVGID_2_);}
	.st2{fill:#008078;stroke:#008078;stroke-width:0.531;stroke-linecap:round;stroke-linejoin:round;stroke-miterlimit:10;}
	.st3{fill:#C3996B;}
	.st4{fill:#00A79D;}
	.st5{fill:#CCCCCC;}
	.st6{fill:#4D4D4D;}
	.st7{fill:#A6A8AB;}
	.st8{fill:#7B1D1C;}
	.st9{fill:none;stroke:#A6A8AB;stroke-width:1.6424;stroke-linecap:round;stroke-linejoin:round;stroke-miterlimit:10;}
	.st10{fill:#A87C4F;}
	.st11{fill:#A87C4F;stroke:#A87C4F;stroke-width:0.5654;stroke-linecap:round;stroke-linejoin:round;stroke-miterlimit:10;}
	.st12{fill:#CA6B4F;}
	.st13{fill:#1A1A1A;}
	.st14{fill:#5E351E;}
	.st15{fill:#262261;}
	.st16{fill:#472919;}
	.st17{fill:#56331D;}
	.st18{fill:#472919;stroke:#472919;stroke-linecap:round;stroke-miterlimit:10;}
	.st19{opacity:0.2;fill:#F2F2F2;}
	.st20{fill:#561B06;}
</style>
<g>
	<circle class="st0" cx="153" cy="153" r="153"/>
	<g>
		<defs>
			<circle id="SVGID_1_" cx="153" cy="153" r="153"/>
		</defs>
		<clipPath id="SVGID_2_">
			<use xlink:href="#SVGID_1_"  style="overflow:visible;"/>
		</clipPath>
		<g class="st1">
			<g>
				<path class="st2" d="M105.6,386.1l-2.3,0c-7,0-11.2-5.8-11.1-12.8l-1.4-69.2c0-7,5.8-12.8,12.8-12.8l2.3,0
					c7,0,12.8,5.8,12.8,12.8l-1.8,69.2C116.8,380.4,112.6,386.2,105.6,386.1z"/>
				<path class="st2" d="M71.7,386.3l-2.3,0c-7,0-11.2-5.8-11.1-12.8l-1.4-69.2c0-7,5.8-12.8,12.8-12.8l2.3,0
					c7,0,12.8,5.8,12.8,12.8l-1.8,69.2C82.9,380.5,78.8,386.3,71.7,386.3z"/>
				<path class="st2" d="M70.7,314.7L70.7,314.7c-7.7,0-14-5.8-14-12.8l-1.8-69.2c0-7,8.1-12.8,15.7-12.8h0
					c7.7,0,15.7,5.8,15.7,12.8l-1.8,69.2C84.7,309,78.4,314.7,70.7,314.7z"/>
				<path class="st2" d="M104.5,314.5L104.5,314.5c-7.7,0-14-5.8-14-12.8l-1.8-69.2c0-7,8.1-12.8,15.7-12.8h0
					c7.7,0,15.7,5.8,15.7,12.8l-1.8,69.2C118.5,308.7,112.2,314.5,104.5,314.5z"/>
				<path class="st3" d="M141.1,279.6h-11.2c-2.5,0-4.5-2-4.5-4.5v-68.2c0-5.4,4.4-9.7,9.7-9.7h0.8c5.4,0,9.7,4.4,9.7,9.7v68.2
					C145.7,277.6,143.6,279.6,141.1,279.6z"/>
				<path class="st3" d="M138.8,215.5l-2,0.6c-4.8,1.5-9.9-1.7-11.3-7l-15.8-55c-1.4-5.4,2.8-11.4,7.6-12.9l2-0.6
					c4.8-1.5,11.3,1.3,12.7,6.6l13.1,55.8C146.3,208.4,143.6,214.1,138.8,215.5z"/>
				<path class="st3" d="M140.4,284.8h-11.5c-3.3,0-6.1-2.7-6.1-6.1v-9.7c0-6.2,5.1-11.3,11.3-11.3h0.9c6.2,0,11.3,5.1,11.3,11.3
					v9.7C146.4,282.1,143.7,284.8,140.4,284.8z"/>
				<path class="st4" d="M141.1,183.1l-8.1-34.9c-1.5-5.9-8.4-8.9-13.5-7.3l-3.4,1c-5.1,1.6-8.6,7.2-7.1,13l9.7,33.7
					C127.2,187.9,134.7,186.1,141.1,183.1z"/>
				<g>
					<path class="st3" d="M36.7,105.9l-10.7-2.3c-2.5-0.5-5,1.1-5.5,3.6L6.2,173.7c-1.1,5.2,2.2,10.4,7.5,11.6l0.7,0.2
						c5.2,1.1,10.4-2.2,11.6-7.5l14.4-66.5C40.9,108.9,39.3,106.5,36.7,105.9z"/>
					<path class="st3" d="M39.3,99.2l-12-2.6c-3-0.7-6.1,1.3-6.7,4.3l-2.1,9.8c-1.3,6.1,2.6,12.2,8.7,13.5l0.9,0.2
						c6.1,1.3,12.2-2.6,13.5-8.7l2.1-9.8C44.3,102.8,42.3,99.8,39.3,99.2z"/>
				</g>
				<g>
					<path class="st3" d="M7,180.1l1,1.8c2.4,4.4,8.2,5.8,13,2.9l41.9-23c4.8-2.8,6.1-10.1,3.7-14.5l-1-1.8
						c-2.4-4.4-8.9-7.1-13.7-4.2l-40.5,25.6C6.6,169.7,4.7,175.7,7,180.1z"/>
					<path class="st4" d="M28.2,155.4l22.2-14.3c5.2-3.1,12.2-0.4,14.7,4.3l1.7,3.1c2.5,4.7,1,11.2-4.2,14.2L40.2,175
						C34.7,169.3,30.9,162.7,28.2,155.4z"/>
				</g>
				<g>
					<path id="XMLID_25_" class="st4" d="M125.1,152c1.3-3.3,2.2-11.7-2.9-11.7l-33.5-4.9h-2.1L53,140.3c-5.1,0-4.1,8.5-2.9,11.7
						c2,5.1,2.8,6.2,3.1,10.7c0,0.1,0,0.1,0,0.2l0.1,67.2c0,1.4,1.1,2.6,2.6,2.6h63.4c1.4,0,2.6-1.1,2.6-2.6l0.1-67.2
						c0-0.1,0-0.1,0-0.2C122.3,158.2,123.1,157.1,125.1,152z"/>
					<path class="st2" d="M55,235c0,8.5,7.6,15.5,16.9,15.5h0.2h30.9h0.2c9.3,0,16.9-7,16.9-15.5l0.1-2.3H55L55,235z"/>
				</g>
				<g>
					<g>
						<path class="st5" d="M83.5,372c-12.3-0.1-13.8,0.1-25.3-0.5c0,0-9.8,6.3-9.8,6.3c-2.4,1.4-5,3-6.5,5.2
							c-2.7,4-1.1,8.3,2.7,10.9c4.1,2.8,8.8,2,13.3,0.8c0,0,16.6-4.3,16.6-4.3C81.3,388,86.4,384.9,83.5,372z"/>
						<g>
							<path class="st6" d="M51,375.1c4.4-0.2,8.5,2.4,10.4,6.3c0.9,1.9-2,3.3-2.9,1.4c-1.5-3-4.4-4.6-7.7-4.5
								C48.6,378.4,48.9,375.2,51,375.1L51,375.1z"/>
						</g>
						<g>
							<path class="st6" d="M55.5,371.8c4.4,0,8.3,2.8,10.1,6.8c0.8,1.9-2.2,3.2-3,1.3c-1.3-3.1-4.2-4.8-7.5-4.9
								C53.1,375,53.5,371.8,55.5,371.8L55.5,371.8z"/>
						</g>
					</g>
					<path class="st4" d="M57.6,365.6l26.4,0.1c0.3,0,0.6,0.3,0.6,0.6l0,5.1c0,0.3-0.3,0.6-0.6,0.6L57.5,372c-0.3,0-0.6-0.3-0.6-0.6
						l0-5.1C57,365.9,57.2,365.6,57.6,365.6z"/>
				</g>
				<g>
					<g>
						<g>
							<path class="st7" d="M104.5,201.7c-8,0-8-9-8-12.8v-5.2c0-0.7,0.6-1.3,1.3-1.3s1.3,0.6,1.3,1.3v5.2c0,7.3,1.5,10.1,5.3,10.1
								c0.7,0,1.3,0.6,1.3,1.3C105.8,201.1,105.2,201.7,104.5,201.7z"/>
						</g>
						<circle class="st8" cx="104.5" cy="200.6" r="2.8"/>
						<g>
							<path class="st7" d="M112.6,201.6c8,0,8-9,8-12.8v-5.2c0-0.7-0.6-1.3-1.3-1.3s-1.3,0.6-1.3,1.3v5.2c0,7.3-1.5,10.1-5.3,10.1
								c-0.7,0-1.3,0.6-1.3,1.3C111.3,201,111.9,201.6,112.6,201.6z"/>
						</g>
						<circle class="st8" cx="112.6" cy="200.6" r="2.8"/>
						<g>
							<path class="st8" d="M119.1,187.4c-1.5,0-2.7-1.2-2.7-2.7v-10.6c0-4.4-3.6-7.9-7.9-7.9s-7.9,3.6-7.9,7.9v10.6
								c0,1.5-1.2,2.7-2.7,2.7c-1.5,0-2.7-1.2-2.7-2.7v-10.6c0-7.3,6-13.3,13.3-13.3c7.3,0,13.3,6,13.3,13.3v10.6
								C121.8,186.2,120.6,187.4,119.1,187.4z"/>
						</g>
						<path class="st9" d="M125.4,185.3"/>
					</g>
					<g>
						<path class="st8" d="M108.7,164.7c-1.5,0-2.7-1.2-2.7-2.7v-15c0-5.1-4.1-9.2-9.2-9.2h-5.5c-1.5,0-2.7-1.2-2.7-2.7
							s1.2-2.7,2.7-2.7h5.5c8,0,14.5,6.5,14.5,14.5v15C111.4,163.5,110.2,164.7,108.7,164.7z"/>
					</g>
				</g>
				<g>
					<circle class="st7" cx="67" cy="168.5" r="9.4"/>
					<circle class="st8" cx="67.1" cy="168.5" r="5.1"/>
					<g>
						<path class="st8" d="M67.2,166.9C67.2,166.9,67.2,166.9,67.2,166.9c-1.6-0.1-2.7-1.3-2.7-2.8l0.6-17.2
							c0-7.9,6.5-14.5,14.5-14.5H86c1.5,0,2.7,1.2,2.7,2.7c0,1.5-1.2,2.7-2.7,2.7h-6.3c-5.1,0-9.2,4.1-9.2,9.2l-0.6,17.3
							C69.8,165.8,68.7,166.9,67.2,166.9z"/>
					</g>
				</g>
				<g>
					<path class="st10" d="M87.8,160.1L87.8,160.1l-10.3-21.3c-0.3-0.6-0.5-1.2-0.5-1.8v-13.3c0-2.2,1.7-3.9,3.9-3.9h13.8
						c2.2,0,3.9,1.7,3.9,3.9v13.3c0,0.6-0.2,1.3-0.5,1.8L87.8,160.1z"/>
				</g>
				<g>
					<path class="st3" d="M121.3,95.3c-0.1,0-0.1,0-0.2,0c0.1-1.1,0.1-2.3,0.1-3.4c0-23.3-14.9-38.1-33.5-38.1
						C69.2,53.8,54,68.7,54,91.9c0,1.1,0,2.3,0.1,3.4c-6.6,0.3-6.5,11.3,0.3,11.3c0.6,0,1.2-0.1,1.7-0.3
						c3.4,11.7,10.8,20.9,20.1,25.1c0.7,0.3,6,2.4,11.3,2.5c5.4,0,10.9-2.1,11.6-2.5c9.4-4.2,16.8-13.6,20.2-25.3
						c0.6,0.3,1.3,0.4,2.1,0.4C128.3,106.7,128.3,95.3,121.3,95.3z"/>
					<path class="st11" d="M121,103c1,0.2,2-0.6,2.1-1.7s-0.6-2.1-1.6-2.3"/>
					<path class="st11" d="M54.8,103c-1,0.2-2-0.6-2.1-1.7c-0.2-1.1,0.6-2.1,1.6-2.3"/>
				</g>
				<path d="M95.2,50.8c16.3,3,26.8,10.9,25.2,15.2c0,0,7.1,11.1,3.7,27.7c-0.8,4.1-5.2,2.1-5.4-1.4c-0.2-4.3-2.7-15.2-4.2-19.1
					c-5.8,3-17.3,5-30.6,5c-8.8,0-16.7-0.9-22.8-2.4c-1.5,4.9-3.2,12.9-3.3,16.4c-0.2,3.5-3.8,5.3-5.4,1.4C50.9,90,51.5,79.1,53,73
					C43.7,66.4,66.3,45.4,95.2,50.8z"/>
				<circle cx="73.3" cy="98.5" r="3.3"/>
				<circle cx="102.5" cy="98.5" r="3.3"/>
				<g>
					<path class="st10" d="M87.9,110.5L87.9,110.5c-1.3,0-2.7-0.2-2.7-1.1l0.2-3.5c0-0.9,1.1-1.2,2.4-1.2l0,0c1.3,0,2.4,0.3,2.4,1.2
						l0.3,3.5C90.6,110.3,89.2,110.5,87.9,110.5z"/>
				</g>
				<path class="st12" d="M86.8,121.2c-1.8-0.1-3.6-0.7-5-2c-0.5-0.4-0.5-1.1-0.1-1.6c0.4-0.5,1.1-0.5,1.6-0.1
					c2.5,2.2,7.5,1.6,9.3,0c0.5-0.4,1.2-0.4,1.6,0.1c0.4,0.5,0.4,1.2-0.1,1.6C92.6,120.5,89.6,121.4,86.8,121.2z"/>
				<path d="M68.7,89.9c-0.5,0-1-0.3-1.3-0.8c-0.4-0.7-0.2-1.6,0.5-2.1c2.3-1.3,5.1-1.8,7.7-1.3c0.8,0.2,1.3,0.9,1.2,1.8
					c-0.2,0.8-0.9,1.4-1.8,1.2c-1.9-0.4-4,0-5.6,1C69.2,89.8,69,89.9,68.7,89.9z"/>
				<path d="M106.8,89.9c0.5,0,1-0.3,1.3-0.8c0.4-0.7,0.2-1.6-0.5-2.1c-2.3-1.3-5.1-1.8-7.7-1.3c-0.8,0.2-1.3,0.9-1.2,1.8
					c0.2,0.8,0.9,1.4,1.8,1.2c1.9-0.4,4,0,5.6,1C106.3,89.8,106.6,89.9,106.8,89.9z"/>
				<g>
					<g>
						<path class="st5" d="M91.7,372c12.3-0.1,13.8,0.1,25.3-0.5c0,0,9.8,6.3,9.8,6.3c2.4,1.4,5,3,6.5,5.2c2.7,4,1.1,8.3-2.7,10.9
							c-4.1,2.8-8.8,2-13.3,0.8c0,0-16.6-4.3-16.6-4.3C93.8,388,88.7,384.9,91.7,372z"/>
						<g>
							<path class="st6" d="M124.2,375.1c-4.4-0.2-8.5,2.4-10.4,6.3c-0.9,1.9,2,3.3,2.9,1.4c1.5-3,4.4-4.6,7.7-4.5
								C126.5,378.4,126.3,375.2,124.2,375.1L124.2,375.1z"/>
						</g>
						<g>
							<path class="st6" d="M119.6,371.8c-4.4,0-8.3,2.8-10.1,6.8c-0.8,1.9,2.2,3.2,3,1.3c1.3-3.1,4.2-4.8,7.5-4.9
								C122.1,375,121.7,371.8,119.6,371.8L119.6,371.8z"/>
						</g>
					</g>
					<path class="st4" d="M117.6,365.6l-26.4,0.1c-0.3,0-0.6,0.3-0.6,0.6l0,5.1c0,0.3,0.3,0.6,0.6,0.6l26.4-0.1
						c0.3,0,0.6-0.3,0.6-0.6l0-5.1C118.2,365.9,117.9,365.6,117.6,365.6z"/>
				</g>
			</g>
			<g>
				<path class="st13" d="M207.3,128.7c-3.1,4.3-10.5,4.4-16.6,0c-6.1-4.3-8.5-11.4-5.4-15.7c3.1-4.3,11.7-6.4,17.8-2
					C209.1,115.3,210.4,124.4,207.3,128.7z"/>
				<g>
					<path class="st2" d="M209,309.1L209,309.1c-7.8,0-17.8-5.8-17.8-12.8l-5.4-69.2c0-7,15.4-12.8,23.2-12.8h0
						c7.8,0,23.2,5.8,23.2,12.8l-5.4,69.2C226.8,303.3,216.8,309.1,209,309.1z"/>
					<path class="st2" d="M209,377.8L209,377.8c-7.8,0-14.2-5.8-14.2-12.8l-3.6-69.2c0-7,10-12.8,17.8-12.8h0
						c7.8,0,17.8,5.8,17.8,12.8l-3.6,69.2C223.2,372,216.8,377.8,209,377.8z"/>
				</g>
				<g>
					<path class="st2" d="M248.8,309.1L248.8,309.1c-7.8,0-17.8-5.8-17.8-12.8l-5.4-69.2c0-7,15.4-12.8,23.2-12.8h0
						c7.8,0,23.2,5.8,23.2,12.8l-5.4,69.2C266.6,303.3,256.6,309.1,248.8,309.1z"/>
					<path class="st2" d="M248.8,377.8L248.8,377.8c-7.8,0-14.2-5.8-14.2-12.8l-3.6-69.2c0-7,10-12.8,17.8-12.8h0
						c7.8,0,17.8,5.8,17.8,12.8L263,365C263,372,256.6,377.8,248.8,377.8z"/>
				</g>
				<g>
					<defs>
						<path id="XMLID_24_" d="M263.8,138.1l-33.6-6.5h-2.6l-33.6,6.5c-5.2,0-2.6,10.1-1.3,13.4c1.8,4.7,1.2,34.2,1,35.5l-7.8,36.9
							c-1.4,8.8-2.2,21.2,0.1,21.2h85.7c2.4,0,1.6-12.4,0.1-21.2l-7.8-36.9c-0.2-1.3-0.8-30.8,1-35.5
							C266.4,148.2,269,138.1,263.8,138.1z"/>
					</defs>
					<use xlink:href="#XMLID_24_"  style="overflow:visible;fill:#00A79D;"/>
					<clipPath id="XMLID_2_">
						<use xlink:href="#XMLID_24_"  style="overflow:visible;"/>
					</clipPath>
				</g>
				<g>
					<path class="st14" d="M148.7,109.1L148.7,109.1c5.9-1.7,12,1.3,13.4,6.7l13,48c1.5,5.4-2.2,11.2-8.1,12.9h0
						c-5.9,1.7-12-1.3-13.4-6.7l-13-48C139.2,116.6,142.8,110.8,148.7,109.1z"/>
					<path class="st14" d="M152.4,127.3L152.4,127.3c-6.8,0.6-13.1-4-14-10.2l-0.9-6.1c-0.9-6.2,3.9-11.7,10.7-12.3h0
						c6.8-0.6,13.1,4,14,10.2l0.9,6.1C164,121.2,159.2,126.7,152.4,127.3z"/>
				</g>
				<path class="st14" d="M155.2,172L155.2,172c-3.4-5.1-2.1-11.5,2.8-14.3l34.1-18.5c4.9-2.8,11.7-0.9,15.1,4.1l0,0
					c3.4,5.1,2.1,11.5-2.8,14.3l-34.1,18.5C165.3,178.9,158.5,177,155.2,172z"/>
				<g>
					<g>
						<path class="st5" d="M222.4,370.9c-12.9-0.1-14.5,0.1-26.5-0.5c0,0-10.3,6.6-10.3,6.6c-2.5,1.5-5.3,3.1-6.9,5.5
							c-2.8,4.2-1.2,8.7,2.8,11.4c4.3,2.9,9.2,2.1,14,0.9c0,0,17.4-4.5,17.4-4.5C220.2,387.7,225.5,384.4,222.4,370.9z"/>
						<g>
							<path class="st6" d="M188.3,374.2c4.6-0.2,8.9,2.5,10.9,6.6c1,2-2.1,3.4-3.1,1.5c-1.5-3.1-4.6-4.9-8.1-4.7
								C185.8,377.6,186.1,374.3,188.3,374.2L188.3,374.2z"/>
						</g>
						<g>
							<path class="st6" d="M193.1,370.7c4.6,0,8.7,2.9,10.6,7.1c0.9,2-2.3,3.3-3.1,1.3c-1.4-3.2-4.4-5.1-7.9-5.1
								C190.5,374.1,190.9,370.7,193.1,370.7L193.1,370.7z"/>
						</g>
					</g>
					<path class="st4" d="M195.2,364.2l27.8,0.1c0.3,0,0.6,0.3,0.6,0.6l0,5.4c0,0.3-0.3,0.6-0.6,0.6l-27.8-0.1
						c-0.3,0-0.6-0.3-0.6-0.6l0-5.4C194.6,364.5,194.9,364.2,195.2,364.2z"/>
				</g>
				<g>
					<path class="st5" d="M235.5,370.9c12.9,0,14.5,0.2,26.5-0.4c0,0,10.2,6.6,10.2,6.6c2.5,1.5,5.3,3.1,6.8,5.5
						c2.8,4.3,1.1,8.7-2.9,11.4c-4.3,2.9-9.2,2-14,0.8c0,0-17.4-4.6-17.4-4.6C237.7,387.6,232.3,384.3,235.5,370.9z"/>
					<path class="st6" d="M269.6,374.3c-4.6-0.2-8.9,2.5-10.9,6.6c-1,2,2.1,3.5,3,1.5c1.6-3.1,4.7-4.8,8.1-4.7
						C272,377.8,271.8,374.4,269.6,374.3L269.6,374.3z"/>
					<path class="st6" d="M264.8,370.8c-4.6,0-8.8,2.9-10.6,7.1c-0.9,2,2.2,3.4,3.1,1.3c1.4-3.2,4.4-5.1,7.9-5.1
						C267.4,374.2,267,370.8,264.8,370.8L264.8,370.8z"/>
					<path class="st4" d="M262.8,364.3l-27.8-0.1c-0.3,0-0.6,0.3-0.6,0.6l0,5.4c0,0.3,0.3,0.6,0.6,0.6l27.8,0.1
						c0.3,0,0.6-0.3,0.6-0.6l0-5.4C263.4,364.6,263.1,364.3,262.8,364.3z"/>
				</g>
				<path class="st4" d="M171,149.4l22-11c5.4-2.8,12.3,0.2,14.6,5.1l1.6,3.2c2.2,4.8,0.3,11.2-5.1,14l-22.1,9
					C176.7,163.7,173.3,156.8,171,149.4z"/>
				<g>
					<path class="st14" d="M281.1,255.3L281.1,255.3c6.2-0.1,11.1-4.7,10.9-10.3l-1.5-49.7c-0.2-5.6-5.4-10.1-11.5-10h0
						c-6.2,0.1-11.1,4.7-10.9,10.3l1.5,49.7C269.8,250.9,275,255.4,281.1,255.3z"/>
					<path class="st14" d="M281.5,238.7L281.5,238.7c-6.8-0.8-13.2,3.6-14.4,9.7l-1.1,6.1c-1.1,6.2,3.5,11.9,10.2,12.7h0
						c6.8,0.8,13.2-3.6,14.4-9.7l1.1-6.1C292.8,245.2,288.2,239.5,281.5,238.7z"/>
					<path class="st14" d="M282.9,205.7L282.9,205.7c5.9-1.7,9-7.4,7.1-12.7l-17.4-47.3c-2-5.3-8.3-8.3-14.2-6.6l0,0
						c-5.9,1.7-9,7.4-7.1,12.7l17.4,47.3C270.6,204.4,277,207.4,282.9,205.7z"/>
				</g>
				<path class="st4" d="M285.3,178.2l-12.9-33.8c-2.3-5.6-9.6-7.8-14.4-5.5l-3.2,1.4c-4.8,2.3-7.5,8.4-5.2,14l14.4,32.4
					C271.7,185.4,278.8,182.4,285.3,178.2z"/>
				<g>
					<g>
						<g>
							<path class="st7" d="M212.5,199.6c8,0,8-9,8-12.8v-5.2c0-0.7-0.6-1.3-1.3-1.3c-0.7,0-1.3,0.6-1.3,1.3v5.2
								c0,7.3-1.5,10.1-5.3,10.1c-0.7,0-1.3,0.6-1.3,1.3C211.2,199,211.8,199.6,212.5,199.6z"/>
						</g>
						<circle class="st15" cx="212.5" cy="198.6" r="2.8"/>
						<g>
							<path class="st7" d="M204.4,199.6c-8,0-8-9-8-12.8v-5.2c0-0.7,0.6-1.3,1.3-1.3c0.7,0,1.3,0.6,1.3,1.3v5.2
								c0,7.3,1.5,10.1,5.3,10.1c0.7,0,1.3,0.6,1.3,1.3C205.7,199,205.1,199.6,204.4,199.6z"/>
						</g>
						<circle class="st15" cx="204.4" cy="198.5" r="2.8"/>
						<g>
							<path class="st15" d="M197.9,185.3c1.5,0,2.7-1.2,2.7-2.7V172c0-4.4,3.6-7.9,7.9-7.9c4.4,0,7.9,3.6,7.9,7.9v10.6
								c0,1.5,1.2,2.7,2.7,2.7s2.7-1.2,2.7-2.7V172c0-7.3-6-13.3-13.3-13.3c-7.3,0-13.3,6-13.3,13.3v10.6
								C195.2,184.1,196.4,185.3,197.9,185.3z"/>
						</g>
						<path class="st9" d="M191.6,183.3"/>
					</g>
					<g>
						<path class="st15" d="M208.3,162.6c1.5,0,2.7-1.2,2.7-2.7v-15c0-5.1,4.1-9.2,9.2-9.2h5.5c1.5,0,2.7-1.2,2.7-2.7
							s-1.2-2.7-2.7-2.7h-5.5c-8,0-14.5,6.5-14.5,14.5v15C205.6,161.4,206.8,162.6,208.3,162.6z"/>
					</g>
				</g>
				<g>
					<circle class="st7" cx="250.8" cy="166.2" r="9.4"/>
					<circle class="st15" cx="250.7" cy="166.2" r="5.1"/>
					<g>
						<path class="st15" d="M250.6,164.6C250.6,164.6,250.6,164.6,250.6,164.6c1.6-0.1,2.7-1.3,2.7-2.8l-0.6-17.2
							c0-7.9-6.5-14.5-14.5-14.5h-6.3c-1.5,0-2.7,1.2-2.7,2.7s1.2,2.7,2.7,2.7h6.3c5.1,0,9.2,4.1,9.2,9.2l0.6,17.3
							C248,163.5,249.1,164.6,250.6,164.6z"/>
					</g>
				</g>
				<polygon class="st16" points="228.6,155.4 228.6,155.4 217.3,136.1 216.9,115.7 240.3,115.7 239.9,136.1 				"/>
				<g>
					<g>
						<path class="st17" d="M266.6,99.9c-0.1,0-0.1,0-0.2,0c0.1-1.2,0.1-2.3,0.1-3.5c0-24.2-17-39.7-38.1-39.7
							c-21.1,0-38.4,15.4-38.4,39.7c0,1.2,0,2.4,0.1,3.6c-7.5,0.3-7.4,11.8,0.3,11.8c0.7,0,1.3-0.1,1.9-0.3
							c3.9,12.1,10.7,16.4,21.3,20.8c0.8,0.3,8.4,2.5,14.5,2.6c6.2,0,14-2.2,14.8-2.6c10.6-4.4,17.5-8.7,21.3-20.9
							c0.7,0.3,1.5,0.4,2.3,0.4C274.5,111.7,274.5,99.9,266.6,99.9z"/>
					</g>
					<path class="st18" d="M265.8,107.3c1.1,0.2,2.2-0.6,2.3-1.6s-0.6-2.1-1.7-2.2"/>
					<path class="st18" d="M191.5,107.6c-1.1,0.2-2.2-0.6-2.3-1.6s0.6-2.1,1.7-2.2"/>
				</g>
				<circle cx="244.1" cy="98.3" r="3.6"/>
				<g>
					<circle cx="214.4" cy="98.3" r="3.6"/>
				</g>
				<path class="st16" d="M229,109.1L229,109.1c-2,0-3.9-0.2-3.9-0.8l0.4-1.7c0-0.7,1.6-1.2,3.6-1.2l0,0c2,0,3.6,0.5,3.6,1.2
					l0.4,1.7C232.9,109,231,109.1,229,109.1z"/>
				<g>
					<path d="M210,89.8c-0.2,0-0.4-0.1-0.6-0.3c-0.3-0.3-0.2-0.8,0.1-1.1c2.6-1.8,4-2,7.3-1.8c0.4,0,0.7,0.4,0.6,0.9
						s-0.4,0.7-0.9,0.6c-2.9-0.1-3.8,0-6.1,1.5C210.3,89.8,210.1,89.8,210,89.8z"/>
				</g>
				<g>
					<path d="M248.7,89.8c0.2,0,0.4-0.1,0.6-0.3c0.3-0.3,0.2-0.8-0.1-1.1c-2.6-1.8-4-2-7.3-1.8c-0.4,0-0.7,0.4-0.6,0.9
						s0.4,0.7,0.9,0.6c2.9-0.1,3.8,0,6.1,1.5C248.4,89.8,248.6,89.8,248.7,89.8z"/>
				</g>
				<path class="st19" d="M249.2,107.7h-13.3c-1.1,0-2-0.9-2-2v-7.2c0-1.1,0.9-2,2-2h13.3c1.1,0,2,0.9,2,2v7.2
					C251.2,106.7,250.3,107.7,249.2,107.7z"/>
				<path class="st19" d="M222.3,107.7H209c-1.1,0-2-0.9-2-2v-7.2c0-1.1,0.9-2,2-2h13.3c1.1,0,2,0.9,2,2v7.2
					C224.3,106.7,223.4,107.7,222.3,107.7z"/>
				<g>
					<path class="st6" d="M224.3,101.6c-0.4,0-0.8-0.3-1-0.7c-0.2-0.5,0.1-1.1,0.7-1.3c3.4-1.1,6.9-1.1,10.3,0
						c0.5,0.2,0.8,0.7,0.6,1.3c-0.2,0.5-0.7,0.8-1.3,0.7c-3-1-6-1-9,0C224.5,101.6,224.4,101.6,224.3,101.6z"/>
				</g>
				<g>
					<path class="st20" d="M228.1,119.8c-1.7,0-3.4-0.4-4.8-1.4c-0.5-0.3-0.5-1-0.2-1.5c0.3-0.5,1-0.5,1.5-0.2
						c2.4,1.9,7.1,0.9,8.6-0.7c0.4-0.4,1.1-0.4,1.5,0c0.4,0.4,0.4,1.1,0,1.5C233.4,118.8,230.8,119.8,228.1,119.8z"/>
				</g>
				<path class="st13" d="M269.6,78.7c-0.2-0.9-0.4-1.7-0.6-2.6c-1.7-6.5-5-12.7-9.9-17.2c-5.6-5.2-13-8-20.5-9.4
					c-10.6-1.9-21.9-0.8-31.4,4.3c-11.5,6.1-18.5,17.3-19.3,30.2c-0.3,4.3-0.1,8.6,0.6,12.8c0.3,1.8,1.1,3.9,2.9,4
					c1.1,0,2-0.8,2.5-1.8s0.6-2.1,0.9-3.1c0.8-3.2,2.9-6,5.7-7.8c3.4-2.1,7.5-2.6,11.4-3.2c12.8-2.1,25.1-6.9,36-13.9
					c7.2,8.2,7.3,21.5,15.8,28.4c1.2,1,2.9,1.8,4.4,1.2c1.5-0.7,2-2.6,2.1-4.3C270.7,90.4,270.7,84.4,269.6,78.7z"/>
			</g>
		</g>
	</g>
</g>
</svg>
