<?xml version="1.0" encoding="utf-8"?>
<!-- Generator: Adobe Illustrator 22.1.0, SVG Export Plug-In . SVG Version: 6.00 Build 0)  -->
<svg version="1.1" id="Layer_1" xmlns="http://www.w3.org/2000/svg" xmlns:xlink="http://www.w3.org/1999/xlink" x="0px" y="0px"
	 viewBox="0 0 306 306" style="enable-background:new 0 0 306 306;" xml:space="preserve">
<style type="text/css">
	.st0{fill:#E0F1EC;}
	.st1{clip-path:url(#SVGID_2_);}
	.st2{fill:#F2D3B0;}
	.st3{fill:#EBC09B;}
	.st4{fill:#353951;}
	.st5{fill:#3F4040;}
	.st6{fill:#2D3244;}
	.st7{fill:#C4CDD2;}
	.st8{fill:#E1B492;}
	.st9{fill:#D3A176;}
	.st10{fill:#402312;}
	.st11{opacity:0.35;fill:#F2F2F2;}
	.st12{fill:#4D4E4E;}
	.st13{fill:#D6E0E8;}
	.st14{fill:#8AA9BB;}
	.st15{fill:#484B67;}
	.st16{fill:#9C9EA5;}
	.st17{fill:#BB9050;}
	.st18{fill:#B5B7BF;}
	.st19{fill:#3D2D19;}
	.st20{fill:#7C8B5A;}
	.st21{fill:url(#SVGID_3_);}
	.st22{fill:#4D58A6;}
	.st23{fill:#AEB795;}
	.st24{fill:#F3D2AF;}
	.st25{fill:#DCB791;}
	.st26{fill:#3D2D19;stroke:#3E2E1A;stroke-miterlimit:10;}
	.st27{fill:#3C2913;}
	.st28{fill:#6D2712;}
	.st29{fill:#C55739;}
	.st30{fill:#A54224;}
</style>
<g>
	<circle class="st0" cx="153" cy="153" r="153"/>
	<g>
		<defs>
			<circle id="SVGID_1_" cx="153" cy="153" r="153"/>
		</defs>
		<clipPath id="SVGID_2_">
			<use xlink:href="#SVGID_1_"  style="overflow:visible;"/>
		</clipPath>
		<g class="st1">
			<g>
				<path class="st2" d="M248.8,259.2c2.3-3.7,5.4-6.7,8.7-8.3c3.5-1.8,6.9-1.9,9.5-0.2c2.6,1.6,4,4.7,3.9,8.6
					c-0.1,3.7-1.4,7.7-3.7,11.4c-2.3,3.7-5,5.9-7.9,6.5c-0.6,0.1-1.2,0.2-1.8,0.2c-2,0-4-0.7-6.1-2
					C247.1,272.9,243.3,267.9,248.8,259.2z"/>
				<path class="st2" d="M254.1,255.8l21.5-37.6c0.6-1.1,1.7-1.9,3-2.2c1.5-0.4,3.2,0,4.7,0.9l5.1,3.3c2.7,1.8,3.8,5.2,2.4,7.6
					l-21.5,37.6c-0.6,1.1-1.7,1.9-3,2.2c-0.4,0.1-0.8,0.1-1.3,0.1c-1.2,0-2.4-0.4-3.4-1l-5.1-3.3
					C253.8,261.7,252.7,258.3,254.1,255.8z"/>
			</g>
			<g>
				<path class="st2" d="M202,259.2c-2.3-3.7-5.4-6.7-8.7-8.3c-3.5-1.8-6.9-1.9-9.5-0.2c-2.6,1.6-4,4.7-3.9,8.6
					c0.1,3.7,1.4,7.7,3.7,11.4c2.3,3.7,5,5.9,7.9,6.5c0.6,0.1,1.2,0.2,1.8,0.2c2,0,4-0.7,6.1-2C203.7,272.9,207.5,267.9,202,259.2z"
					/>
				<path class="st2" d="M196.7,255.8l-21.5-37.6c-0.6-1.1-1.7-1.9-3-2.2c-1.5-0.4-3.2,0-4.7,0.9l-5.1,3.3c-2.7,1.8-3.8,5.2-2.4,7.6
					l21.5,37.6c0.6,1.1,1.7,1.9,3,2.2c0.4,0.1,0.8,0.1,1.3,0.1c1.2,0,2.4-0.4,3.4-1l5.1-3.3C197,261.7,198.1,258.3,196.7,255.8z"/>
			</g>
			<path class="st3" d="M73.9,56.3L73.9,56.3c-3.9-6.6-2.2-15.2,3.6-19.1l5.8-3.9c5.8-3.9,13.8-1.7,17.6,4.9l0,0
				c3.9,6.6,2.2,15.2-3.6,19.1l-5.8,3.9C85.7,65.1,77.8,62.9,73.9,56.3z"/>
			<path class="st4" d="M85.3,57.9l-8.8-11.2c-2.1-2.7-6.1-3.2-8.8-1.1l-51,40c-2.7,2.1-3.2,6.1-1.1,8.8l8.8,11.2
				c2.1,2.7,6.1,3.2,8.8,1.1l51-40C87,64.6,87.5,60.6,85.3,57.9z"/>
			<path class="st5" d="M93.7,404.6c-11.2,2.3-31.3-0.1-35.9-1.5c0,0-20.1,12.5-22.4,15.9c-4.1,5.9-3.6,14.1,2,18.2
				c6,4.4,14.6,1.9,21.4,0.4c0,0,23.2-5.6,23.2-5.6C92.3,428.5,97.6,424.2,93.7,404.6z"/>
			<path class="st5" d="M108.7,404.6c11.2,2.3,31.3-0.1,35.9-1.5c0,0,20.1,12.5,22.4,15.9c4.1,5.9,3.6,14.1-2,18.2
				c-6,4.4-14.6,1.9-21.4,0.4c0,0-23.2-5.6-23.2-5.6C110.1,428.5,104.7,424.2,108.7,404.6z"/>
			<polygon class="st6" points="99.9,279 50.8,279 50.8,406.5 95.9,406.5 			"/>
			<polygon class="st6" points="151.5,279 102.4,279 106.4,406.5 151.5,406.5 			"/>
			<rect x="50.8" y="262" class="st6" width="100.7" height="25.2"/>
			<polygon class="st7" points="77.7,125.5 124.6,125.4 124.5,119.4 77.7,119.5 			"/>
			<path class="st4" d="M25.4,80.3l-3.2,1.8c-5.6,3.2-8.1,9.8-5.5,14.8l26.8,58.6c2.6,4.9,12.6,4.5,18.2,1.3l3.2-1.8
				c5.6-3.2,11.3-11.7,8.7-16.6L40.3,83.4C37.7,78.5,31,77.1,25.4,80.3z"/>
			<g>
				<rect x="82.5" y="124.2" class="st8" width="37.3" height="7"/>
				<path class="st8" d="M107.2,136.9h-12c-4.4,0-7.9-3.5-7.9-7.9v-26.5c0-0.9,0.7-1.6,1.6-1.6h24.8c0.9,0,1.6,0.7,1.6,1.6V129
					C115.1,133.3,111.5,136.9,107.2,136.9z"/>
			</g>
			<path class="st3" d="M144.3,78.5c-0.1,0-0.1,0-0.2,0c0.1-1.3,0.1-6.5,0.1-7.8c0-26-19.3-38.6-43.2-38.6
				c-24,0-43.6,12.6-43.6,38.6c0,1.3,0,6.6,0.1,7.8C49,78.9,49.2,91.2,58,91.2c0.8,0,1.5-0.1,2.1-0.3c4.4,13,13.9,23.4,26,28.1
				c0.9,0.3,7.7,2.7,14.6,2.7c7,0,14-2.4,14.9-2.7c12.1-4.7,21.6-15.2,26-28.3c0.8,0.3,1.7,0.5,2.7,0.5
				C153.3,91.2,153.2,78.5,144.3,78.5z"/>
			<g>
				<path class="st9" d="M144.8,87.3c1.3,0.2,2.6-0.6,2.8-1.9c0.2-1.2-0.7-2.3-2-2.5"/>
				<path class="st9" d="M145.1,87.6c-0.1,0-0.3,0-0.4,0c-0.2,0-0.3-0.2-0.3-0.4c0-0.2,0.2-0.3,0.4-0.3c1.2,0.2,2.2-0.6,2.4-1.6
					c0.1-0.5,0-0.9-0.3-1.3c-0.3-0.4-0.9-0.7-1.4-0.8c-0.2,0-0.3-0.2-0.3-0.4c0-0.2,0.2-0.3,0.4-0.3c0.8,0.1,1.4,0.5,1.9,1.1
					c0.4,0.5,0.5,1.2,0.4,1.8C147.6,86.8,146.5,87.6,145.1,87.6z"/>
			</g>
			<g>
				<path class="st9" d="M58.4,87.1c-1.3,0.2-2.6-0.6-2.8-1.9c-0.2-1.2,0.7-2.3,2-2.5"/>
				<path class="st9" d="M58,87.4c-1.3,0-2.5-0.9-2.7-2.1c-0.1-0.6,0.1-1.3,0.4-1.8c0.4-0.6,1.1-1,1.9-1.1c0.2,0,0.3,0.1,0.4,0.3
					c0,0.2-0.1,0.3-0.3,0.4c-0.6,0.1-1.1,0.4-1.4,0.8c-0.3,0.4-0.4,0.9-0.3,1.3c0.2,1,1.3,1.8,2.4,1.6c0.2,0,0.3,0.1,0.4,0.3
					c0,0.2-0.1,0.3-0.3,0.4C58.3,87.4,58.2,87.4,58,87.4z"/>
			</g>
			<circle class="st10" cx="117.6" cy="79.3" r="3.9"/>
			<g>
				<circle class="st10" cx="85.1" cy="79.3" r="3.9"/>
			</g>
			<g>
				<path class="st9" d="M100.8,93.1L100.8,93.1c-1.5,0-3-0.4-3-1.9l0.3-6.2c0-1.5,1.2-3.2,2.7-3.2h0c1.5,0,2.7,1.7,2.7,3.2l0.3,6.2
					C103.8,92.7,102.3,93.1,100.8,93.1z"/>
			</g>
			<g>
				<path class="st5" d="M79.2,69.5c-0.7,0-1.3-0.3-1.6-0.9c-0.5-0.9-0.2-2.1,0.7-2.6c2.9-1.7,6.4-2.3,9.7-1.6
					c1,0.2,1.7,1.2,1.5,2.2c-0.2,1-1.2,1.7-2.2,1.5c-2.4-0.4-5,0-7.1,1.2C79.9,69.4,79.5,69.5,79.2,69.5z"/>
			</g>
			<g>
				<path class="st5" d="M123.1,69.5c0.7,0,1.3-0.3,1.6-0.9c0.5-0.9,0.2-2.1-0.7-2.6c-2.9-1.7-6.4-2.3-9.7-1.6
					c-1,0.2-1.7,1.2-1.5,2.2c0.2,1,1.2,1.7,2.2,1.5c2.4-0.4,5,0,7.1,1.2C122.4,69.4,122.8,69.5,123.1,69.5z"/>
			</g>
			<path class="st5" d="M57.6,78.5c0,0-2.3-28.2,8.1-34.1S57.6,78.5,57.6,78.5z"/>
			<path class="st5" d="M144.3,78.5c0,0,2.3-28.2-8.1-34.1S144.3,78.5,144.3,78.5z"/>
			<g>
				<path class="st11" d="M127.5,92.8h-18.2c-1.1,0-2-0.9-2-2l0-10.3c0-1.1,0.9-2,2-2h18.2c1.1,0,2,0.9,2,2v10.3
					C129.5,91.9,128.6,92.8,127.5,92.8z"/>
				<path class="st11" d="M92.9,92.8H74.8c-1.1,0-2-0.9-2-2V80.5c0-1.1,0.9-2,2-2h18.2c1.1,0,2,0.9,2,2v10.3
					C95,91.9,94,92.8,92.9,92.8z"/>
				<g>
					<path class="st12" d="M95,85c-0.6,0-1.1-0.4-1.2-0.9c-0.2-0.7,0.2-1.4,0.8-1.6c4.4-1.4,8.8-1.4,13.2,0c0.7,0.2,1.1,1,0.8,1.6
						c-0.2,0.7-1,1.1-1.6,0.8c-3.8-1.3-7.7-1.2-11.6,0C95.2,85,95.1,85,95,85z"/>
				</g>
			</g>
			<polygon class="st13" points="118.5,281.2 84.4,281.2 74.3,124.2 98.7,142 103.3,142 128,124.2 			"/>
			<path class="st14" d="M100.8,226.9c0,0-6.5-4.2-6.5-6.5c0-1.7,1.9-63.1,3.7-74.2c0.6-3.8,2.7-6.1,2.7-6.1s2.3,2.4,2.9,6.1
				c1.8,11.1,3.6,72.5,3.6,74.2C107.3,222.7,100.8,226.9,100.8,226.9z"/>
			<path class="st4" d="M92,281.4c-8.7,8-49.1,0-49.1,0c0-27.3,0-31.7,0-50.1c0-84.2,6-104.5,6-100.3c0-5.1,20.3-6.8,25.3-6.8
				c3.1,0,21.3,83.8,26.6,89.8C100.8,214,102.1,272.2,92,281.4z"/>
			<path class="st15" d="M80.8,189c-5.3-12.6-11.3-26.6-16.3-44.3c-0.4-1.5,6.8-10.5,6.8-10.5s-8.6,3.9-8.9,2.8
				c-0.3-1.2-1.1-3.8-1.1-6.3c0-5.1,8-6.5,13-6.5c3.1,0,21.3,83.8,26.6,89.8C100.8,214,85.3,199.8,80.8,189z"/>
			<path class="st4" d="M105.9,281.4c9.1,9.1,53.4,0,53.4,0c0-27.3,0-31.7,0-50.1c0-84.2-6-104.5-6-100.3c0-5.1-20.3-6.8-25.4-6.8
				c-3,0-21.2,83.8-26.6,89.8C101.4,214,96.3,271.8,105.9,281.4z"/>
			<polygon class="st7" points="95.9,140.1 74.3,124.2 77.8,119.4 99.4,135.2 			"/>
			
				<rect x="102" y="126.7" transform="matrix(0.8058 -0.5921 0.5921 0.8058 -54.398 93.5206)" class="st7" width="26.8" height="6"/>
			<path class="st14" d="M101,133.2c2.3,0,6.5,4.2,6.5,6.5c0,2.3-6.5,6.5-6.5,6.5s-6.5-4.2-6.5-6.5C94.6,137.4,98.7,133.2,101,133.2
				z"/>
			<polygon class="st16" points="226.8,276.3 188.4,276.3 188.4,409.1 214.8,409.1 			"/>
			<polygon class="st16" points="266.8,276.3 228.4,276.3 240.3,409.1 266.8,409.1 			"/>
			<polygon class="st16" points="267.8,276.3 187.4,276.3 188.4,297.3 266.8,297.3 			"/>
			<path class="st2" d="M199.7,173.8c-0.7-1.5-2-2.6-3.6-3.1l-6.2-2c-3.2-1-6.9,0.6-8.2,3.6l-22,49.9c-0.7,1.5-0.7,3.1,0,4.6
				c0.7,1.5,2,2.6,3.6,3.1l6.2,2h0c0.7,0.2,1.3,0.3,2,0.3c2.6,0,5.2-1.5,6.2-3.9l22-49.9C200.3,176.8,200.3,175.2,199.7,173.8z"/>
			<g>
				<path class="st17" d="M172.3,421.7c0.9-1.6,2.1-3,3.5-4.2c0.1,0.2,0.1,0.4,0.2,0.6c2,5.6,7.3,7.4,12.2,6
					c9.4-2.7,18.2-7.6,25.9-14.1c0.3-0.3,0.6-0.5,0.8-0.8c2.4,14.8-0.8,19-7.8,22.1c0,0-17.7,5.7-17.8,5.7c-4.9,1.6-9.8,2.6-14.2-1
					C171.1,432.7,169.5,427,172.3,421.7z"/>
				<path class="st2" d="M214.2,410.1c-7.7,6.5-16.5,11.3-25.9,14.1c-4.9,1.4-10.3-0.4-12.2-6c-0.1-0.2-0.1-0.4-0.2-0.6
					c1.1-1,2.3-1.9,3.5-2.7c0,0,13-8,13-8c3.3,1.1,9.3,0.9,22.3,0c0.2,0.9,0.3,1.7,0.4,2.5C214.7,409.6,214.5,409.9,214.2,410.1z"/>
			</g>
			<path class="st4" d="M169.6,211.3l-3.6,0.9c-6.3,1.5-12.6-1.7-14.1-7L131.3,144c-1.5-5.4,6.1-11.9,12.4-13.4l3.6-0.9
				c6.3-1.5,16.3,0.8,17.7,6.2l13.3,62.8C179.8,204.2,175.9,209.8,169.6,211.3z"/>
			<g>
				<path class="st17" d="M283.6,421.7c-0.9-1.6-2.1-3-3.5-4.2c-0.1,0.2-0.1,0.4-0.2,0.6c-2,5.6-7.3,7.4-12.2,6
					c-9.4-2.7-18.2-7.6-25.9-14.1c-0.3-0.3-0.6-0.5-0.8-0.8c-2.4,14.8,0.8,19,7.8,22.1c0,0,17.7,5.7,17.8,5.7
					c4.9,1.6,9.8,2.6,14.2-1C284.8,432.7,286.5,427,283.6,421.7z"/>
				<path class="st2" d="M241.8,410.1c7.7,6.5,16.5,11.3,25.9,14.1c4.9,1.4,10.3-0.4,12.2-6c0.1-0.2,0.1-0.4,0.2-0.6
					c-1.1-1-2.3-1.9-3.5-2.7c0,0-13-8-13-8c-3.3,1.1-9.3,0.9-22.3,0c-0.2,0.9-0.3,1.7-0.4,2.5C241.2,409.6,241.5,409.9,241.8,410.1z
					"/>
			</g>
			<polygon class="st18" points="216.6,409.1 187.4,409.1 187.4,404.6 216.9,404.6 			"/>
			<polygon class="st18" points="267.5,409.1 238.3,409.1 238.3,404.6 267.8,404.6 			"/>
			<polygon class="st19" points="266.8,172.3 186.2,176.9 188.1,92.7 265.1,92.2 			"/>
			<path class="st20" d="M265.8,166.4c-14.4-14.4-64-14.4-78.5,0c-1.6,1.6-4.3,10.6-4.8,31.4c-0.1,5.2,1.4,38.6,1.4,44.6
				c-0.1,24.9,1.8,34.5,1.8,34.5h81.7c0,0,1.9-9,2-33.9c0-7.9,1.6-38.6,1.5-45.2C270.6,177.7,268.4,168.9,265.8,166.4z"/>
			<linearGradient id="SVGID_3_" gradientUnits="userSpaceOnUse" x1="226.7401" y1="181.0822" x2="226.7401" y2="135.5919">
				<stop  offset="0" style="stop-color:#F2D3B0"/>
				<stop  offset="0.3561" style="stop-color:#EFCFAC"/>
				<stop  offset="0.7245" style="stop-color:#E6C49F"/>
				<stop  offset="1" style="stop-color:#DCB791"/>
			</linearGradient>
			<path class="st21" d="M240.7,156.2v-19.1c0-0.9-0.7-1.6-1.6-1.6h-24.8c-0.9,0-1.6,0.7-1.6,1.6v19.1c-3.9,0.6-7.6,1.5-11,2.6
				c0,0.2,0,0.4,0,0.5c0.2,3.5,2.3,21.7,25.6,21.7c22.2,0,24.1-18.2,24.2-21.6c0-0.1,0-0.3,0-0.5
				C248.3,157.8,244.6,156.9,240.7,156.2z"/>
			<path class="st22" d="M242.2,147.9l1.7,0.4C243.3,148.2,242.7,148.1,242.2,147.9z"/>
			<polygon class="st19" points="268.8,153.7 265.2,157.5 265.2,95.2 264.7,92.2 			"/>
			<path class="st15" d="M121.5,189c5.3-12.6,11.3-26.6,16.3-44.3c0.4-1.5-6.8-10.5-6.8-10.5s8.6,3.9,8.9,2.8
				c0.3-1.2,1.1-3.8,1.1-6.3c0-5.1-8-6.5-13.1-6.5c-3,0-21.2,83.8-26.6,89.8C101.4,214,116.9,199.8,121.5,189z"/>
			<path class="st2" d="M251.1,173.8c0.7-1.5,2-2.6,3.6-3.1l6.2-2c3.2-1,6.9,0.6,8.2,3.6l22,49.9c0.7,1.5,0.7,3.1,0,4.6
				c-0.7,1.5-2,2.6-3.6,3.1l-6.2,2h0c-0.7,0.2-1.3,0.3-2,0.3c-2.6,0-5.2-1.5-6.2-3.9l-22-49.9C250.4,176.8,250.4,175.2,251.1,173.8z
				"/>
			<path class="st20" d="M256.4,164c5.8-2.1,12.3,1,14.3,6.9l5.3,15.1c0.3,1,0.2,2-0.5,2.8c-3,3.7-11.8,8.3-16.5,9.2
				c-0.2,0-0.4,0.1-0.5,0.1c-1.2,0-2.3-0.8-2.7-2l-6.2-17.7C247.5,172.5,250.6,166.1,256.4,164z"/>
			<path class="st23" d="M227.4,184.5c23.9,0,27.3-19.2,27.8-24.4c-1.1-0.5-2.3-0.9-3.5-1.4c0,0.2,0,0.4,0,0.5
				c-0.2,3.3-2.1,21.6-24.2,21.6c-23.3,0-25.4-18.2-25.6-21.7c0-0.1,0-0.3,0-0.5c-1.2,0.4-2.4,0.9-3.5,1.3
				C198.8,165.4,202.5,184.5,227.4,184.5z"/>
			<path class="st20" d="M194.3,164c-5.8-2.1-12.3,1-14.3,6.9l-5.3,15.1c-0.3,1-0.2,2,0.5,2.8c3,3.7,11.8,8.3,16.5,9.2
				c0.2,0,0.4,0.1,0.5,0.1c1.2,0,2.3-0.8,2.7-2l6.2-17.7C203.3,172.5,200.2,166.1,194.3,164z"/>
			<g>
				<g>
					<circle class="st24" cx="265.3" cy="106.3" r="5.7"/>
					<path class="st25" d="M267.8,104.9c-0.4-0.5-0.9-0.9-1.6-0.9c-0.2,0-0.3,0.1-0.3,0.3c0,0.2,0.1,0.3,0.2,0.3l-0.5,3.5
						c0,0,0,0,0,0c-0.2,0-0.3,0.1-0.3,0.3c0,0.2,0.1,0.3,0.2,0.3c0.1,0,0.2,0,0.4,0c1.2,0,2.2-0.8,2.4-2
						C268.4,106,268.2,105.4,267.8,104.9z"/>
				</g>
				<g>
					<circle class="st24" cx="188.2" cy="106.3" r="5.7"/>
					<path class="st25" d="M185.6,104.9c0.4-0.5,0.9-0.9,1.6-0.9c0.2,0,0.3,0.1,0.3,0.3c0,0.2-0.1,0.3-0.2,0.3l0.5,3.5c0,0,0,0,0,0
						c0.2,0,0.3,0.1,0.3,0.3c0,0.2-0.1,0.3-0.2,0.3c-0.1,0-0.2,0-0.4,0c-1.2,0-2.2-0.8-2.4-2C185.1,106,185.3,105.4,185.6,104.9z"/>
				</g>
			</g>
			<path class="st24" d="M226.7,63.5c-18.9,0-38.9,14.3-38.9,41.2c0,25,25.1,43.3,38.9,43.3s38.9-18.3,38.9-43.3
				C265.7,77.8,245.6,63.5,226.7,63.5z"/>
			<path class="st26" d="M226.8,57.6C226.8,57.6,226.8,57.6,226.8,57.6C226.7,57.6,226.7,57.6,226.8,57.6
				c-19.4,0-40.2,8.3-40.2,45.1c0,2.9,17.8-24,40.1-24s40.1,26.8,40.1,24C266.9,65.8,246.1,57.6,226.8,57.6z"/>
			<path class="st19" d="M261.4,76.3c0,0,0.1,1-20.6,8.3s-54.2,18.5-54.2,18.5s8.5-23.6,29.2-31S261.4,76.3,261.4,76.3z"/>
			<polygon class="st19" points="259.6,155.9 256.1,161.5 256.1,91.5 259.7,91.5 			"/>
			<polygon class="st19" points="263.5,164 259.8,167.7 259.8,90.6 266.9,97.7 			"/>
			<path class="st25" d="M226.7,115L226.7,115c1.1,0,2.3,0.2,2.3,1.2l-0.2,2.4c0,0.9-0.9,1.6-2,1.7l0,0c-1.1,0-2.1-0.7-2.1-1.6
				l-0.2-2.4C224.5,115.3,225.6,115,226.7,115z"/>
			<circle class="st27" cx="212.4" cy="107.5" r="3.4"/>
			<g>
				<circle class="st27" cx="241" cy="107.5" r="3.4"/>
			</g>
			<path class="st19" d="M214,98c-3.2-0.2-4.6,0-7.1,1.8c-0.2,0.1-0.4,0.4-0.4,0.6c0,0.3,0,0.6,0.2,0.8c0.2,0.2,0.5,0.4,0.8,0.4
				c0.2,0,0.4-0.1,0.6-0.2c2.2-1.4,3-1.4,5.7-1.4c0.6,0,1-0.3,1.1-0.9c0-0.3,0-0.6-0.2-0.8C214.5,98.1,214.2,98,214,98z"/>
			<path class="st19" d="M246.6,99.7c-2.6-1.8-4-2-7.1-1.8c-0.3,0-0.5,0.1-0.7,0.4c-0.2,0.2-0.3,0.5-0.2,0.8
				c0.1,0.5,0.5,0.9,1.1,0.9c2.7-0.1,3.5,0,5.7,1.4c0.2,0.1,0.4,0.2,0.6,0.2c0.3,0,0.6-0.1,0.8-0.4c0.2-0.2,0.3-0.5,0.2-0.8
				C247,100.1,246.9,99.9,246.6,99.7z"/>
			<path class="st28" d="M97.6,103c3.5-0.8,7.8-0.7,10.8,1.4c0.1-1.3-0.8-2.7-2.2-3.3c-1.6-0.7-3.6-0.5-5.3-0.5
				c-2,0-4.1,0.1-6.1,0.2c-1.2,0.1-1.6,0.9-1.6,1.8c0,1,0.5,2.1,1.1,2.7C94.8,104,96.3,103.2,97.6,103z"/>
			<path class="st29" d="M100,107.4c2.3,0.3,6.1,0.7,7.7-1.4c0.4-0.5,0.6-1.1,0.6-1.7c-3.1-2-7.3-2.2-10.8-1.4
				c-1.2,0.3-2.8,1-3.2,2.3c0.1,0.1,0.2,0.3,0.3,0.4C96.1,106.8,98.2,107.2,100,107.4z"/>
			<path class="st30" d="M224.1,132.1c1.8-0.2,3.5-0.1,5.2,0.4c1.5,0.4,2.3-1.5,0.8-1.9c-2.1-0.6-4.3-0.7-6.5-0.5
				C222,130.3,222.5,132.2,224.1,132.1z"/>
			<path class="st3" d="M158.6,259.8L158.6,259.8c-7.6-0.1-14.3,5.5-14.9,12.5l-0.5,6.9c-0.5,7,5.3,12.8,12.9,13h0
				c7.6,0.1,14.3-5.5,14.9-12.5l0.5-6.9C172.1,265.8,166.2,260,158.6,259.8z"/>
			<path class="st4" d="M163.3,272.7l-14.1-1.8c-3.4-0.4-5.8-3.6-5.4-7l8-64.3c0.4-3.4,3.6-5.8,7-5.4l14.1,1.8
				c3.4,0.4,5.8,3.6,5.4,7l-8,64.3C169.9,270.7,166.7,273.1,163.3,272.7z"/>
		</g>
	</g>
</g>
</svg>
