<?xml version="1.0" encoding="utf-8"?>
<!-- Generator: Adobe Illustrator 22.1.0, SVG Export Plug-In . SVG Version: 6.00 Build 0)  -->
<svg version="1.1" id="Layer_1" xmlns="http://www.w3.org/2000/svg" xmlns:xlink="http://www.w3.org/1999/xlink" x="0px" y="0px"
	 viewBox="0 0 306 306" style="enable-background:new 0 0 306 306;" xml:space="preserve">
<style type="text/css">
	.st0{fill:#DEFCF2;}
	.st1{fill:#00442E;stroke:#00442E;stroke-miterlimit:10;}
	.st2{fill:#F2F2F2;}
	.st3{fill:#808080;}
	.st4{fill-rule:evenodd;clip-rule:evenodd;fill:#D64541;}
	.st5{fill:#F9B200;}
	.st6{fill:#FFFFFF;}
	.st7{fill:#00442E;}
	.st8{fill:#272361;}
	.st9{fill:#D89E1A;}
	.st10{fill:#BF9134;}
</style>
<circle class="st0" cx="-572.5" cy="1594.3" r="153"/>
<g>
	<path class="st1" d="M-497.4,1713.6l-166.2-12.3c-1.9-0.1-3.3-1.8-3.1-3.6l15.7-211.5c0.1-1.9,1.8-3.3,3.6-3.1l166.2,12.3
		c1.9,0.1,3.3,1.8,3.1,3.6l-15.7,211.5C-493.9,1712.3-495.6,1713.7-497.4,1713.6z"/>
	
		<rect x="-648.7" y="1497.8" transform="matrix(0.9973 7.382970e-02 -7.382970e-02 0.9973 116.436 46.6322)" class="st2" width="152.2" height="200.9"/>
	<path class="st3" d="M-519.5,1511.3l-87.3-6.5c-1.8-0.1-3.1-1.7-3-3.5l1.7-23.4c0.1-1.8,1.7-3.1,3.5-3l87.3,6.5
		c1.8,0.1,3.1,1.7,3,3.5l-1.7,23.4C-516.2,1510.1-517.8,1511.4-519.5,1511.3z"/>
</g>
<path class="st4" d="M-507,1532.6l-25.5,25.5c-0.6,0.6-1.6,0.6-2.2,0l-0.2-0.2c-0.3-0.2-0.7-0.4-0.9-0.6l-14-13.7
	c-0.6-0.6-0.6-1.6,0-2.2l3-3c0.6-0.6,1.6-0.6,2.2,0l10.7,10.5l21.6-21.6c0.6-0.6,1.6-0.6,2.2,0l3,3
	C-506.4,1531-506.4,1532-507,1532.6z"/>
<path class="st4" d="M-578.6,1588.5l-25.5,25.5c-0.6,0.6-1.6,0.6-2.2,0l-0.2-0.2c-0.3-0.2-0.7-0.4-0.9-0.6l-14-13.7
	c-0.6-0.6-0.6-1.6,0-2.2l3-3c0.6-0.6,1.6-0.6,2.2,0l10.7,10.5l21.6-21.6c0.6-0.6,1.6-0.6,2.2,0l3,3
	C-578,1586.9-578,1587.9-578.6,1588.5z"/>
<path class="st4" d="M-522.3,1653.8l-25.5,25.5c-0.6,0.6-1.6,0.6-2.2,0l-0.2-0.2c-0.3-0.2-0.7-0.4-0.9-0.6l-14-13.7
	c-0.6-0.6-0.6-1.6,0-2.2l3-3c0.6-0.6,1.6-0.6,2.2,0l10.7,10.5l21.6-21.6c0.6-0.6,1.6-0.6,2.2,0l3,3
	C-521.7,1652.2-521.7,1653.2-522.3,1653.8z"/>
<g>
	<circle class="st5" cx="-584.5" cy="1533.1" r="12.7"/>
</g>
<g>
	<path class="st6" d="M-584.5,1524c-0.3,0-0.6-0.3-0.6-0.6v-1.2c0-0.3,0.3-0.6,0.6-0.6s0.6,0.3,0.6,0.6v1.2
		C-583.8,1523.8-584.1,1524-584.5,1524z"/>
</g>
<g>
	<path class="st6" d="M-584.5,1544.6c-0.3,0-0.6-0.3-0.6-0.6v-1.2c0-0.3,0.3-0.6,0.6-0.6s0.6,0.3,0.6,0.6v1.2
		C-583.8,1544.3-584.1,1544.6-584.5,1544.6z"/>
</g>
<g>
	<path class="st6" d="M-573.6,1533.7h-1.2c-0.3,0-0.6-0.3-0.6-0.6s0.3-0.6,0.6-0.6h1.2c0.3,0,0.6,0.3,0.6,0.6
		S-573.2,1533.7-573.6,1533.7z"/>
</g>
<g>
	<path class="st6" d="M-594.1,1533.7h-1.2c-0.3,0-0.6-0.3-0.6-0.6s0.3-0.6,0.6-0.6h1.2c0.3,0,0.6,0.3,0.6,0.6
		S-593.8,1533.7-594.1,1533.7z"/>
</g>
<g>
	<path class="st6" d="M-584.5,1534.9c-1.3,0-2.4-1.1-2.4-2.4c0-1.3,1.1-2.4,2.4-2.4c1.3,0,2.4,1.1,2.4,2.4
		C-582,1533.8-583.1,1534.9-584.5,1534.9z M-584.5,1531.3c-0.7,0-1.2,0.5-1.2,1.2s0.5,1.2,1.2,1.2c0.7,0,1.2-0.5,1.2-1.2
		S-583.8,1531.3-584.5,1531.3z"/>
</g>
<g>
	<path class="st6" d="M-584.5,1531.3c-0.3,0-0.6-0.3-0.6-0.6v-3.6c0-0.3,0.3-0.6,0.6-0.6s0.6,0.3,0.6,0.6v3.6
		C-583.8,1531-584.1,1531.3-584.5,1531.3z"/>
</g>
<g>
	<path class="st6" d="M-591.1,1539.7c-0.2,0-0.3-0.1-0.4-0.2c-0.2-0.2-0.2-0.6,0-0.9l5.4-5.4c0.2-0.2,0.6-0.2,0.9,0s0.2,0.6,0,0.9
		l-5.4,5.4C-590.8,1539.7-590.9,1539.7-591.1,1539.7z"/>
</g>
<g>
	<g>
		<path class="st7" d="M-566.9,1533.7c-0.3,0-0.6-0.3-0.6-0.6c0-9.3-7.6-16.9-16.9-16.9c-4.4,0-8.5,1.7-11.7,4.7
			c-0.2,0.2-0.6,0.2-0.9,0c-0.2-0.2-0.2-0.6,0-0.9c3.4-3.2,7.8-5,12.5-5c10,0,18.1,8.1,18.1,18.1
			C-566.3,1533.4-566.6,1533.7-566.9,1533.7z"/>
	</g>
</g>
<g>
	<path class="st8" d="M-591.7,1521h-5.4v-5.4c0-0.3,0.3-0.6,0.6-0.6s0.6,0.3,0.6,0.6v4.2h4.2c0.3,0,0.6,0.3,0.6,0.6
		S-591.4,1521-591.7,1521z"/>
</g>
<g>
	<g>
		<path class="st7" d="M-584.7,1550.6c0-0.3,0.3-0.6,0.6-0.6l0,0c0.3,0,0.6,0.3,0.6,0.6l0,0c0,0.3-0.3,0.6-0.6,0.6l0,0c0,0,0,0,0,0
			l0,0C-584.4,1551.2-584.7,1551-584.7,1550.6z M-586,1551.2C-586,1551.2-586,1551.2-586,1551.2L-586,1551.2c-0.3,0-0.6-0.3-0.5-0.7
			l0,0c0-0.3,0.3-0.6,0.7-0.5l0,0c0.3,0,0.6,0.3,0.5,0.7l0,0C-585.3,1550.9-585.6,1551.2-586,1551.2L-586,1551.2
			C-585.9,1551.2-586,1551.2-586,1551.2z M-582.9,1550.6c0-0.3,0.2-0.6,0.5-0.7l0,0c0.3,0,0.6,0.2,0.7,0.5l0,0
			c0,0.3-0.2,0.6-0.5,0.7l0,0c0,0,0,0-0.1,0l0,0C-582.6,1551.1-582.9,1550.9-582.9,1550.6z M-587.8,1550.9c-0.3-0.1-0.5-0.4-0.5-0.7
			l0,0c0.1-0.3,0.4-0.5,0.7-0.5l0,0c0.3,0.1,0.5,0.4,0.5,0.7l0,0c-0.1,0.3-0.3,0.5-0.6,0.5l0,0
			C-587.8,1550.9-587.8,1550.9-587.8,1550.9z M-581.1,1550.3c-0.1-0.3,0.1-0.7,0.5-0.7l0,0c0.3-0.1,0.6,0.1,0.7,0.5l0,0
			c0.1,0.3-0.1,0.6-0.5,0.7l0,0c0,0,0,0,0,0l0,0c0,0-0.1,0-0.1,0l0,0C-580.8,1550.8-581.1,1550.6-581.1,1550.3z M-589.6,1550.5
			c-0.3-0.1-0.5-0.4-0.4-0.7l0,0c0.1-0.3,0.4-0.5,0.8-0.4l0,0c0.3,0.1,0.5,0.4,0.4,0.7l0,0c-0.1,0.3-0.3,0.4-0.6,0.4l0,0
			C-589.5,1550.5-589.6,1550.5-589.6,1550.5z M-579.4,1549.9c-0.1-0.3,0.1-0.7,0.4-0.8l0,0c0.3-0.1,0.7,0.1,0.8,0.4l0,0
			c0.1,0.3-0.1,0.7-0.4,0.8l0,0c-0.1,0-0.1,0-0.2,0l0,0C-579,1550.3-579.3,1550.1-579.4,1549.9z M-591.4,1549.8
			c-0.3-0.1-0.5-0.5-0.3-0.8l0,0c0.1-0.3,0.5-0.5,0.8-0.3l0,0c0.3,0.1,0.5,0.5,0.3,0.8l0,0c-0.1,0.2-0.3,0.4-0.6,0.4l0,0
			C-591.3,1549.9-591.3,1549.9-591.4,1549.8z M-577.7,1549.3c-0.1-0.3,0-0.7,0.3-0.8l0,0c0.3-0.1,0.7,0,0.8,0.3l0,0
			c0.1,0.3,0,0.7-0.3,0.8l0,0c-0.1,0-0.2,0.1-0.3,0.1l0,0C-577.3,1549.6-577.6,1549.5-577.7,1549.3z M-593.1,1549
			c-0.3-0.2-0.4-0.5-0.2-0.8l0,0c0.2-0.3,0.5-0.4,0.8-0.2l0,0c0.3,0.2,0.4,0.5,0.2,0.8l0,0c-0.1,0.2-0.3,0.3-0.5,0.3l0,0
			C-592.9,1549.1-593,1549.1-593.1,1549z M-576,1548.5c-0.2-0.3-0.1-0.7,0.2-0.8l0,0c0.3-0.2,0.7-0.1,0.8,0.2l0,0
			c0.2,0.3,0.1,0.7-0.2,0.8l0,0c-0.1,0.1-0.2,0.1-0.3,0.1l0,0C-575.7,1548.8-575.9,1548.7-576,1548.5z M-594.7,1548L-594.7,1548
			L-594.7,1548c-0.3-0.2-0.3-0.6-0.2-0.8l0,0c0.2-0.3,0.6-0.3,0.8-0.2l0,0c0.3,0.2,0.3,0.6,0.2,0.8l0,0c-0.1,0.2-0.3,0.3-0.5,0.3
			l0,0C-594.5,1548.1-594.6,1548.1-594.7,1548z M-574.5,1547.5c-0.2-0.3-0.1-0.6,0.1-0.8l0,0c0.3-0.2,0.6-0.1,0.8,0.1l0,0
			c0.2,0.3,0.1,0.6-0.1,0.8l0,0c0,0,0,0,0,0l0,0c-0.1,0.1-0.2,0.1-0.4,0.1l0,0C-574.2,1547.7-574.4,1547.7-574.5,1547.5z
			 M-596.2,1546.9L-596.2,1546.9L-596.2,1546.9c-0.3-0.2-0.3-0.6-0.1-0.9l0,0c0.2-0.3,0.6-0.3,0.9-0.1l0,0c0.3,0.2,0.3,0.6,0.1,0.9
			l0,0c-0.1,0.1-0.3,0.2-0.5,0.2l0,0C-595.9,1547-596.1,1547-596.2,1546.9z M-573.1,1546.4c-0.2-0.2-0.2-0.6,0-0.9l0,0
			c0.2-0.2,0.6-0.2,0.9,0l0,0c0.2,0.2,0.2,0.6,0,0.9l0,0c-0.1,0.1-0.3,0.2-0.4,0.2l0,0C-572.8,1546.6-572.9,1546.5-573.1,1546.4z
			 M-597.5,1545.6L-597.5,1545.6L-597.5,1545.6c-0.2-0.2-0.2-0.6,0-0.9l0,0c0.2-0.2,0.6-0.2,0.9,0l0,0c0.2,0.2,0.2,0.6,0,0.9l0,0
			c-0.1,0.1-0.3,0.2-0.4,0.2l0,0C-597.3,1545.8-597.4,1545.7-597.5,1545.6z M-571.7,1545.2c-0.2-0.2-0.3-0.6-0.1-0.9l0,0
			c0.2-0.3,0.6-0.3,0.9-0.1l0,0c0.2,0.2,0.3,0.6,0,0.9l0,0c-0.1,0.1-0.3,0.2-0.4,0.2l0,0C-571.5,1545.3-571.6,1545.3-571.7,1545.2z
			 M-598.8,1544.2c-0.2-0.3-0.2-0.6,0.1-0.9l0,0c0.3-0.2,0.6-0.2,0.8,0.1l0,0c0.2,0.3,0.2,0.6-0.1,0.8l0,0c-0.1,0.1-0.2,0.1-0.4,0.1
			l0,0C-598.5,1544.4-598.6,1544.3-598.8,1544.2z M-570.6,1543.8c-0.3-0.2-0.3-0.6-0.1-0.8l0,0c0.2-0.3,0.6-0.3,0.8-0.1l0,0
			c0.3,0.2,0.3,0.6,0.1,0.8l0,0c-0.1,0.2-0.3,0.3-0.5,0.3l0,0C-570.3,1543.9-570.5,1543.9-570.6,1543.8z M-599.8,1542.7
			c-0.2-0.3-0.1-0.7,0.2-0.8l0,0c0.3-0.2,0.7-0.1,0.8,0.2l0,0c0.2,0.3,0.1,0.7-0.2,0.8l0,0c-0.1,0.1-0.2,0.1-0.3,0.1l0,0
			C-599.5,1542.9-599.7,1542.8-599.8,1542.7z M-569.5,1542.3c-0.3-0.2-0.4-0.5-0.2-0.8h0c0.2-0.3,0.5-0.4,0.8-0.2l0,0
			c0.3,0.2,0.4,0.5,0.2,0.8l0,0c-0.1,0.2-0.3,0.3-0.5,0.3l0,0C-569.3,1542.4-569.4,1542.3-569.5,1542.3z M-600.7,1541L-600.7,1541
			L-600.7,1541c-0.1-0.3,0-0.7,0.3-0.8l0,0c0.3-0.1,0.7,0,0.8,0.3l0,0c0.1,0.3,0,0.7-0.3,0.8l0,0c-0.1,0-0.2,0.1-0.3,0.1l0,0
			C-600.4,1541.4-600.6,1541.2-600.7,1541z M-568.7,1540.7c-0.3-0.1-0.4-0.5-0.3-0.8l0,0c0.1-0.3,0.5-0.4,0.8-0.3l0,0
			c0.3,0.1,0.4,0.5,0.3,0.8l0,0c-0.1,0.2-0.3,0.4-0.6,0.4l0,0C-568.5,1540.8-568.6,1540.7-568.7,1540.7z M-601.5,1539.3
			c-0.1-0.3,0-0.7,0.4-0.8l0,0c0.3-0.1,0.7,0,0.8,0.4l0,0c0.1,0.3,0,0.7-0.4,0.8l0,0c-0.1,0-0.1,0-0.2,0l0,0
			C-601.2,1539.7-601.4,1539.5-601.5,1539.3z M-568,1539c-0.3-0.1-0.5-0.4-0.4-0.8l0,0c0.1-0.3,0.4-0.5,0.8-0.4l0,0
			c0.3,0.1,0.5,0.4,0.4,0.8l0,0c-0.1,0.3-0.3,0.4-0.6,0.4l0,0C-567.8,1539.1-567.9,1539-568,1539z M-602,1537.5
			c-0.1-0.3,0.1-0.7,0.4-0.7l0,0c0.3-0.1,0.7,0.1,0.7,0.4h0c0.1,0.3-0.1,0.7-0.4,0.7l0,0c0,0-0.1,0-0.2,0l0,0
			C-601.7,1538-602,1537.8-602,1537.5z M-567.4,1537.3c-0.3-0.1-0.5-0.4-0.5-0.7l0,0c0.1-0.3,0.4-0.5,0.7-0.5l0,0
			c0.3,0.1,0.5,0.4,0.5,0.7l0,0c-0.1,0.3-0.3,0.5-0.6,0.5l0,0C-567.4,1537.3-567.4,1537.3-567.4,1537.3z M-602.4,1535.7
			c0-0.3,0.2-0.6,0.5-0.7l0,0c0.3,0,0.6,0.2,0.7,0.5l0,0c0,0.3-0.2,0.6-0.5,0.7l0,0c0,0-0.1,0-0.1,0l0,0
			C-602.1,1536.2-602.3,1536-602.4,1535.7z M-567.1,1535.5c-0.3,0-0.6-0.3-0.5-0.7l0,0c0-0.3,0.3-0.6,0.7-0.5l0,0
			c0.3,0,0.6,0.3,0.5,0.7l0,0C-566.5,1535.3-566.7,1535.5-567.1,1535.5L-567.1,1535.5C-567.1,1535.5-567.1,1535.5-567.1,1535.5z
			 M-602.6,1533.8c0-0.3,0.2-0.6,0.6-0.6l0,0c0.3,0,0.6,0.2,0.6,0.6l0,0c0,0.3-0.2,0.6-0.6,0.6l0,0c0,0,0,0,0,0l0,0
			C-602.3,1534.4-602.5,1534.1-602.6,1533.8z M-567.5,1533.1L-567.5,1533.1c0-0.3,0.3-0.6,0.6-0.6l0,0c0.3,0,0.6,0.3,0.6,0.6l0,0
			c0,0.3-0.3,0.6-0.6,0.6l0,0C-567.3,1533.7-567.5,1533.4-567.5,1533.1z"/>
	</g>
</g>
<path class="st5" d="M-571.5,1568.2c-0.1-0.4-0.4-0.9-1.1-0.7c-2.2,0.8-4.6,3.1-7.2,3c-2.5-2.3-11.1-9.8-14.6-9.5
	c-0.8,0.1-1.7,0.7-2.4,1.6c-0.9,0.8-2.2,2-3.5,3.2c-0.7-1-1.6-1.9-2.6-2.9c3.1-0.8,9.9-5.9,9.9-5.9l0-0.1c1.4,0.3,4.2-1,4-1.9
	c-0.3-1.5-0.9-2.8-2.3-3.1c-0.9-0.2-2.6,0.6-3,2.1c0,0-5.2,1.9-8,3.8c-2-0.3-5.6-0.7-8.6-0.7c-1-0.6-2.1-1.1-3.1-1.5
	c0,0,0.1,0,0.1,0c4.1,1.7,3.9-1.2,4.3-1.2c2.2-0.2,1.1-1.2,1.5-1.2s0.6-0.2,1.1-0.5c0.5-0.3-0.6-1.5,0.2-1.5c0.8,0,1.4-0.8,1.6-1.3
	c0.2-0.4-0.8-1.5-1.1-1.8c3.4-6.8,0.5-13.8-5.7-17.1c-6.3-3.4-14.2-1.4-17.9,5.5c-3.1,5.7-2.3,12.6,1.7,16.7c-0.4,0.8-0.5,2-0.5,3.3
	c0,2.1,0.2,6,1.3,8.2c2.6,6.7,15.6,19,21.7,17.4c4.8-0.5,8.7-7.4,11.6-12.2c2.3,1.2,5.1,2.3,7.3,3.3c1.4,0.6,3.5,1.2,4.3,1.3
	c0.7,1,2.7,3.3,4.2,1.7C-576.1,1574.3-570.8,1569.9-571.5,1568.2z"/>
<g>
	<g>
		<path class="st5" d="M-566,1626.4c0,0-1.6-14.8,2.5-21.6c4.1-6.7,9.4-14.7,17.5-15.5c8.2-0.8,5.8,13.8,5.1,27.6
			S-565.3,1634.7-566,1626.4z"/>
	</g>
	<g>
		<g>
			<path class="st5" d="M-509.2,1626.4c0,0,1.6-14.8-2.5-21.6s-9.4-14.7-17.5-15.5c-8.2-0.8-5.8,13.8-5.1,27.6
				S-509.9,1634.7-509.2,1626.4z"/>
		</g>
		<g>
			<g>
				<path class="st7" d="M-548.4,1610.3c-0.4,0-0.7-0.1-1-0.4c-0.5-0.5-0.5-1.4,0.1-1.8l10.8-9.9c0.5-0.5,1.4-0.5,1.8,0.1
					c0.5,0.5,0.5,1.4-0.1,1.8l-10.8,9.9C-547.8,1610.1-548.1,1610.3-548.4,1610.3z"/>
			</g>
			<g>
				<path class="st7" d="M-549.3,1616.8c-0.1,0-0.1,0-0.2,0c-0.7-0.1-1.2-0.8-1.1-1.5l0.9-6.5c0.1-0.7,0.8-1.2,1.5-1.1
					c0.7,0.1,1.2,0.8,1.1,1.5l-0.9,6.5C-548.1,1616.3-548.6,1616.8-549.3,1616.8z"/>
			</g>
			<g>
				<path class="st7" d="M-558.1,1612.4c-0.6,0-1.1-0.4-1.3-1c-0.2-0.7,0.3-1.4,1-1.6l9.7-2.1c0.7-0.2,1.4,0.3,1.6,1
					c0.2,0.7-0.3,1.4-1,1.6l-9.7,2.1C-557.9,1612.4-558,1612.4-558.1,1612.4z"/>
			</g>
			<g>
				<path class="st7" d="M-544.5,1606.7c-0.3,0-0.6-0.1-0.8-0.3l-2.9-2.4c-0.6-0.5-0.6-1.3-0.2-1.8c0.5-0.6,1.3-0.6,1.8-0.2l2.9,2.4
					c0.6,0.5,0.6,1.3,0.2,1.8C-543.8,1606.5-544.1,1606.7-544.5,1606.7z"/>
			</g>
			<g>
				<path class="st7" d="M-526.8,1610.3c-0.3,0-0.6-0.1-0.9-0.3l-10.8-9.9c-0.5-0.5-0.6-1.3-0.1-1.8c0.5-0.5,1.3-0.6,1.8-0.1
					l10.8,9.9c0.5,0.5,0.6,1.3,0.1,1.8C-526.1,1610.1-526.4,1610.3-526.8,1610.3z"/>
			</g>
			<g>
				<path class="st7" d="M-525.9,1616.8c-0.6,0-1.2-0.5-1.3-1.1l-0.9-6.5c-0.1-0.7,0.4-1.4,1.1-1.5c0.7-0.1,1.4,0.4,1.5,1.1l0.9,6.5
					c0.1,0.7-0.4,1.4-1.1,1.5C-525.8,1616.8-525.8,1616.8-525.9,1616.8z"/>
			</g>
			<g>
				<path class="st7" d="M-517.1,1612.4c-0.1,0-0.2,0-0.3,0l-9.7-2.1c-0.7-0.2-1.2-0.8-1-1.6c0.2-0.7,0.8-1.1,1.6-1l9.7,2.1
					c0.7,0.2,1.2,0.8,1,1.6C-515.9,1612-516.5,1612.4-517.1,1612.4z"/>
			</g>
			<g>
				<path class="st7" d="M-530.7,1606.7c-0.4,0-0.7-0.2-1-0.5c-0.5-0.6-0.4-1.4,0.2-1.8l2.9-2.4c0.6-0.5,1.4-0.4,1.8,0.2
					c0.5,0.6,0.4,1.4-0.2,1.8l-2.9,2.4C-530.1,1606.6-530.4,1606.7-530.7,1606.7z"/>
			</g>
			<g>
				<path class="st7" d="M-537.6,1600.3c-0.7,0-1.3-0.6-1.3-1.3v-19.4c0-0.7,0.6-1.3,1.3-1.3s1.3,0.6,1.3,1.3v19.4
					C-536.3,1599.8-536.9,1600.3-537.6,1600.3z"/>
			</g>
		</g>
	</g>
</g>
<g>
	<path class="st5" d="M-583.4,1662.2c1.7-10.8-0.3-14.8-0.3-14.8s-4.4-14.4-22.2-13.4c-17.8,1-19.9,16.5-20.1,20.9
		c-0.2,3.3,0.7,24.4,19.3,32c18.6,7.6,21.1-6.9,21.1-6.9L-583.4,1662.2z"/>
	<g>
		<g>
			<path class="st7" d="M-591.5,1669.4c0.1-0.1,0.3-0.2,0.3-0.4c5.9-12,0.2-22.2-0.1-22.6c-0.2-0.4-0.8-0.6-1.2-0.3c0,0,0,0,0,0
				c-0.4,0.2-0.6,0.8-0.3,1.2l0,0c0.1,0.1,5.5,9.8,0,21c-0.2,0.4,0,1,0.4,1.2C-592.1,1669.6-591.8,1669.6-591.5,1669.4z"/>
		</g>
		<g>
			<path class="st7" d="M-585.7,1657.7c0,0,0.1-0.1,0.1-0.1c0.4-0.3,0.4-0.9,0.1-1.2l-4-4.7c-0.3-0.4-0.9-0.4-1.2-0.1
				c-0.4,0.3-0.4,0.9-0.1,1.2l4,4.7C-586.5,1657.9-586,1657.9-585.7,1657.7z"/>
		</g>
		<g>
			<path class="st7" d="M-593.4,1661.1C-593.4,1661.1-593.4,1661.1-593.4,1661.1l4.5-2.8c0.4-0.3,0.5-0.8,0.3-1.2
				c-0.3-0.4-0.8-0.5-1.2-0.3l-4.4,2.8c-0.4,0.3-0.5,0.8-0.3,1.2C-594.3,1661.2-593.8,1661.3-593.4,1661.1z"/>
		</g>
		<g>
			<path class="st7" d="M-586.8,1669.5C-586.8,1669.5-586.8,1669.5-586.8,1669.5c0.4-0.3,0.6-0.8,0.3-1.2l-3-4.9
				c-0.2-0.4-0.8-0.5-1.2-0.3c0,0,0,0,0,0c-0.4,0.3-0.5,0.8-0.3,1.2l3,4.9C-587.7,1669.6-587.2,1669.7-586.8,1669.5z"/>
		</g>
	</g>
	<g>
		<path class="st9" d="M-598.2,1659.1c-1.6-0.3-3.1-1.5-3.6-3.2c-1.6-4.9-3.9-10.2-4.9-11.3c-1.7-1.4-10-3.7-17.9-4.9
			c-2.6-0.4-4.4-2.9-4-5.5c0.4-2.6,2.9-4.4,5.5-4c4.1,0.7,18,3.1,22.6,7.2c3.5,3,6.6,11.9,7.8,15.6c0.8,2.5-0.6,5.2-3.1,6
			C-596.6,1659.2-597.4,1659.3-598.2,1659.1z"/>
	</g>
	<g>
		<path class="st9" d="M-602.3,1648.9c-1.7-0.3-3.1-1.6-3.6-3.3c-0.8-2.5,0.7-5.2,3.2-6l15.4-4.7c2.5-0.8,5.2,0.7,6,3.2
			c0.8,2.5-0.7,5.2-3.2,6l-15.4,4.7C-600.7,1649.1-601.5,1649.1-602.3,1648.9z"/>
	</g>
	<g>
		<g>
			<path class="st10" d="M-618,1653.1C-618,1653-618,1653-618,1653.1c-1.7-0.4-2.7-2.1-2.3-3.7c0-0.2,1.2-4.9,3.8-9.3
				c3.8-6.4,9-9.3,14.7-8.1c0,0,0.1,0,0.1,0c4.7,1,8.4,3.2,11.1,6.5c2.1,2.6,2.9,5.1,3.2,6.4c0.4,1.6-0.6,3.3-2.3,3.7
				c-1.6,0.4-3.3-0.6-3.7-2.3c-0.4-1.5-2.1-6.7-9.7-8.3c0,0,0,0-0.1,0c-7.6-1.6-11.3,12.7-11.4,12.9
				C-614.8,1652.4-616.4,1653.4-618,1653.1z"/>
		</g>
		<g>
			<path class="st10" d="M-608.1,1638.2c-1.2-0.3-2.2-1.3-2.3-2.5l-1-9.4c-0.2-1.6,1-3,2.6-3.2c1.6-0.2,3,1,3.2,2.6l1,9.4
				c0.2,1.6-1,3-2.6,3.2C-607.5,1638.3-607.8,1638.3-608.1,1638.2z"/>
		</g>
		<g>
			<path class="st10" d="M-602.9,1637.8c-1.6-0.3-2.6-1.9-2.3-3.4l1.8-8.6c0.3-1.6,1.9-2.6,3.4-2.3c1.6,0.3,2.6,1.9,2.3,3.4
				l-1.8,8.6C-599.8,1637.1-601.3,1638.1-602.9,1637.8z"/>
		</g>
		<g>
			<path class="st10" d="M-597.4,1639.9c-0.3-0.1-0.5-0.1-0.8-0.3c-1.4-0.8-2-2.5-1.2-3.9l4.5-8.4c0.8-1.4,2.5-2,3.9-1.2
				c1.4,0.8,2,2.5,1.2,3.9l-4.5,8.4C-594.9,1639.6-596.2,1640.2-597.4,1639.9z"/>
		</g>
	</g>
	<g>
		<g>
			<path class="st7" d="M-606.9,1677c-0.2,0-0.3,0-0.5-0.1c-11.2-7.3-11.5-19-11.6-19.4c0-0.5,0.4-0.9,0.9-0.9c0,0,0,0,0,0
				c0.5,0,0.9,0.4,0.9,0.9l0,0c0,0.1,0.3,11.3,10.8,18c0.4,0.3,0.5,0.8,0.3,1.2C-606.3,1676.9-606.6,1677-606.9,1677z"/>
		</g>
		<g>
			<path class="st7" d="M-618,1670c-0.1,0-0.1,0-0.2,0c-0.5-0.1-0.8-0.5-0.7-1l1-6c0.1-0.5,0.5-0.8,1-0.7c0.5,0.1,0.8,0.5,0.7,1
				l-1,6C-617.2,1669.7-617.6,1670-618,1670z"/>
		</g>
		<g>
			<path class="st7" d="M-609.6,1668.9C-609.6,1668.9-609.6,1668.9-609.6,1668.9l-5.3-0.1c-0.5,0-0.9-0.4-0.8-0.9
				c0-0.5,0.4-0.9,0.9-0.8l5.2,0.1c0.5,0,0.9,0.4,0.8,0.9C-608.7,1668.5-609.1,1668.9-609.6,1668.9z"/>
		</g>
		<g>
			<path class="st7" d="M-611,1679.5C-611,1679.5-611,1679.5-611,1679.5c-0.5,0-0.9-0.4-0.9-0.9l0.1-5.7c0-0.5,0.4-0.9,0.9-0.9
				c0,0,0,0,0,0c0.5,0,0.9,0.4,0.9,0.9l-0.1,5.7C-610.1,1679.1-610.5,1679.5-611,1679.5z"/>
		</g>
	</g>
</g>
<title>scene-needle-poke</title>
<g>
	<circle class="st0" cx="153" cy="153" r="153"/>
	<g>
		<path class="st1" d="M228,272.3L61.8,260c-1.9-0.1-3.3-1.8-3.1-3.6L74.3,44.8c0.1-1.9,1.8-3.3,3.6-3.1L244.2,54
			c1.9,0.1,3.3,1.8,3.1,3.6l-15.7,211.5C231.5,271,229.9,272.4,228,272.3z"/>
		
			<rect x="76.8" y="56.5" transform="matrix(0.9973 7.382970e-02 -7.382970e-02 0.9973 12.0084 -10.8612)" class="st2" width="152.2" height="200.9"/>
		<path class="st3" d="M205.9,70l-87.3-6.5c-1.8-0.1-3.1-1.7-3-3.5l1.7-23.4c0.1-1.8,1.7-3.1,3.5-3l87.3,6.5c1.8,0.1,3.1,1.7,3,3.5
			L209.4,67C209.3,68.8,207.7,70.2,205.9,70z"/>
	</g>
	<path class="st4" d="M218.5,91.4l-25.5,25.5c-0.6,0.6-1.6,0.6-2.2,0l-0.2-0.2c-0.3-0.2-0.7-0.4-0.9-0.6l-14-13.7
		c-0.6-0.6-0.6-1.6,0-2.2l3-3c0.6-0.6,1.6-0.6,2.2,0l10.7,10.5l21.6-21.6c0.6-0.6,1.6-0.6,2.2,0l3,3
		C219.1,89.8,219.1,90.7,218.5,91.4z"/>
	<path class="st4" d="M146.9,147.3l-25.5,25.5c-0.6,0.6-1.6,0.6-2.2,0l-0.2-0.2c-0.3-0.2-0.7-0.4-0.9-0.6l-14-13.7
		c-0.6-0.6-0.6-1.6,0-2.2l3-3c0.6-0.6,1.6-0.6,2.2,0l10.7,10.5l21.6-21.6c0.6-0.6,1.6-0.6,2.2,0l3,3
		C147.5,145.7,147.5,146.7,146.9,147.3z"/>
	<path class="st4" d="M203.1,212.5l-25.5,25.5c-0.6,0.6-1.6,0.6-2.2,0l-0.2-0.2c-0.3-0.2-0.7-0.4-0.9-0.6l-14-13.7
		c-0.6-0.6-0.6-1.6,0-2.2l3-3c0.6-0.6,1.6-0.6,2.2,0l10.7,10.5l21.6-21.6c0.6-0.6,1.6-0.6,2.2,0l3,3
		C203.7,210.9,203.7,211.9,203.1,212.5z"/>
	<g>
		<circle class="st5" cx="141" cy="91.9" r="12.7"/>
	</g>
	<g>
		<path class="st6" d="M141,82.8c-0.3,0-0.6-0.3-0.6-0.6V81c0-0.3,0.3-0.6,0.6-0.6c0.3,0,0.6,0.3,0.6,0.6v1.2
			C141.6,82.5,141.3,82.8,141,82.8z"/>
	</g>
	<g>
		<path class="st6" d="M141,103.3c-0.3,0-0.6-0.3-0.6-0.6v-1.2c0-0.3,0.3-0.6,0.6-0.6c0.3,0,0.6,0.3,0.6,0.6v1.2
			C141.6,103.1,141.3,103.3,141,103.3z"/>
	</g>
	<g>
		<path class="st6" d="M151.9,92.5h-1.2c-0.3,0-0.6-0.3-0.6-0.6s0.3-0.6,0.6-0.6h1.2c0.3,0,0.6,0.3,0.6,0.6S152.2,92.5,151.9,92.5z"
			/>
	</g>
	<g>
		<path class="st6" d="M131.3,92.5h-1.2c-0.3,0-0.6-0.3-0.6-0.6s0.3-0.6,0.6-0.6h1.2c0.3,0,0.6,0.3,0.6,0.6S131.7,92.5,131.3,92.5z"
			/>
	</g>
	<g>
		<path class="st6" d="M141,93.7c-1.3,0-2.4-1.1-2.4-2.4c0-1.3,1.1-2.4,2.4-2.4c1.3,0,2.4,1.1,2.4,2.4
			C143.4,92.6,142.3,93.7,141,93.7z M141,90c-0.7,0-1.2,0.5-1.2,1.2c0,0.7,0.5,1.2,1.2,1.2c0.7,0,1.2-0.5,1.2-1.2
			C142.2,90.6,141.7,90,141,90z"/>
	</g>
	<g>
		<path class="st6" d="M141,90c-0.3,0-0.6-0.3-0.6-0.6v-3.6c0-0.3,0.3-0.6,0.6-0.6c0.3,0,0.6,0.3,0.6,0.6v3.6
			C141.6,89.8,141.3,90,141,90z"/>
	</g>
	<g>
		<path class="st6" d="M134.4,98.5c-0.2,0-0.3-0.1-0.4-0.2c-0.2-0.2-0.2-0.6,0-0.9l5.4-5.4c0.2-0.2,0.6-0.2,0.9,0
			c0.2,0.2,0.2,0.6,0,0.9l-5.4,5.4C134.7,98.4,134.5,98.5,134.4,98.5z"/>
	</g>
	<g>
		<g>
			<path class="st7" d="M158.5,92.5c-0.3,0-0.6-0.3-0.6-0.6c0-9.3-7.6-16.9-16.9-16.9c-4.4,0-8.5,1.7-11.7,4.7
				c-0.2,0.2-0.6,0.2-0.9,0c-0.2-0.2-0.2-0.6,0-0.9c3.4-3.2,7.8-5,12.5-5c10,0,18.1,8.1,18.1,18.1C159.1,92.2,158.8,92.5,158.5,92.5
				z"/>
		</g>
	</g>
	<g>
		<path class="st8" d="M133.8,79.8h-5.4v-5.4c0-0.3,0.3-0.6,0.6-0.6c0.3,0,0.6,0.3,0.6,0.6v4.2h4.2c0.3,0,0.6,0.3,0.6,0.6
			C134.4,79.5,134.1,79.8,133.8,79.8z"/>
	</g>
	<g>
		<g>
			<path class="st7" d="M140.7,109.4c0-0.3,0.3-0.6,0.6-0.6l0,0c0.3,0,0.6,0.3,0.6,0.6l0,0c0,0.3-0.3,0.6-0.6,0.6l0,0c0,0,0,0,0,0
				l0,0C141,110,140.7,109.7,140.7,109.4z M139.5,109.9C139.5,109.9,139.5,109.9,139.5,109.9L139.5,109.9c-0.3,0-0.6-0.3-0.5-0.7
				l0,0c0-0.3,0.3-0.6,0.7-0.5l0,0c0.3,0,0.6,0.3,0.5,0.7l0,0C140.1,109.7,139.8,109.9,139.5,109.9L139.5,109.9
				C139.5,109.9,139.5,109.9,139.5,109.9z M142.5,109.3c0-0.3,0.2-0.6,0.5-0.7l0,0c0.3,0,0.6,0.2,0.7,0.5l0,0c0,0.3-0.2,0.6-0.5,0.7
				l0,0c0,0,0,0-0.1,0l0,0C142.8,109.8,142.6,109.6,142.5,109.3z M137.6,109.6c-0.3-0.1-0.5-0.4-0.5-0.7l0,0
				c0.1-0.3,0.4-0.5,0.7-0.5l0,0c0.3,0.1,0.5,0.4,0.5,0.7l0,0c-0.1,0.3-0.3,0.5-0.6,0.5l0,0C137.7,109.7,137.7,109.7,137.6,109.6z
				 M144.3,109.1c-0.1-0.3,0.1-0.7,0.5-0.7l0,0c0.3-0.1,0.6,0.1,0.7,0.5l0,0c0.1,0.3-0.1,0.6-0.5,0.7l0,0c0,0,0,0,0,0l0,0
				c0,0-0.1,0-0.1,0l0,0C144.7,109.5,144.4,109.3,144.3,109.1z M135.8,109.2c-0.3-0.1-0.5-0.4-0.4-0.7l0,0c0.1-0.3,0.4-0.5,0.8-0.4
				l0,0c0.3,0.1,0.5,0.4,0.4,0.7l0,0c-0.1,0.3-0.3,0.4-0.6,0.4l0,0C135.9,109.2,135.9,109.2,135.8,109.2z M146.1,108.6
				c-0.1-0.3,0.1-0.7,0.4-0.8l0,0c0.3-0.1,0.7,0.1,0.8,0.4l0,0c0.1,0.3-0.1,0.7-0.4,0.8l0,0c-0.1,0-0.1,0-0.2,0l0,0
				C146.4,109,146.2,108.9,146.1,108.6z M134,108.6c-0.3-0.1-0.5-0.5-0.3-0.8l0,0c0.1-0.3,0.5-0.5,0.8-0.3l0,0
				c0.3,0.1,0.5,0.5,0.3,0.8l0,0c-0.1,0.2-0.3,0.4-0.6,0.4l0,0C134.2,108.6,134.1,108.6,134,108.6z M147.8,108
				c-0.1-0.3,0-0.7,0.3-0.8l0,0c0.3-0.1,0.7,0,0.8,0.3l0,0c0.1,0.3,0,0.7-0.3,0.8l0,0c-0.1,0-0.2,0.1-0.3,0.1l0,0
				C148.1,108.3,147.9,108.2,147.8,108z M132.4,107.8c-0.3-0.2-0.4-0.5-0.2-0.8l0,0c0.2-0.3,0.5-0.4,0.8-0.2l0,0
				c0.3,0.2,0.4,0.5,0.2,0.8l0,0c-0.1,0.2-0.3,0.3-0.5,0.3l0,0C132.5,107.8,132.4,107.8,132.4,107.8z M149.4,107.2
				c-0.2-0.3-0.1-0.7,0.2-0.8l0,0c0.3-0.2,0.7-0.1,0.8,0.2l0,0c0.2,0.3,0.1,0.7-0.2,0.8l0,0c-0.1,0.1-0.2,0.1-0.3,0.1l0,0
				C149.7,107.5,149.5,107.4,149.4,107.2z M130.8,106.8L130.8,106.8L130.8,106.8c-0.3-0.2-0.3-0.6-0.2-0.8l0,0
				c0.2-0.3,0.6-0.3,0.8-0.2l0,0c0.3,0.2,0.3,0.6,0.2,0.8l0,0c-0.1,0.2-0.3,0.3-0.5,0.3l0,0C131,106.9,130.9,106.9,130.8,106.8z
				 M151,106.3c-0.2-0.3-0.1-0.6,0.1-0.8l0,0c0.3-0.2,0.6-0.1,0.8,0.1l0,0c0.2,0.3,0.1,0.6-0.1,0.8l0,0c0,0,0,0,0,0l0,0
				c-0.1,0.1-0.2,0.1-0.4,0.1l0,0C151.3,106.5,151.1,106.4,151,106.3z M129.3,105.6L129.3,105.6L129.3,105.6
				c-0.3-0.2-0.3-0.6-0.1-0.9l0,0c0.2-0.3,0.6-0.3,0.9-0.1l0,0c0.3,0.2,0.3,0.6,0.1,0.9l0,0c-0.1,0.1-0.3,0.2-0.5,0.2l0,0
				C129.5,105.8,129.4,105.7,129.3,105.6z M152.4,105.1c-0.2-0.2-0.2-0.6,0-0.9l0,0c0.2-0.2,0.6-0.2,0.9,0l0,0
				c0.2,0.2,0.2,0.6,0,0.9l0,0c-0.1,0.1-0.3,0.2-0.4,0.2l0,0C152.7,105.3,152.5,105.3,152.4,105.1z M127.9,104.4L127.9,104.4
				L127.9,104.4c-0.2-0.2-0.2-0.6,0-0.9l0,0c0.2-0.2,0.6-0.2,0.9,0l0,0c0.2,0.2,0.2,0.6,0,0.9l0,0c-0.1,0.1-0.3,0.2-0.4,0.2l0,0
				C128.2,104.5,128,104.5,127.9,104.4z M153.7,103.9c-0.2-0.2-0.3-0.6-0.1-0.9l0,0c0.2-0.3,0.6-0.3,0.9-0.1l0,0
				c0.2,0.2,0.3,0.6,0,0.9l0,0c-0.1,0.1-0.3,0.2-0.4,0.2l0,0C154,104,153.8,104,153.7,103.9z M126.7,102.9c-0.2-0.3-0.2-0.6,0.1-0.9
				l0,0c0.3-0.2,0.6-0.2,0.8,0.1l0,0c0.2,0.3,0.2,0.6-0.1,0.8l0,0c-0.1,0.1-0.2,0.1-0.4,0.1l0,0C127,103.2,126.8,103.1,126.7,102.9z
				 M154.9,102.5c-0.3-0.2-0.3-0.6-0.1-0.8l0,0c0.2-0.3,0.6-0.3,0.8-0.1l0,0c0.3,0.2,0.3,0.6,0.1,0.8l0,0c-0.1,0.2-0.3,0.3-0.5,0.3
				l0,0C155.1,102.6,155,102.6,154.9,102.5z M125.6,101.4c-0.2-0.3-0.1-0.7,0.2-0.8l0,0c0.3-0.2,0.7-0.1,0.8,0.2l0,0
				c0.2,0.3,0.1,0.7-0.2,0.8l0,0c-0.1,0.1-0.2,0.1-0.3,0.1l0,0C125.9,101.7,125.7,101.6,125.6,101.4z M155.9,101
				c-0.3-0.2-0.4-0.5-0.2-0.8h0c0.2-0.3,0.5-0.4,0.8-0.2l0,0c0.3,0.2,0.4,0.5,0.2,0.8l0,0c-0.1,0.2-0.3,0.3-0.5,0.3l0,0
				C156.1,101.1,156,101.1,155.9,101z M124.7,99.8L124.7,99.8L124.7,99.8c-0.1-0.3,0-0.7,0.3-0.8l0,0c0.3-0.1,0.7,0,0.8,0.3l0,0
				c0.1,0.3,0,0.7-0.3,0.8l0,0c-0.1,0-0.2,0.1-0.3,0.1l0,0C125,100.1,124.8,100,124.7,99.8z M156.8,99.4c-0.3-0.1-0.4-0.5-0.3-0.8
				l0,0c0.1-0.3,0.5-0.4,0.8-0.3l0,0c0.3,0.1,0.4,0.5,0.3,0.8l0,0c-0.1,0.2-0.3,0.4-0.6,0.4l0,0C157,99.5,156.9,99.5,156.8,99.4z
				 M124,98c-0.1-0.3,0-0.7,0.4-0.8l0,0c0.3-0.1,0.7,0,0.8,0.4l0,0c0.1,0.3,0,0.7-0.4,0.8l0,0c-0.1,0-0.1,0-0.2,0l0,0
				C124.3,98.4,124.1,98.3,124,98z M157.5,97.8c-0.3-0.1-0.5-0.4-0.4-0.8l0,0c0.1-0.3,0.4-0.5,0.8-0.4l0,0c0.3,0.1,0.5,0.4,0.4,0.8
				l0,0c-0.1,0.3-0.3,0.4-0.6,0.4l0,0C157.6,97.8,157.6,97.8,157.5,97.8z M123.4,96.3c-0.1-0.3,0.1-0.7,0.4-0.7l0,0
				c0.3-0.1,0.7,0.1,0.7,0.4h0c0.1,0.3-0.1,0.7-0.4,0.7l0,0c0,0-0.1,0-0.2,0l0,0C123.7,96.7,123.5,96.5,123.4,96.3z M158,96
				c-0.3-0.1-0.5-0.4-0.5-0.7l0,0c0.1-0.3,0.4-0.5,0.7-0.5l0,0c0.3,0.1,0.5,0.4,0.5,0.7l0,0c-0.1,0.3-0.3,0.5-0.6,0.5l0,0
				C158.1,96,158.1,96,158,96z M123.1,94.4c0-0.3,0.2-0.6,0.5-0.7l0,0c0.3,0,0.6,0.2,0.7,0.5l0,0c0,0.3-0.2,0.6-0.5,0.7l0,0
				c0,0-0.1,0-0.1,0l0,0C123.4,94.9,123.1,94.7,123.1,94.4z M158.4,94.3c-0.3,0-0.6-0.3-0.5-0.7l0,0c0-0.3,0.3-0.6,0.7-0.5l0,0
				c0.3,0,0.6,0.3,0.5,0.7l0,0C159,94,158.7,94.3,158.4,94.3L158.4,94.3C158.4,94.3,158.4,94.3,158.4,94.3z M122.9,92.6
				c0-0.3,0.2-0.6,0.6-0.6l0,0c0.3,0,0.6,0.2,0.6,0.6l0,0c0,0.3-0.2,0.6-0.6,0.6l0,0c0,0,0,0,0,0l0,0
				C123.2,93.1,122.9,92.9,122.9,92.6z M157.9,91.9L157.9,91.9c0-0.3,0.3-0.6,0.6-0.6l0,0c0.3,0,0.6,0.3,0.6,0.6l0,0
				c0,0.3-0.3,0.6-0.6,0.6l0,0C158.2,92.5,157.9,92.2,157.9,91.9z"/>
		</g>
	</g>
	<path class="st5" d="M154,127c-0.1-0.4-0.4-0.9-1.1-0.7c-2.2,0.8-4.6,3.1-7.2,3c-2.5-2.3-11.1-9.8-14.6-9.5
		c-0.8,0.1-1.7,0.7-2.4,1.6c-0.9,0.8-2.2,2-3.5,3.2c-0.7-1-1.6-1.9-2.6-2.9c3.1-0.8,9.9-5.9,9.9-5.9l0-0.1c1.4,0.3,4.2-1,4-1.9
		c-0.3-1.5-0.9-2.8-2.3-3.1c-0.9-0.2-2.6,0.6-3,2.1c0,0-5.2,1.9-8,3.8c-2-0.3-5.6-0.7-8.6-0.7c-1-0.6-2.1-1.1-3.1-1.5
		c0,0,0.1,0,0.1,0c4.1,1.7,3.9-1.2,4.3-1.2c2.2-0.2,1.1-1.2,1.5-1.2c0.4,0,0.6-0.2,1.1-0.5c0.5-0.3-0.6-1.5,0.2-1.5
		c0.8,0,1.4-0.8,1.6-1.3c0.2-0.4-0.8-1.5-1.1-1.8c3.4-6.8,0.5-13.8-5.7-17.1c-6.3-3.4-14.2-1.4-17.9,5.5c-3.1,5.7-2.3,12.6,1.7,16.7
		c-0.4,0.8-0.5,2-0.5,3.3c0,2.1,0.2,6,1.3,8.2c2.6,6.7,15.6,19,21.7,17.4c4.8-0.5,8.7-7.4,11.6-12.2c2.3,1.2,5.1,2.3,7.3,3.3
		c1.4,0.6,3.5,1.2,4.3,1.3c0.7,1,2.7,3.3,4.2,1.7C149.3,133,154.7,128.6,154,127z"/>
	<g>
		<g>
			<path class="st5" d="M159.5,185.2c0,0-1.6-14.8,2.5-21.6c4.1-6.7,9.4-14.7,17.5-15.5c8.2-0.8,5.8,13.8,5.1,27.6
				S160.2,193.4,159.5,185.2z"/>
		</g>
		<g>
			<g>
				<path class="st5" d="M216.3,185.2c0,0,1.6-14.8-2.5-21.6c-4.1-6.7-9.4-14.7-17.5-15.5c-8.2-0.8-5.8,13.8-5.1,27.6
					S215.6,193.4,216.3,185.2z"/>
			</g>
			<g>
				<g>
					<path class="st7" d="M177.1,169c-0.4,0-0.7-0.1-1-0.4c-0.5-0.5-0.5-1.4,0.1-1.8l10.8-9.9c0.5-0.5,1.4-0.5,1.8,0.1
						c0.5,0.5,0.5,1.4-0.1,1.8l-10.8,9.9C177.7,168.9,177.4,169,177.1,169z"/>
				</g>
				<g>
					<path class="st7" d="M176.2,175.5c-0.1,0-0.1,0-0.2,0c-0.7-0.1-1.2-0.8-1.1-1.5l0.9-6.5c0.1-0.7,0.8-1.2,1.5-1.1
						c0.7,0.1,1.2,0.8,1.1,1.5l-0.9,6.5C177.4,175,176.8,175.5,176.2,175.5z"/>
				</g>
				<g>
					<path class="st7" d="M167.3,171.1c-0.6,0-1.1-0.4-1.3-1c-0.2-0.7,0.3-1.4,1-1.6l9.7-2.1c0.7-0.2,1.4,0.3,1.6,1s-0.3,1.4-1,1.6
						l-9.7,2.1C167.5,171.1,167.4,171.1,167.3,171.1z"/>
				</g>
				<g>
					<path class="st7" d="M180.9,165.4c-0.3,0-0.6-0.1-0.8-0.3l-2.9-2.4c-0.6-0.5-0.6-1.3-0.2-1.8c0.5-0.6,1.3-0.6,1.8-0.2l2.9,2.4
						c0.6,0.5,0.6,1.3,0.2,1.8C181.7,165.3,181.3,165.4,180.9,165.4z"/>
				</g>
				<g>
					<path class="st7" d="M198.7,169c-0.3,0-0.6-0.1-0.9-0.3l-10.8-9.9c-0.5-0.5-0.6-1.3-0.1-1.8c0.5-0.5,1.3-0.6,1.8-0.1l10.8,9.9
						c0.5,0.5,0.6,1.3,0.1,1.8C199.4,168.9,199,169,198.7,169z"/>
				</g>
				<g>
					<path class="st7" d="M199.6,175.5c-0.6,0-1.2-0.5-1.3-1.1l-0.9-6.5c-0.1-0.7,0.4-1.4,1.1-1.5c0.7-0.1,1.4,0.4,1.5,1.1l0.9,6.5
						c0.1,0.7-0.4,1.4-1.1,1.5C199.7,175.5,199.6,175.5,199.6,175.5z"/>
				</g>
				<g>
					<path class="st7" d="M208.4,171.1c-0.1,0-0.2,0-0.3,0l-9.7-2.1c-0.7-0.2-1.2-0.8-1-1.6c0.2-0.7,0.8-1.1,1.6-1l9.7,2.1
						c0.7,0.2,1.2,0.8,1,1.6C209.5,170.7,209,171.1,208.4,171.1z"/>
				</g>
				<g>
					<path class="st7" d="M194.8,165.4c-0.4,0-0.7-0.2-1-0.5c-0.5-0.6-0.4-1.4,0.2-1.8l2.9-2.4c0.6-0.5,1.4-0.4,1.8,0.2
						c0.5,0.6,0.4,1.4-0.2,1.8l-2.9,2.4C195.4,165.3,195.1,165.4,194.8,165.4z"/>
				</g>
				<g>
					<path class="st7" d="M187.9,159.1c-0.7,0-1.3-0.6-1.3-1.3v-19.4c0-0.7,0.6-1.3,1.3-1.3c0.7,0,1.3,0.6,1.3,1.3v19.4
						C189.2,158.5,188.6,159.1,187.9,159.1z"/>
				</g>
			</g>
		</g>
	</g>
	<g>
		<path class="st5" d="M142.1,221c1.7-10.8-0.3-14.8-0.3-14.8s-4.4-14.4-22.2-13.4s-19.9,16.5-20.1,20.9c-0.2,3.3,0.7,24.4,19.3,32
			c18.6,7.6,21.1-6.9,21.1-6.9L142.1,221z"/>
		<g>
			<g>
				<path class="st7" d="M133.9,228.2c0.1-0.1,0.3-0.2,0.3-0.4c5.9-12,0.2-22.2-0.1-22.6c-0.2-0.4-0.8-0.6-1.2-0.3c0,0,0,0,0,0
					c-0.4,0.2-0.6,0.8-0.3,1.2l0,0c0.1,0.1,5.5,9.8,0,21c-0.2,0.4,0,1,0.4,1.2C133.4,228.3,133.7,228.3,133.9,228.2z"/>
			</g>
			<g>
				<path class="st7" d="M139.8,216.5c0,0,0.1-0.1,0.1-0.1c0.4-0.3,0.4-0.9,0.1-1.2l-4-4.7c-0.3-0.4-0.9-0.4-1.2-0.1
					c-0.4,0.3-0.4,0.9-0.1,1.2l4,4.7C139,216.6,139.4,216.7,139.8,216.5z"/>
			</g>
			<g>
				<path class="st7" d="M132,219.8C132.1,219.8,132.1,219.8,132,219.8l4.5-2.8c0.4-0.3,0.5-0.8,0.3-1.2c-0.3-0.4-0.8-0.5-1.2-0.3
					l-4.4,2.8c-0.4,0.3-0.5,0.8-0.3,1.2C131.1,219.9,131.6,220.1,132,219.8z"/>
			</g>
			<g>
				<path class="st7" d="M138.7,228.3C138.7,228.3,138.7,228.2,138.7,228.3c0.4-0.3,0.6-0.8,0.3-1.2l-3-4.9
					c-0.2-0.4-0.8-0.5-1.2-0.3c0,0,0,0,0,0c-0.4,0.3-0.5,0.8-0.3,1.2l3,4.9C137.7,228.4,138.3,228.5,138.7,228.3z"/>
			</g>
		</g>
		<g>
			<path class="st9" d="M127.3,217.9c-1.6-0.3-3.1-1.5-3.6-3.2c-1.6-4.9-3.9-10.2-4.9-11.3c-1.7-1.4-10-3.7-17.9-4.9
				c-2.6-0.4-4.4-2.9-4-5.5c0.4-2.6,2.9-4.4,5.5-4c4.1,0.7,18,3.1,22.6,7.2c3.5,3,6.6,11.9,7.8,15.6c0.8,2.5-0.6,5.2-3.1,6
				C128.9,218,128,218,127.3,217.9z"/>
		</g>
		<g>
			<path class="st9" d="M123.2,207.7c-1.7-0.3-3.1-1.6-3.6-3.3c-0.8-2.5,0.7-5.2,3.2-6l15.4-4.7c2.5-0.8,5.2,0.7,6,3.2
				c0.8,2.5-0.7,5.2-3.2,6l-15.4,4.7C124.8,207.8,123.9,207.8,123.2,207.7z"/>
		</g>
		<g>
			<g>
				<path class="st10" d="M107.5,211.8C107.4,211.8,107.4,211.8,107.5,211.8c-1.7-0.4-2.7-2.1-2.3-3.7c0-0.2,1.2-4.9,3.8-9.3
					c3.8-6.4,9-9.3,14.7-8.1c0,0,0.1,0,0.1,0c4.7,1,8.4,3.2,11.1,6.5c2.1,2.6,2.9,5.1,3.2,6.4c0.4,1.6-0.6,3.3-2.3,3.7
					c-1.6,0.4-3.3-0.6-3.7-2.3c-0.4-1.5-2.1-6.7-9.7-8.3c0,0,0,0-0.1,0c-7.6-1.6-11.3,12.7-11.4,12.9
					C110.7,211.1,109.1,212.1,107.5,211.8z"/>
			</g>
			<g>
				<path class="st10" d="M117.4,197c-1.2-0.3-2.2-1.3-2.3-2.5l-1-9.4c-0.2-1.6,1-3,2.6-3.2c1.6-0.2,3,1,3.2,2.6l1,9.4
					c0.2,1.6-1,3-2.6,3.2C118,197,117.7,197,117.4,197z"/>
			</g>
			<g>
				<path class="st10" d="M122.6,196.5c-1.6-0.3-2.6-1.9-2.3-3.4l1.8-8.6c0.3-1.6,1.9-2.6,3.4-2.3s2.6,1.9,2.3,3.4l-1.8,8.6
					C125.7,195.9,124.1,196.9,122.6,196.5z"/>
			</g>
			<g>
				<path class="st10" d="M128,198.6c-0.3-0.1-0.5-0.1-0.8-0.3c-1.4-0.8-2-2.5-1.2-3.9l4.5-8.4c0.8-1.4,2.5-2,3.9-1.2
					c1.4,0.8,2,2.5,1.2,3.9l-4.5,8.4C130.6,198.3,129.3,198.9,128,198.6z"/>
			</g>
		</g>
		<g>
			<g>
				<path class="st7" d="M118.5,235.8c-0.2,0-0.3,0-0.5-0.1c-11.2-7.3-11.5-19-11.6-19.4c0-0.5,0.4-0.9,0.9-0.9c0,0,0,0,0,0
					c0.5,0,0.9,0.4,0.9,0.9l0,0c0,0.1,0.3,11.3,10.8,18c0.4,0.3,0.5,0.8,0.3,1.2C119.1,235.6,118.8,235.8,118.5,235.8z"/>
			</g>
			<g>
				<path class="st7" d="M107.5,228.7c-0.1,0-0.1,0-0.2,0c-0.5-0.1-0.8-0.5-0.7-1l1-6c0.1-0.5,0.5-0.8,1-0.7c0.5,0.1,0.8,0.5,0.7,1
					l-1,6C108.3,228.4,107.9,228.7,107.5,228.7z"/>
			</g>
			<g>
				<path class="st7" d="M115.9,227.6C115.9,227.6,115.8,227.6,115.9,227.6l-5.3-0.1c-0.5,0-0.9-0.4-0.8-0.9c0-0.5,0.4-0.9,0.9-0.8
					l5.2,0.1c0.5,0,0.9,0.4,0.8,0.9C116.7,227.3,116.3,227.6,115.9,227.6z"/>
			</g>
			<g>
				<path class="st7" d="M114.5,238.3C114.5,238.3,114.5,238.3,114.5,238.3c-0.5,0-0.9-0.4-0.9-0.9l0.1-5.7c0-0.5,0.4-0.9,0.9-0.9
					c0,0,0,0,0,0c0.5,0,0.9,0.4,0.9,0.9l-0.1,5.7C115.4,237.9,115,238.3,114.5,238.3z"/>
			</g>
		</g>
	</g>
</g>
</svg>
