<?xml version="1.0" encoding="utf-8"?>
<!-- Generator: Adobe Illustrator 22.1.0, SVG Export Plug-In . SVG Version: 6.00 Build 0)  -->
<svg version="1.1" id="Layer_1" xmlns="http://www.w3.org/2000/svg" xmlns:xlink="http://www.w3.org/1999/xlink" x="0px" y="0px"
	 viewBox="0 0 306 306" style="enable-background:new 0 0 306 306;" xml:space="preserve">
<style type="text/css">
	.st0{clip-path:url(#SVGID_2_);fill:#DEFCF2;}
	.st1{clip-path:url(#SVGID_2_);fill:none;}
	.st2{clip-path:url(#SVGID_2_);}
	.st3{fill:#D64541;}
	.st4{fill:#5697A8;}
	.st5{fill:#B2B2B2;}
	.st6{fill:#4E869E;}
	.st7{fill:#D1D1D1;}
	.st8{fill:#999999;}
	.st9{opacity:0.4;fill:#2A5B7F;}
	.st10{opacity:0.4;fill:#0A354F;}
	.st11{fill:#8C8C8C;}
	.st12{opacity:0.7;fill:#578CAD;}
	.st13{fill:#97542A;}
	.st14{fill:#895AE5;}
	.st15{fill:#764DC4;}
	.st16{fill:#D89B59;}
	.st17{fill:#F2D9C2;}
	.st18{fill:#58BCE8;}
	.st19{fill:#B57230;}
</style>
<g>
	<defs>
		<circle id="SVGID_1_" cx="153" cy="153" r="153"/>
	</defs>
	<clipPath id="SVGID_2_">
		<use xlink:href="#SVGID_1_"  style="overflow:visible;"/>
	</clipPath>
	<circle class="st0" cx="153" cy="153" r="153"/>
	<circle class="st1" cx="153" cy="153" r="153"/>
	<g class="st2">
		<g>
			<path class="st3" d="M230.6,58.4l-2-7c-0.4-1.4-0.6-2.4-0.8-3c-0.2-0.8-0.1-1.5,0.2-2.1c0.3-0.6,0.9-0.9,1.6-1
				c0.9-0.2,1.5,0,1.9,0.5c0.4,0.5,0.7,1.4,1,2.5c0.1,0.7,0.2,1.3,0.3,2l0.9,7.5c0.1,0.9,0.1,1.6,0,2.1c-0.1,0.5-0.5,0.8-1,0.9
				c-0.5,0.1-1,0-1.3-0.4C231.2,60,230.9,59.3,230.6,58.4z M234.3,67.9c-0.6,0.1-1.2,0-1.7-0.3c-0.5-0.3-0.9-0.8-1-1.5
				c-0.1-0.6,0-1.2,0.3-1.7c0.3-0.5,0.8-0.8,1.5-1c0.6-0.1,1.2,0,1.7,0.3c0.5,0.3,0.9,0.8,1,1.4c0.1,0.7,0,1.3-0.3,1.8
				C235.4,67.5,234.9,67.8,234.3,67.9z"/>
		</g>
		<g>
			<path class="st3" d="M238.7,49.5c0-1,0.4-1.9,1.1-2.9c0.7-1,1.6-1.7,2.8-2.3c1.2-0.6,2.6-0.9,4.2-0.8c1.5,0.1,2.8,0.4,3.9,1
				c1.1,0.6,1.9,1.4,2.5,2.3c0.6,1,0.8,2,0.8,3.1c0,0.9-0.2,1.6-0.6,2.2c-0.4,0.6-0.8,1.2-1.3,1.6c-0.5,0.5-1.4,1.2-2.7,2.3
				c-0.4,0.3-0.6,0.6-0.9,0.8c-0.2,0.2-0.4,0.4-0.5,0.6c-0.1,0.2-0.2,0.4-0.3,0.6c-0.1,0.2-0.2,0.5-0.3,1c-0.2,1-0.9,1.5-1.9,1.5
				c-0.5,0-1-0.2-1.3-0.6c-0.3-0.4-0.5-0.9-0.5-1.6c0-0.9,0.2-1.6,0.5-2.2c0.3-0.6,0.7-1.1,1.1-1.6c0.5-0.5,1.1-1,1.8-1.6
				c0.7-0.5,1.2-0.9,1.5-1.2c0.3-0.3,0.6-0.6,0.8-0.9s0.3-0.7,0.3-1.1c0-0.8-0.2-1.5-0.8-2.1c-0.6-0.6-1.3-0.9-2.3-0.9
				c-1.1,0-2,0.2-2.5,0.7c-0.6,0.5-1,1.4-1.4,2.4c-0.4,1.1-1.1,1.7-2,1.6c-0.6,0-1-0.2-1.4-0.7C238.8,50.4,238.6,49.9,238.7,49.5z
				 M245.4,66.5c-0.6,0-1.2-0.2-1.6-0.7c-0.4-0.4-0.7-1-0.6-1.7c0-0.6,0.3-1.2,0.7-1.6c0.5-0.4,1-0.6,1.7-0.6c0.6,0,1.2,0.3,1.6,0.7
				c0.4,0.5,0.6,1,0.6,1.6c0,0.7-0.3,1.3-0.8,1.6C246.5,66.3,246,66.5,245.4,66.5z"/>
		</g>
	</g>
	<g class="st2">
		<polygon class="st4" points="170.8,145.2 179.9,145.2 184.6,106.4 175.5,106.4 		"/>
		<rect x="152.6" y="108" class="st4" width="8.6" height="34.8"/>
		<rect x="137.2" y="108" class="st4" width="8.6" height="34.8"/>
		<polygon class="st5" points="112.8,262.3 122.7,262.3 137.6,149.1 127.7,149.1 		"/>
		<polygon class="st5" points="208.2,262.3 198.3,262.3 183.3,149.1 193.3,149.1 		"/>
		<rect x="127.3" y="178" class="st5" width="67" height="12"/>
		<path class="st4" d="M125.1,150l4-0.7c1.9-0.3,3.3-2.4,3-4.6l-10.7-78.7c-0.3-2.2-2.1-3.7-4.1-3.4l-4,0.7c-1.9,0.3-3.3,2.4-3,4.6
			l10.7,78.7C121.3,148.9,123.1,150.4,125.1,150z"/>
		<path class="st4" d="M120.7,140.5v4.6c0,2.2,1.8,4,4,4l72.1,0c2.2,0,4-1.8,4-4v-4.6c0-2.2-1.8-4-4-4h-72.1
			C122.5,136.5,120.7,138.3,120.7,140.5z"/>
		<path class="st6" d="M205.3,110.9H112c-1.6,0-2.9-1.3-2.9-2.9v-3.3c0-1.6,1.3-2.9,2.9-2.9h93.3c1.6,0,2.9,1.3,2.9,2.9v3.3
			C208.2,109.6,206.9,110.9,205.3,110.9z"/>
	</g>
	<g class="st2">
		<path class="st5" d="M108.4,253.9l-6.5-72.5c-0.4-3.8-3.6-6.7-7.4-6.7H44.5c-3.8,0-7,2.9-7.4,6.7l-6.5,72.5
			C29.9,260.1,109,260.1,108.4,253.9z"/>
		<rect x="65.9" y="183" class="st7" width="7.1" height="64.8"/>
		<path class="st7" d="M60,247.9h19v-5.5c0-1.9-1.5-3.4-3.4-3.4H63.4c-1.9,0-3.4,1.5-3.4,3.4V247.9z"/>
		<path class="st5" d="M69.5,265c21.5,0,39-5.2,39-11.6c0,0-19.4,2.2-39,2.2c-19.6,0-39-2.2-39-2.2C30.5,259.8,48,265,69.5,265z"/>
		<path class="st5" d="M102.9,192.3l-1-10.9c-0.4-3.8-3.6-6.7-7.4-6.7H44.5c-3.8,0-7,2.9-7.4,6.7l-1,10.9L102.9,192.3z"/>
		<ellipse class="st8" cx="69.5" cy="182.9" rx="8.5" ry="4.8"/>
		<polygon class="st9" points="31.1,247.8 107.9,247.8 102.9,192.3 36.1,192.3 		"/>
		<path class="st10" d="M33.1,225.4c0,0,5.3-1.8,13.7-1.8s14,3.2,23.9,3.1s16.7-3,22.8-2.7s12.5,2.9,12.5,2.9l1.9,20.9H31.1
			L33.1,225.4z"/>
		<circle class="st11" cx="69.5" cy="256.6" r="5.4"/>
		<circle class="st12" cx="64.9" cy="154.2" r="2.6"/>
		<circle class="st12" cx="69.7" cy="149.5" r="2.6"/>
		<circle class="st12" cx="74.4" cy="144.7" r="2.6"/>
		<circle class="st12" cx="65.3" cy="145.1" r="2.6"/>
		<circle class="st12" cx="70" cy="140.3" r="2.6"/>
		<circle class="st12" cx="64.6" cy="163.4" r="2.6"/>
		<circle class="st12" cx="69.3" cy="158.6" r="2.6"/>
		<circle class="st12" cx="74.1" cy="153.9" r="2.6"/>
		<circle class="st12" cx="69" cy="167.8" r="2.6"/>
		<circle class="st12" cx="73.7" cy="163" r="2.6"/>
	</g>
	<g class="st2">
		<g>
			<rect x="233.6" y="122.6" class="st13" width="10.5" height="138.7"/>
			<path class="st13" d="M200.7,131v-11.5c0-1.2,1-2.2,2.2-2.2h164.7c1.2,0,2.2,1,2.2,2.2V131c0,1.2-1,2.2-2.2,2.2H202.9
				C201.7,133.1,200.7,132.2,200.7,131z"/>
		</g>
	</g>
	<g class="st2">
		<path class="st14" d="M237.8,117.5c0,0.7-0.5,1.3-1.1,1.5c-1.8,0.5-5.4,1.3-9.2,1.3s-7.4-0.8-9.2-1.3c-0.7-0.2-1.1-0.8-1.1-1.5
			V85.4c0-2.4,1.9-4.3,4.3-4.3h12c2.4,0,4.3,1.9,4.3,4.3V117.5z"/>
		<rect x="222.9" y="76.1" class="st14" width="9.1" height="9.1"/>
		<path class="st5" d="M222.2,76.9h10.4c0.1,0,0.1,0,0.1-0.1v-4.1c0-0.1,0-0.1-0.1-0.1h-10.4c-0.1,0-0.1,0-0.1,0.1v4.1
			C222.1,76.8,222.2,76.9,222.2,76.9z"/>
		<rect x="217.1" y="93.4" class="st15" width="20.7" height="8.7"/>
	</g>
	<g class="st2">
		<path class="st16" d="M270.8,74.2h-20.3c-2,0-3.6,1.6-3.6,3.6c0,0-1.6,14.3-1.9,19.1c-0.2,5,0,19.9,0,19.9c0,1.5,1.2,2.8,2.8,2.8
			h25.7c1.5,0,2.8-1.2,2.8-2.8c0,0,0.2-15,0-19.9c-0.2-4.8-1.9-19.1-1.9-19.1C274.4,75.8,272.8,74.2,270.8,74.2z"/>
		<g>
			<circle class="st17" cx="260.6" cy="100.7" r="10.4"/>
			<g>
				<path class="st18" d="M258.4,93.4c-1.8,0.5-2.7,2.6-2.1,4.7l1.1,3.6l6.4-1.9l-1.1-3.6C262.1,94.1,260.2,92.9,258.4,93.4z"/>
				<path class="st5" d="M258.5,105.2c0.6,2,2.5,3.3,4.3,2.8c1.8-0.5,2.7-2.6,2.1-4.7l-1.1-3.6l-6.4,1.9L258.5,105.2z"/>
			</g>
		</g>
		<path class="st19" d="M275.4,75.6h-29.5c-0.1,0-0.2-0.1-0.2-0.2v-1.6c0-0.1,0.1-0.2,0.2-0.2h29.5c0.1,0,0.2,0.1,0.2,0.2v1.6
			C275.6,75.5,275.5,75.6,275.4,75.6z"/>
	</g>
</g>
</svg>
