<?xml version="1.0" encoding="utf-8"?>
<!-- Generator: Adobe Illustrator 22.1.0, SVG Export Plug-In . SVG Version: 6.00 Build 0)  -->
<svg version="1.1" id="Layer_1" xmlns="http://www.w3.org/2000/svg" xmlns:xlink="http://www.w3.org/1999/xlink" x="0px" y="0px"
	 viewBox="0 0 306 306" style="enable-background:new 0 0 306 306;" xml:space="preserve">
<style type="text/css">
	.st0{clip-path:url(#SVGID_2_);fill:#DEFCF2;}
	.st1{clip-path:url(#SVGID_2_);}
	.st2{fill:#EDD598;}
	.st3{clip-path:url(#SVGID_2_);fill:#CBECEF;}
	.st4{fill:#B5895D;}
	.st5{fill:#6DB28E;}
	.st6{fill:#92DDB6;}
	.st7{clip-path:url(#SVGID_2_);fill:#B5895D;}
	.st8{fill:#83CBA8;}
	.st9{fill:#00A69C;}
	.st10{fill:#FFFFFF;}
	.st11{fill:#C3996B;}
	.st12{clip-path:url(#SVGID_4_);fill:#CA6B4F;}
	.st13{clip-path:url(#SVGID_4_);fill:#A54122;}
	.st14{clip-path:url(#SVGID_2_);fill:#A87C4F;stroke:#A87C4F;stroke-width:0.5;stroke-linecap:round;stroke-miterlimit:10;}
	.st15{clip-path:url(#SVGID_2_);fill:#42210B;}
	.st16{clip-path:url(#SVGID_2_);fill:#231F20;}
	.st17{clip-path:url(#SVGID_2_);fill:#C3CED8;}
	.st18{clip-path:url(#SVGID_2_);fill:#679BDA;}
	.st19{clip-path:url(#SVGID_2_);fill:none;}
</style>
<g>
	<defs>
		<circle id="SVGID_1_" cx="153" cy="153" r="153"/>
	</defs>
	<clipPath id="SVGID_2_">
		<use xlink:href="#SVGID_1_"  style="overflow:visible;"/>
	</clipPath>
	<circle class="st0" cx="153" cy="153" r="153"/>
	<g class="st1">
		<g>
			
				<rect x="-17.5" y="147.2" transform="matrix(-1.836970e-16 1 -1 -1.836970e-16 196.5385 124.9326)" class="st2" width="106.7" height="27.2"/>
			
				<rect x="31.6" y="147.2" transform="matrix(-1.836970e-16 1 -1 -1.836970e-16 245.7041 75.767)" class="st2" width="106.7" height="27.2"/>
			
				<rect x="80.8" y="147.2" transform="matrix(-1.836970e-16 1 -1 -1.836970e-16 294.8696 26.6015)" class="st2" width="106.7" height="27.2"/>
			
				<rect x="130" y="147.2" transform="matrix(-1.836970e-16 1 -1 -1.836970e-16 344.0352 -22.5641)" class="st2" width="106.7" height="27.2"/>
			
				<rect x="179.1" y="147.2" transform="matrix(-1.836970e-16 1 -1 -1.836970e-16 393.2007 -71.7296)" class="st2" width="106.7" height="27.2"/>
			
				<rect x="277.5" y="147.2" transform="matrix(-1.836970e-16 1 -1 -1.836970e-16 491.5319 -170.0607)" class="st2" width="106.7" height="27.2"/>
			
				<rect x="-66.7" y="147.2" transform="matrix(-1.836970e-16 1 -1 -1.836970e-16 147.373 174.0982)" class="st2" width="106.7" height="27.2"/>
			
				<rect x="228.3" y="147.2" transform="matrix(-1.836970e-16 1 -1 -1.836970e-16 442.3663 -120.8952)" class="st2" width="106.7" height="27.2"/>
		</g>
		<rect x="-34.2" y="103.9" class="st2" width="366.7" height="15"/>
	</g>
	<rect x="-76.8" y="207" class="st3" width="439.3" height="170"/>
	<g class="st1">
		<path class="st4" d="M226.8,106.5L210,75.7c-1.4-2.5-0.4-5.8,2.1-7.2l150.8-81.9c2.5-1.4,5.8-0.4,7.2,2.1l16.7,30.8
			c1.4,2.5,0.4,5.8-2.1,7.2l-150.8,81.9C231.4,110,228.2,109.1,226.8,106.5z"/>
		<path class="st4" d="M250.1,64.2l6.5,8c7.6,9.4,6.2,23.3-3.2,31L233.9,119c-9.4,7.6-23.3,6.2-31-3.2l-6.5-8
			c-7.6-9.4-6.2-23.3,3.2-31L219.1,61C228.5,53.4,242.5,54.8,250.1,64.2z"/>
	</g>
	<g class="st1">
		<path class="st5" d="M283.5,249.2l56.4-22.8c5.5-2.2,8.2-8.5,5.9-14l-8.8-21.7c-2.2-5.5-8.5-8.2-14-5.9l-56.4,22.8
			c-5.5,2.2-8.2,8.5-5.9,14l8.8,21.7C271.7,248.8,278,251.4,283.5,249.2z"/>
		<path class="st5" d="M322.5,224.4l37.8,12.3c3.8,1.2,7.4-0.8,8.1-4.6l5-25.8c0.7-3.7-1.7-7.8-5.5-9l-37.8-12.3
			c-3.8-1.2-7.4,0.8-8.1,4.6l-5,25.8C316.3,219.2,318.7,223.2,322.5,224.4z"/>
		<path class="st5" d="M397.5,199.2l-12.7,37.5c-1.4,4.3-6.1,6.5-10.3,5.1l-19.1-6.5c-3.8-1.3-5.8-5.4-4.5-9.1l12.3-36.2
			c1.7-5,7.2-7.8,12.2-6l17.5,5.9C396.8,191.2,398.8,195.4,397.5,199.2z"/>
	</g>
	<g class="st1">
		<path class="st6" d="M191.1,243.4l9.4,3c6.5,2.1,13.4-1.8,15.4-8.6l8.8-30.3c2-6.8-1.7-14.1-8.2-16.1l-9.4-3
			c-6.5-2.1-13.4,1.8-15.4,8.6l-8.8,30.3C180.9,234.1,184.6,241.3,191.1,243.4z"/>
		<path class="st5" d="M209.2,219.6l7-2.5c7.1-2.5,10.9-10.6,8.6-18l-8.8-27.6c-2.4-7.4-10-11.4-17.1-8.9l-7,2.5
			c-7.1,2.5-10.9,10.6-8.6,18l8.8,27.6C194.4,218.1,202.1,222.1,209.2,219.6z"/>
		<path class="st4" d="M200.7,181.3l0.1-0.1c8-3.3,11.9-12.9,8.8-21.3l-2.8-7.3c-3.2-8.4-12.3-12.5-20.3-9.1l-0.1,0.1
			c-8,3.3-11.9,12.9-8.8,21.3l2.8,7.3C183.7,180.6,192.8,184.7,200.7,181.3z"/>
	</g>
	
		<rect x="155.3" y="213.6" transform="matrix(3.419098e-02 -0.9994 0.9994 3.419098e-02 -57.9777 382.5379)" class="st7" width="27.2" height="15.4"/>
	<g class="st1">
		<path class="st8" d="M291.3,259.8c7.7-6.2,25.2-15.7,22.2-38.8c-6.1-48.3-63.6-57.4-102.9-45c-15.3,4.8-23.6,15-31.3,24.1
			c-13.8,16.4-9.1,48.4,14.4,56.7C225.7,268,275.6,272.3,291.3,259.8z"/>
		<g>
			<path class="st9" d="M198.7,181.4c-2,1.3-3.9,2.7-5.6,4.1c0.6,0.7,1,1.6,0.9,2.7c-0.1,2.2-1.9,3.9-4.1,3.8c-1,0-1.9-0.5-2.6-1.1
				c-0.7,0.8-1.4,1.5-2.1,2.3c-0.3,0.3-0.6,0.7-0.9,1c0.9,0.8,1.5,1.9,1.5,3.2c-0.1,2.2-1.9,3.9-4.1,3.8c-1,0-1.8-0.4-2.5-1
				c-1,1.2-1.9,2.5-2.7,3.9c1.5,0.6,2.5,2.1,2.4,3.8c-0.1,2.2-1.9,3.9-4.1,3.8c-0.5,0-1.1-0.1-1.5-0.4c-0.9,3-1.5,6.2-1.7,9.5
				c-0.2,4,1.2,11.9,1.2,11.9s15-27.4,24.5-35.9C204.7,190.3,202.2,179.2,198.7,181.4z"/>
			<path class="st10" d="M178.9,207.9c0.1-1.7-1-3.2-2.4-3.8c-1.3,2.2-2.4,4.7-3.2,7.2c0.5,0.2,1,0.3,1.5,0.4
				C177,211.7,178.8,210,178.9,207.9z"/>
			<path class="st10" d="M185.8,197.4c0-1.3-0.5-2.4-1.5-3.2c-1.7,1.9-3.4,3.9-5,5.8c0,0-0.1,0.1-0.1,0.1c0.7,0.6,1.5,1,2.5,1
				C183.9,201.3,185.7,199.6,185.8,197.4z"/>
			<path class="st10" d="M194,188.2c0-1-0.3-1.9-0.9-2.7c-2.1,1.7-3.9,3.5-5.7,5.4c0.7,0.6,1.6,1.1,2.6,1.1
				C192.1,192.1,193.9,190.4,194,188.2z"/>
		</g>
	</g>
	<g class="st1">
		<path class="st6" d="M183.9,238.5l6.7,7.5c4.6,5.2,12.5,5.4,17.4,0.6l22-21.7c4.9-4.9,5.2-13.1,0.6-18.3l-6.7-7.5
			c-4.6-5.2-12.5-5.4-17.4-0.6l-22,21.7C179.5,225.1,179.2,233.3,183.9,238.5z"/>
		<path class="st6" d="M210.8,227.3l7.2,1.5c7.3,1.5,14.5-3.5,16-11.1l5.6-28.6c1.5-7.7-3.3-15.2-10.5-16.7l-7.2-1.5
			c-7.3-1.5-14.5,3.5-16,11.1l-5.6,28.6C198.7,218.3,203.5,225.8,210.8,227.3z"/>
		<path class="st11" d="M221.7,189.7l0.2,0c8.5,1.3,16.5-5,17.7-13.9l1.1-7.8c1.3-8.9-4.7-17.3-13.2-18.5l-0.2,0
			c-8.5-1.3-16.5,5-17.7,13.9l-1.1,7.8C207.3,180,213.2,188.4,221.7,189.7z"/>
	</g>
	<g class="st1">
		<path class="st8" d="M302.7,251.1l40.1-45.7c3.9-4.5,3.5-11.3-1-15.2l-17.6-15.4c-4.5-3.9-11.3-3.5-15.2,1L269,221.5
			c-3.9,4.5-3.5,11.3,1,15.2l17.6,15.4C292,256,298.8,255.6,302.7,251.1z"/>
		<path class="st8" d="M326.5,211.5l39.3-6c3.9-0.6,6.2-4.1,5.2-7.7l-7.1-25.2c-1-3.7-5-6.2-8.9-5.6l-39.3,6
			c-3.9,0.6-6.2,4.1-5.2,7.7l7.1,25.2C318.6,209.6,322.6,212.1,326.5,211.5z"/>
		<path class="st8" d="M382.2,155.2l5.5,39.2c0.6,4.4-2.5,8.6-6.9,9.2l-20,2.8c-3.9,0.6-7.6-2.2-8.1-6.1l-5.3-37.9
			c-0.7-5.3,2.9-10.1,8.2-10.9l18.3-2.6C377.9,148.4,381.6,151.2,382.2,155.2z"/>
	</g>
	<g class="st1">
		<path class="st11" d="M50.2,191.7c0-0.1-1.3-0.6-1.3-0.7c0-0.1,1.5,0.1,1.5,0c6.7-29,28.4-47.2,70.2-37.5
			c5.9,1.4,11.3,3.1,14.9,3.6c10,1.3,11.6-0.9,11.6-0.9s32.6,15.7,24.7,49.6c-11.1,47.6-44,66.3-77.4,58.6
			C52.6,254.7,43.5,220.7,50.2,191.7z"/>
		<g>
			<defs>
				<path id="SVGID_3_" d="M50.2,191.7c0-0.1-1.3-0.6-1.3-0.7c0-0.1,1.5,0.1,1.5,0c6.7-29,28.4-47.2,70.2-37.5
					c5.9,1.4,11.3,3.1,14.9,3.6c10,1.3,11.6-0.9,11.6-0.9s32.6,15.7,24.7,49.6c-11.1,47.6-44,66.3-77.4,58.6
					C52.6,254.7,43.5,220.7,50.2,191.7z"/>
			</defs>
			<clipPath id="SVGID_4_">
				<use xlink:href="#SVGID_3_"  style="overflow:visible;"/>
			</clipPath>
			<path class="st12" d="M174.8,155.6c-1.2-2.1-3.6-3.2-6-2.6c-1.7,0.4-3.3,1.2-4.9,2c-5.7,3.3-10.2,9.3-12.4,15.4
				c-0.6,1.6-1,3.3-1.2,4.9c-0.2,1.7-0.3,3.4-0.1,5c0.4,2.7,2.7,4.6,5.3,4.6c-0.4-4.6,1.8-11.6,6.2-18.1
				C165.9,160.7,170.9,156.6,174.8,155.6z"/>
			<path class="st13" d="M160.9,178.9c-0.6-4.1,4-13.8,10.5-15.5c2.9-0.7,4.6-3.7,3.9-6.6c-0.1-0.5-0.3-0.9-0.5-1.3
				c-3.9,1-8.9,5.1-13.1,11.3c-4.3,6.5-6.6,13.4-6.2,18.1c0.2,0,0.5,0,0.8,0C159.3,184.6,161.3,181.9,160.9,178.9z"/>
		</g>
	</g>
	<path class="st7" d="M117.8,209.6c0,0-2.8,9,6.7,11.7c9.4,2.7,11.6-9.7,11.6-9.7L117.8,209.6z"/>
	<path class="st14" d="M123.9,211c-0.1,1.4,0.9,2.7,2.3,2.8c1.4,0.1,2.7-0.9,2.8-2.3"/>
	<path class="st15" d="M80.7,182c-0.8,2.7-2.7,5.1-5.1,6.7c-2.4,1.6-5.4,2.3-8.3,2.1c-6.1-0.5-11.1-6.4-10.5-12.6
		c0.3-3.1,2.3-6.1,5.1-7.4c2.8-1.3,6.4-1.4,8.9,0.7c2.5,2,3.6,5.4,2.5,8.4c-1.1,3.1-4.9,4.6-7.6,3.2c-0.3-0.1-0.4-0.4-0.2-0.7
		c0.1-0.2,0.4-0.3,0.6-0.3c2.4,0.8,5-0.7,5.5-2.9c0.6-2.1-0.3-4.7-2.2-6c-1.8-1.3-4.4-1.3-6.4-0.3c-2,1-3.4,3.1-3.6,5.4
		c-0.6,4.7,3.3,9.4,8,10.1c4.8,0.8,10.1-2.1,12.3-6.8c0.1-0.2,0.4-0.3,0.6-0.2C80.7,181.5,80.8,181.8,80.7,182z"/>
	<path class="st16" d="M131,164.8c3.9,0.9,4.5,3.3,3.9,6s-2.2,4.6-6.1,3.7s-6.9-3.9-6.3-6.6S127.1,163.8,131,164.8z"/>
	<path class="st15" d="M115.7,174.5c-0.1,0.4-0.3,0.8-0.7,1c-0.7,0.4-1.6,0.2-2-0.5c-2.1-3.2-2.3-7.6-0.7-11.1
		c0.3-0.7,1.2-1.1,2-0.7s1,1.2,0.7,2c-1.2,2.6-1,5.8,0.5,8.2C115.7,173.7,115.8,174.1,115.7,174.5z"/>
	
		<rect x="159.9" y="131.2" transform="matrix(-0.674 -0.7387 0.7387 -0.674 173.8823 344.5327)" class="st17" width="6.1" height="5.4"/>
	<polygon class="st17" points="163,139.8 166.4,143.6 152.7,154.4 151,152.5 	"/>
	<path class="st18" d="M172.6,121c-3.6,9.8-12.9,19.2-12.9,19.2l3.1,3.3l3.1,3.3c0,0,10.2-8.5,20.3-11.1c7.9-2.1,18,0,24.7-6.1
		c9.5-8.7,10.1-22.6,1.9-31.6c-8.2-9-22.2-9.7-31.7-1C174.3,103.1,175.5,113.3,172.6,121z"/>
	
		<ellipse transform="matrix(0.7387 -0.674 0.674 0.7387 -30.6705 176.7438)" class="st18" cx="212.6" cy="127.9" rx="3.5" ry="2.7"/>
	<ellipse transform="matrix(0.7387 -0.674 0.674 0.7387 -16.4467 148.1303)" class="st18" cx="182.8" cy="95.3" rx="3.5" ry="2.7"/>
	<circle class="st19" cx="153" cy="153" r="153"/>
	<g class="st1">
		<path class="st11" d="M282.5,176.8L265.8,146c-1.4-2.5-0.4-5.8,2.1-7.2L418.7,57c2.5-1.4,5.8-0.4,7.2,2.1l16.7,30.8
			c1.4,2.5,0.4,5.8-2.1,7.2L289.7,179C287.1,180.3,283.9,179.4,282.5,176.8z"/>
		<path class="st11" d="M305.8,134.5l6.5,8c7.6,9.4,6.2,23.3-3.2,31l-19.5,15.8c-9.4,7.6-23.3,6.2-31-3.2l-6.5-8
			c-7.6-9.4-6.2-23.3,3.2-31l19.5-15.8C284.2,123.7,298.2,125.1,305.8,134.5z"/>
	</g>
</g>
</svg>
