<?xml version="1.0" encoding="utf-8"?>
<!-- Generator: Adobe Illustrator 22.1.0, SVG Export Plug-In . SVG Version: 6.00 Build 0)  -->
<svg version="1.1" id="Layer_1" xmlns="http://www.w3.org/2000/svg" xmlns:xlink="http://www.w3.org/1999/xlink" x="0px" y="0px"
	 viewBox="0 0 306 306" style="enable-background:new 0 0 306 306;" xml:space="preserve">
<style type="text/css">
	.st0{fill:#FFFFFF;}
	.st1{clip-path:url(#SVGID_2_);}
	.st2{fill:#83CBA8;}
	.st3{fill:#00A69C;}
	.st4{fill:#C3996B;}
	.st5{opacity:0.7;fill:#42210B;}
	.st6{fill:#A87C4F;stroke:#A87C4F;stroke-width:0.5;stroke-linecap:round;stroke-miterlimit:10;}
	.st7{fill:#231F20;}
	.st8{opacity:0.7;}
	.st9{fill:#A87C4F;}
	.st10{fill-rule:evenodd;clip-rule:evenodd;fill:#67D3F4;}
	.st11{fill:#67D3F4;}
	.st12{fill:#CA6B4F;}
	.st13{fill:#A54122;}
</style>
<title>scene-needle-poke</title>
<g>
	<circle class="st0" cx="153" cy="153" r="153"/>
	<g>
		<defs>
			<circle id="SVGID_1_" cx="153" cy="153" r="153"/>
		</defs>
		<clipPath id="SVGID_2_">
			<use xlink:href="#SVGID_1_"  style="overflow:visible;"/>
		</clipPath>
		<g class="st1">
			<path class="st2" d="M152.5,307L152.5,307c-27.4,0-55-9.2-55-36.6l4.7-49c0-13.1,2.3-36.1,14.1-37.6c18.5-2.3,22.9-8.4,37.1-8.4
				h0c13.7,0,19.8,6.1,35.9,8.8c12.3,2.1,15.3,24.1,15.3,37.8l4.9,52.8C209.6,302.2,179.9,307,152.5,307z"/>
			<path class="st3" d="M164.8,235.3h-21.4c-1.8,0-3.3-1.5-3.3-3.3v-63.6c0-1.8,1.5-3.3,3.3-3.3h21.4c1.8,0,3.3,1.5,3.3,3.3V232
				C168.1,233.9,166.6,235.3,164.8,235.3z"/>
			<g>
				<path class="st2" d="M128.5,201.8l-6,15.3c-2,5.1-7.9,7.7-13,5.7L74,208.9c-5.1-2-7.7-7.9-5.7-13l6-15.3c2-5.1,7.9-7.7,13-5.7
					l35.5,13.9C128,190.8,130.5,196.7,128.5,201.8z"/>
				<path class="st2" d="M97.5,205.8l-8.1,5.3c-6.2,4-14.6,2.3-18.6-3.9L53.7,181c-4-6.2-2.3-14.6,3.9-18.6l8.1-5.3
					c6.2-4,14.6-2.3,18.6,3.9l17.1,26.2C105.4,193.4,103.7,201.8,97.5,205.8z"/>
				<path class="st4" d="M79.5,170.9l-15.3,8.8c-3.7,2.2-8.5,0.9-10.7-2.9l-12.7-22c-2.2-3.7-0.9-8.5,2.9-10.7l15.3-8.8
					c3.7-2.2,8.5-0.9,10.7,2.9l12.7,22C84.5,163.9,83.2,168.7,79.5,170.9z"/>
			</g>
			<g>
				<path class="st2" d="M178.9,203l5.1,12.9c2.3,5.8,8.9,8.7,14.7,6.4l33.1-13c5.8-2.3,8.7-8.9,6.4-14.7l-5.1-12.9
					c-2.3-5.8-8.9-8.7-14.7-6.4l-33.1,13C179.5,190.6,176.6,197.2,178.9,203z"/>
				<path class="st2" d="M210,206.2l7,4.6c6.5,4.2,15.2,2.4,19.5-4.1l16.4-25.1c4.2-6.5,2.4-15.2-4.1-19.5l-7-4.6
					c-6.5-4.2-15.2-2.4-19.5,4.1l-16.4,25.1C201.7,193.2,203.5,201.9,210,206.2z"/>
				<path class="st4" d="M229.6,172.1l11,6.3c4.9,2.8,11.2,1.1,14.1-3.8l10.3-17.8c2.8-4.9,1.1-11.2-3.8-14.1l-11-6.3
					c-4.9-2.8-11.2-1.1-14.1,3.8l-10.3,17.8C223,163,224.7,169.3,229.6,172.1z"/>
			</g>
			<g>
				<path class="st2" d="M124.5,326.3l-19.1-0.4c-4.8-0.1-8.6-4.1-8.5-8.9l1.1-55.9c0.1-4.8,4.1-8.6,8.9-8.5L126,253
					c4.8,0.1,8.6,4.1,8.5,8.9l-1.1,55.9C133.3,322.5,129.3,326.4,124.5,326.3z"/>
				<path class="st2" d="M141.4,362.8l-27.2,6c-2.3,0.5-4.6-1-5.1-3.3l-14-63.1c-0.5-2.3,1-4.6,3.3-5.1l27.2-6
					c2.3-0.5,4.6,1,5.1,3.3l14,63.1C145.2,360,143.7,362.3,141.4,362.8z"/>
			</g>
			<g>
				<path class="st2" d="M182,328.2l20.2-0.4c4.5-0.1,8.1-3.8,8-8.3l-1.2-57c-0.1-4.5-3.8-8.1-8.3-8l-20.2,0.4
					c-4.5,0.1-8.1,3.8-8,8.3l1.2,57C173.8,324.7,177.5,328.3,182,328.2z"/>
				<path class="st2" d="M165.6,364.7l27.2,6c2.3,0.5,4.6-1,5.1-3.3l14-63.1c0.5-2.3-1-4.6-3.3-5.1l-27.2-6c-2.3-0.5-4.6,1-5.1,3.3
					l-14,63.1C161.8,361.9,163.3,364.2,165.6,364.7z"/>
			</g>
			<circle class="st0" cx="154.1" cy="200" r="2.7"/>
			<circle class="st0" cx="154.1" cy="210.5" r="2.7"/>
			<circle class="st0" cx="154.1" cy="221.1" r="2.7"/>
			<g>
				<path class="st4" d="M214.5,126.9c0.1-1.7,0.2-3.4,0.2-5.2c0-35.3-27.1-57.8-60.3-57.8c-33.2,0-59.9,22.5-59.9,57.8
					c0,1.7,0.1,3.5,0.2,5.2c-0.1,0-0.2,0-0.3,0c-12.4,0-12.4,17.2,0,17.2c1.4,0,2.6-0.2,3.7-0.6c4.5,13.3,13.5,25.2,25.7,33
					c9.4,5.9,19.5,9.4,30.8,9.4c15.6,0,30.5-7,41.2-17.7c7-6.9,12.2-15.4,15.3-24.6c0.9,0.2,1.9,0.4,3,0.4
					C226.1,144.1,226.3,127.4,214.5,126.9z"/>
				<path class="st5" d="M147.2,87.9c-1.3-2.3-1.7-5-1.2-7.6c0.5-2.6,1.9-5.1,4-6.9c4.2-3.7,11.3-3.3,15,1.1
					c1.9,2.2,2.6,5.4,1.6,8.1c-0.9,2.7-3.2,5.1-6.2,5.5c-2.9,0.4-5.9-1.1-7.2-3.7c-1.3-2.7,0.1-6.2,2.8-7.1c0.2-0.1,0.5,0,0.6,0.3
					c0.1,0.2,0,0.5-0.2,0.6c-2,1.1-2.7,3.7-1.6,5.5c1,1.8,3.4,2.8,5.4,2.4c2-0.4,3.7-2.1,4.3-4.1c0.6-2,0.1-4.2-1.3-5.8
					c-2.7-3.4-8.3-3.9-11.8-1.1c-3.6,2.7-5.1,8-3.3,12.5c0.1,0.2,0,0.5-0.2,0.5C147.5,88.2,147.3,88.1,147.2,87.9z"/>
				<path class="st6" d="M94.4,138.2c-1.4,0.2-2.6-0.7-2.9-2.1s0.7-2.6,2.1-2.9"/>
				<g>
					<path class="st7" d="M184.8,130.1c0,3.7-3,4.7-6.7,4.7c-3.7,0-6.7-1-6.7-4.7s3-7,6.7-7C181.8,123.1,184.8,126.4,184.8,130.1z"
						/>
				</g>
				<g>
					<path class="st7" d="M140,130.1c0,3.7-3,4.7-6.7,4.7s-6.7-1-6.7-4.7s3-7,6.7-7S140,126.4,140,130.1z"/>
				</g>
				<g class="st8">
					<path class="st5" d="M186.7,114c0.4,0.1,0.7,0,1.1-0.2c0.6-0.4,0.8-1.3,0.4-1.9c-1.9-3-5.5-4.9-9-4.8c-0.8,0-1.4,0.6-1.4,1.4
						s0.6,1.3,1.4,1.4c2.6,0,5.3,1.4,6.7,3.6C186.1,113.7,186.3,113.9,186.7,114z"/>
				</g>
				<g class="st8">
					<path class="st5" d="M126.9,114c-0.4,0.1-0.7,0-1.1-0.2c-0.6-0.4-0.8-1.3-0.4-1.9c1.9-3,5.5-4.9,9-4.8c0.8,0,1.4,0.6,1.4,1.4
						s-0.6,1.3-1.4,1.4c-2.6,0-5.3,1.4-6.7,3.6C127.5,113.7,127.3,113.9,126.9,114z"/>
				</g>
				<path class="st9" d="M156.1,145.7L156.1,145.7c-2.1,0-4.2-0.2-4.2-0.8l0.4-2.5c0-0.6,1.7-1.1,3.8-1.1h0c2.1,0,3.8,0.5,3.8,1.1
					l0.4,2.5C160.4,145.5,158.2,145.7,156.1,145.7z"/>
				<path class="st10" d="M196.6,103.7c0,1.9-0.9,3.5-2.2,3.5c-1.2,0-2.3-1.5-2.3-3.4c0-1.9,2.1-7.2,2.1-7.2
					S196.6,101.8,196.6,103.7z"/>
				<path class="st10" d="M189.2,97.9c0,2.2-1.1,4-2.5,4c-1.4,0-2.6-1.7-2.6-3.9c0-2.2,2.4-8.1,2.4-8.1S189.2,95.7,189.2,97.9z"/>
				<path class="st10" d="M196.6,91.7c0,1.9-0.9,3.5-2.2,3.5c-1.2,0-2.3-1.5-2.3-3.4c0-1.9,2.1-7.2,2.1-7.2S196.6,89.7,196.6,91.7z"
					/>
				<g>
					<g>
						<path class="st11" d="M151.5,170.2v11.5c0,3.4-2.8,6.2-6.2,6.2c-2.9,0-5.2-2.3-5.2-5.2c0-2.4,2-4.4,4.4-4.4
							c0.7,0,1.2,0.6,1.2,1.2c0,0.7-0.6,1.2-1.2,1.2c-1.1,0-1.9,0.9-1.9,1.9c0,1.5,1.2,2.7,2.7,2.7c2.1,0,3.7-1.7,3.7-3.7v-11.5
							c0-0.7,0.6-1.2,1.2-1.2C151,169,151.5,169.5,151.5,170.2z"/>
					</g>
					<g>
						<path class="st11" d="M171.5,191.6c0,2.9-2.3,5.2-5.2,5.2c-3.4,0-6.2-2.8-6.2-6.2v-19.4c0-0.7,0.6-1.2,1.2-1.2
							c0.7,0,1.2,0.6,1.2,1.2v19.4c0,2.1,1.7,3.7,3.7,3.7c1.5,0,2.7-1.2,2.7-2.7c0-1.1-0.9-1.9-1.9-1.9c-0.7,0-1.2-0.6-1.2-1.2
							s0.6-1.2,1.2-1.2C169.5,187.2,171.5,189.2,171.5,191.6z"/>
					</g>
					<g>
						<path class="st11" d="M157,167.4v25.7c0,3.4-2.8,6.2-6.2,6.2c-2.9,0-5.2-2.3-5.2-5.2c0-2.4,2-4.4,4.4-4.4
							c0.7,0,1.2,0.6,1.2,1.2c0,0.7-0.6,1.2-1.2,1.2c-1.1,0-1.9,0.9-1.9,1.9c0,1.5,1.2,2.7,2.7,2.7c2.1,0,3.7-1.7,3.7-3.7v-25.7
							c0-0.7,0.6-1.2,1.2-1.2S157,166.7,157,167.4z"/>
					</g>
				</g>
				<g>
					<path class="st12" d="M166.1,162.1c0.7-1.2,0.4-2.8-0.6-3.8c-0.8-0.7-1.6-1.3-2.6-1.7c-3.4-1.8-7.8-2.1-11.5-1.2
						c-1,0.2-1.9,0.6-2.8,1c-0.9,0.4-1.8,0.9-2.5,1.5c-1.2,1-1.4,2.8-0.6,4.1c2.2-1.7,6.3-2.8,10.9-2.7
						C160.8,159.3,164.4,160.4,166.1,162.1z"/>
					<path class="st13" d="M150.3,162.6c1.8-1.6,8-2.4,11,0.3c1.3,1.2,3.3,1.1,4.5-0.2c0.2-0.2,0.3-0.4,0.5-0.7
						c-1.7-1.6-5.3-2.8-9.7-2.8c-4.6-0.1-8.7,1-10.9,2.7c0.1,0.1,0.2,0.2,0.3,0.4C147,163.6,148.9,163.8,150.3,162.6z"/>
				</g>
			</g>
		</g>
	</g>
</g>
</svg>
